<svg version="1.1" id="Layer_1" xmlns="http://www.w3.org/2000/svg" x="0" y="0" viewBox="0 0 768 68" style="enable-background:new 0 0 768 68" xml:space="preserve"><style>.st0{fill:#f8d24e}</style><ellipse class="st0" cx="654.9" cy="63.1" rx="3.7" ry="3.8"/><ellipse class="st0" cx="663" cy="58" rx="3.7" ry="3.8"/><ellipse class="st0" cx="672.4" cy="52.2" rx="3.7" ry="3.8"/><ellipse class="st0" cx="681.1" cy="47.1" rx="3.7" ry="3.8"/><ellipse class="st0" cx="676.1" cy="60.6" rx="3.7" ry="3.8"/><ellipse class="st0" cx="684.2" cy="55.4" rx="3.7" ry="3.8"/><ellipse class="st0" cx="693.6" cy="49.7" rx="3.7" ry="3.8"/><ellipse class="st0" cx="702.3" cy="44.6" rx="3.7" ry="3.8"/><ellipse class="st0" cx="694.2" cy="58.6" rx="3.7" ry="3.8"/><ellipse class="st0" cx="702.3" cy="53.5" rx="3.7" ry="3.8"/><ellipse class="st0" cx="711.7" cy="47.8" rx="3.7" ry="3.8"/><ellipse class="st0" cx="720.4" cy="42.6" rx="3.7" ry="3.8"/><ellipse class="st0" cx="711.7" cy="56.1" rx="3.7" ry="3.8"/><ellipse class="st0" cx="719.8" cy="51" rx="3.7" ry="3.8"/><ellipse class="st0" cx="729.2" cy="45.2" rx="3.7" ry="3.8"/><ellipse class="st0" cx="737.9" cy="40.1" rx="3.7" ry="3.8"/><ellipse class="st0" cx="717.3" cy="63.1" rx="3.7" ry="3.8"/><ellipse class="st0" cx="725.4" cy="58" rx="3.7" ry="3.8"/><ellipse class="st0" cx="736.7" cy="63.8" rx="3.7" ry="3.8"/><ellipse class="st0" cx="734.8" cy="52.2" rx="3.7" ry="3.8"/><ellipse class="st0" cx="746" cy="58" rx="3.7" ry="3.8"/><ellipse class="st0" cx="754.8" cy="63.8" rx="3.7" ry="3.8"/><ellipse class="st0" cx="743.5" cy="47.1" rx="3.7" ry="3.8"/><ellipse class="st0" cx="754.8" cy="52.9" rx="3.7" ry="3.8"/><ellipse class="st0" cx="763.5" cy="58.6" rx="3.7" ry="3.8"/><ellipse class="st0" cx="616.8" cy="20.9" rx="3.7" ry="3.8"/><ellipse class="st0" cx="624.9" cy="15.7" rx="3.7" ry="3.8"/><ellipse class="st0" cx="634.3" cy="10" rx="3.7" ry="3.8"/><ellipse class="st0" cx="643" cy="4.9" rx="3.7" ry="3.8"/><ellipse class="st0" cx="601.2" cy="20.2" rx="3.7" ry="3.8"/><ellipse class="st0" cx="609.3" cy="15.1" rx="3.7" ry="3.8"/><ellipse class="st0" cx="618.7" cy="9.3" rx="3.7" ry="3.8"/><ellipse class="st0" cx="627.4" cy="4.2" rx="3.7" ry="3.8"/><ellipse class="st0" cx="636.2" cy="63.1" rx="3.7" ry="3.8"/><ellipse class="st0" cx="644.3" cy="58" rx="3.7" ry="3.8"/><ellipse class="st0" cx="653.6" cy="52.2" rx="3.7" ry="3.8"/><ellipse class="st0" cx="662.4" cy="47.1" rx="3.7" ry="3.8"/><ellipse class="st0" cx="626.2" cy="59.3" rx="3.7" ry="3.8"/><ellipse class="st0" cx="634.3" cy="54.2" rx="3.7" ry="3.8"/><ellipse class="st0" cx="643.7" cy="48.4" rx="3.7" ry="3.8"/><ellipse class="st0" cx="652.4" cy="43.3" rx="3.7" ry="3.8"/><ellipse class="st0" cx="629.9" cy="45.8" rx="3.7" ry="3.8"/><ellipse class="st0" cx="638" cy="40.7" rx="3.7" ry="3.8"/><ellipse class="st0" cx="647.4" cy="35" rx="3.7" ry="3.8"/><ellipse class="st0" cx="656.1" cy="29.8" rx="3.7" ry="3.8"/><ellipse class="st0" cx="629.9" cy="23.4" rx="3.7" ry="3.8"/><ellipse class="st0" cx="638" cy="18.3" rx="3.7" ry="3.8"/><ellipse class="st0" cx="647.4" cy="12.5" rx="3.7" ry="3.8"/><ellipse class="st0" cx="656.1" cy="7.4" rx="3.7" ry="3.8"/><ellipse class="st0" cx="628.1" cy="35.6" rx="3.7" ry="3.8"/><ellipse class="st0" cx="636.2" cy="30.5" rx="3.7" ry="3.8"/><ellipse class="st0" cx="645.5" cy="24.7" rx="3.7" ry="3.8"/><ellipse class="st0" cx="654.3" cy="19.6" rx="3.7" ry="3.8"/><ellipse class="st0" cx="588.7" cy="17" rx="3.7" ry="3.8"/><ellipse class="st0" cx="596.9" cy="11.9" rx="3.7" ry="3.8"/><ellipse class="st0" cx="606.2" cy="6.1" rx="3.7" ry="3.8"/><path class="st0" d="M605.6 20.9c2.1 0 3.7-1.7 3.7-3.8s-1.7-3.8-3.7-3.8-3.7 1.7-3.7 3.8 1.6 3.8 3.7 3.8z"/><ellipse class="st0" cx="3.7" cy="60.5" rx="3.7" ry="3.8"/><ellipse class="st0" cx="11.9" cy="55.4" rx="3.7" ry="3.8"/><ellipse class="st0" cx="21.2" cy="49.6" rx="3.7" ry="3.8"/><ellipse class="st0" cx="30" cy="44.5" rx="3.7" ry="3.8"/><ellipse class="st0" cx="51.2" cy="62.4" rx="3.7" ry="3.8"/><ellipse class="st0" cx="59.3" cy="57.3" rx="3.7" ry="3.8"/><ellipse class="st0" cx="68.7" cy="51.5" rx="3.7" ry="3.8"/><ellipse class="st0" cx="77.4" cy="46.4" rx="3.7" ry="3.8"/><ellipse class="st0" cx="70.5" cy="59.8" rx="3.7" ry="3.8"/><ellipse class="st0" cx="78.6" cy="54.7" rx="3.7" ry="3.8"/><ellipse class="st0" cx="88" cy="49" rx="3.7" ry="3.8"/><ellipse class="st0" cx="96.7" cy="43.8" rx="3.7" ry="3.8"/><ellipse class="st0" cx="33.7" cy="61.8" rx="3.7" ry="3.8"/><ellipse class="st0" cx="41.8" cy="56.6" rx="3.7" ry="3.8"/><ellipse class="st0" cx="51.2" cy="50.9" rx="3.7" ry="3.8"/><ellipse class="st0" cx="59.9" cy="45.8" rx="3.7" ry="3.8"/><ellipse class="st0" cx="18.1" cy="61.1" rx="3.7" ry="3.8"/><ellipse class="st0" cx="26.2" cy="56" rx="3.7" ry="3.8"/><ellipse class="st0" cx="35.6" cy="50.2" rx="3.7" ry="3.8"/><ellipse class="st0" cx="44.3" cy="45.1" rx="3.7" ry="3.8"/></svg>