<svg version="1.1" id="Layer_1" xmlns="http://www.w3.org/2000/svg" x="0" y="0" viewBox="0 0 319 50" style="enable-background:new 0 0 319 50" xml:space="preserve"><style>.st0{fill:#f8d24e}</style><circle class="st0" cx="237.9" cy="45.8" r="2.7"/><circle class="st0" cx="243.7" cy="42.1" r="2.7"/><circle class="st0" cx="250.4" cy="38" r="2.7"/><circle class="st0" cx="256.6" cy="34.3" r="2.7"/><circle class="st0" cx="253.1" cy="44" r="2.7"/><circle class="st0" cx="258.9" cy="40.3" r="2.7"/><circle class="st0" cx="265.6" cy="36.2" r="2.7"/><circle class="st0" cx="271.8" cy="32.5" r="2.7"/><circle class="st0" cx="266" cy="42.6" r="2.7"/><circle class="st0" cx="271.8" cy="38.9" r="2.7"/><circle class="st0" cx="278.5" cy="34.8" r="2.7"/><circle class="st0" cx="284.7" cy="31.1" r="2.7"/><circle class="st0" cx="278.5" cy="40.8" r="2.7"/><circle class="st0" cx="284.3" cy="37.1" r="2.7"/><circle class="st0" cx="291" cy="33" r="2.7"/><circle class="st0" cx="297.2" cy="29.3" r="2.7"/><circle class="st0" cx="282.5" cy="45.8" r="2.7"/><circle class="st0" cx="288.3" cy="42.1" r="2.7"/><circle class="st0" cx="296.3" cy="46.3" r="2.7"/><circle class="st0" cx="295" cy="38" r="2.7"/><circle class="st0" cx="303" cy="42.1" r="2.7"/><circle class="st0" cx="309.2" cy="46.3" r="2.7"/><circle class="st0" cx="301.2" cy="34.3" r="2.7"/><circle class="st0" cx="309.2" cy="38.5" r="2.7"/><circle class="st0" cx="315.5" cy="42.6" r="2.7"/><circle class="st0" cx="210.7" cy="15.6" r="2.7"/><circle class="st0" cx="216.5" cy="11.9" r="2.7"/><circle class="st0" cx="223.2" cy="7.8" r="2.7"/><circle class="st0" cx="229.5" cy="4.1" r="2.7"/><circle class="st0" cx="199.6" cy="15.1" r="2.7"/><circle class="st0" cx="205.4" cy="11.4" r="2.7"/><circle class="st0" cx="212.1" cy="7.3" r="2.7"/><circle class="st0" cx="218.3" cy="3.6" r="2.7"/><circle class="st0" cx="224.6" cy="45.8" r="2.7"/><circle class="st0" cx="230.3" cy="42.1" r="2.7"/><circle class="st0" cx="237" cy="38" r="2.7"/><circle class="st0" cx="243.3" cy="34.3" r="2.7"/><circle class="st0" cx="217.4" cy="43" r="2.7"/><circle class="st0" cx="223.2" cy="39.4" r="2.7"/><circle class="st0" cx="229.9" cy="35.3" r="2.7"/><circle class="st0" cx="236.1" cy="31.6" r="2.7"/><circle class="st0" cx="220.1" cy="33.4" r="2.7"/><circle class="st0" cx="225.9" cy="29.8" r="2.7"/><circle class="st0" cx="232.6" cy="25.6" r="2.7"/><circle class="st0" cx="238.8" cy="22" r="2.7"/><circle class="st0" cx="220.1" cy="17.4" r="2.7"/><circle class="st0" cx="225.9" cy="13.7" r="2.7"/><circle class="st0" cx="232.6" cy="9.6" r="2.7"/><circle class="st0" cx="238.8" cy="5.9" r="2.7"/><circle class="st0" cx="218.8" cy="26.1" r="2.7"/><circle class="st0" cx="224.6" cy="22.4" r="2.7"/><circle class="st0" cx="231.2" cy="18.3" r="2.7"/><circle class="st0" cx="237.5" cy="14.6" r="2.7"/><circle class="st0" cx="190.7" cy="12.8" r="2.7"/><circle class="st0" cx="196.5" cy="9.1" r="2.7"/><circle class="st0" cx="203.2" cy="5" r="2.7"/><path class="st0" d="M202.7 15.6c1.5 0 2.7-1.2 2.7-2.8 0-1.5-1.2-2.7-2.7-2.7-1.5 0-2.7 1.2-2.7 2.7 0 1.5 1.2 2.8 2.7 2.8z"/><ellipse class="st0" cx="77" cy="33.6" rx="2.7" ry="2.8"/><ellipse class="st0" cx="82.3" cy="29" rx="2.7" ry="2.8"/><ellipse class="st0" cx="88.4" cy="23.8" rx="2.7" ry="2.8"/><ellipse class="st0" cx="94.1" cy="19.2" rx="2.7" ry="2.8"/><ellipse class="st0" cx="7.1" cy="40.2" rx="2.7" ry="2.8"/><ellipse class="st0" cx="13.9" cy="36" rx="2.7" ry="2.8"/><ellipse class="st0" cx="20.2" cy="32.3" rx="2.7" ry="2.8"/><ellipse class="st0" cx="4.4" cy="46.7" rx="2.7" ry="2.8"/><ellipse class="st0" cx="12.1" cy="44.8" rx="2.7" ry="2.8"/><ellipse class="st0" cx="18.9" cy="39.7" rx="2.7" ry="2.8"/><ellipse class="st0" cx="27.9" cy="34.6" rx="2.7" ry="2.8"/><ellipse class="st0" cx="18.9" cy="46.7" rx="2.7" ry="2.8"/><ellipse class="st0" cx="25.2" cy="41.6" rx="2.7" ry="2.8"/><ellipse class="st0" cx="31.5" cy="38.8" rx="2.7" ry="2.8"/><ellipse class="st0" cx="37.9" cy="35.1" rx="2.7" ry="2.8"/><ellipse class="st0" cx="30.6" cy="46.7" rx="2.7" ry="2.8"/><ellipse class="st0" cx="36.5" cy="43" rx="2.7" ry="2.8"/><ellipse class="st0" cx="43.3" cy="38.8" rx="2.7" ry="2.8"/><ellipse class="st0" cx="49.6" cy="35.1" rx="2.7" ry="2.8"/><ellipse class="st0" cx="40.6" cy="46.2" rx="2.7" ry="2.8"/><ellipse class="st0" cx="46.4" cy="42.5" rx="2.7" ry="2.8"/><ellipse class="st0" cx="53.2" cy="38.3" rx="2.7" ry="2.8"/><ellipse class="st0" cx="59.6" cy="34.6" rx="2.7" ry="2.8"/><ellipse class="st0" cx="51.9" cy="45.8" rx="2.7" ry="2.8"/><ellipse class="st0" cx="57.8" cy="42" rx="2.7" ry="2.8"/><ellipse class="st0" cx="64.5" cy="37.9" rx="2.7" ry="2.8"/><ellipse class="st0" cx="70.9" cy="34.1" rx="2.7" ry="2.8"/><ellipse class="st0" cx="62.3" cy="33.7" rx="2.7" ry="2.8"/><ellipse class="st0" cx="68.2" cy="29.9" rx="2.7" ry="2.8"/><ellipse class="st0" cx="74.9" cy="25.8" rx="2.7" ry="2.8"/><ellipse class="st0" cx="81.3" cy="22" rx="2.7" ry="2.8"/></svg>