<svg version="1.1" id="Layer_1" xmlns="http://www.w3.org/2000/svg" x="0" y="0" viewBox="0 0 1193 384" style="enable-background:new 0 0 1193 384" xml:space="preserve"><style>.st0{fill:#f9d34e}</style><path class="st0" d="M447.2 26.5c3.2 0 5.9 2.8 5.9 6.2-.2 8.3-11.5 8.3-11.7 0-.1-3.4 2.6-6.2 5.8-6.2zm12.7-8.3c3.2 0 5.9 2.8 5.9 6.2-.2 8.3-11.5 8.3-11.7 0-.1-3.4 2.6-6.2 5.8-6.2zm14.6-9.4c3.2 0 5.9 2.8 5.9 6.2-.2 8.3-11.5 8.3-11.7 0 0-3.4 2.6-6.2 5.8-6.2zM488.2.5c3.2 0 5.9 2.8 5.9 6.2-.2 8.3-11.5 8.3-11.7 0-.1-3.4 2.6-6.2 5.8-6.2zm-59.6 47.9c3.2 0 5.9 2.8 5.9 6.2-.2 8.3-11.5 8.3-11.7 0 0-3.4 2.6-6.2 5.8-6.2zm12.7-8.4c3.2 0 5.9 2.8 5.9 6.2-.2 8.3-11.5 8.3-11.7 0 0-3.4 2.6-6.2 5.8-6.2z"/><path class="st0" d="M456 30.7c3.2 0 5.9 2.8 5.9 6.2-.2 8.3-11.5 8.3-11.7 0-.1-3.4 2.5-6.2 5.8-6.2zm13.6-8.4c3.2 0 5.9 2.8 5.9 6.2-.2 8.3-11.5 8.3-11.7 0 0-3.4 2.6-6.2 5.8-6.2zm-69.3 27.1c3.2 0 5.9 2.8 5.9 6.2-.2 8.3-11.5 8.3-11.7 0 0-3.4 2.6-6.2 5.8-6.2zm12.7-8.3c3.2 0 5.9 2.8 5.9 6.2-.2 8.3-11.5 8.3-11.7 0 0-3.4 2.6-6.2 5.8-6.2zm14.7-9.4c3.2 0 5.9 2.8 5.9 6.2-.2 8.3-11.5 8.3-11.7 0-.1-3.4 2.5-6.2 5.8-6.2zm13.6-8.3c3.2 0 5.9 2.8 5.9 6.2-.2 8.3-11.5 8.3-11.7 0 0-3.4 2.6-6.2 5.8-6.2zm-56.6 49.9c3.2 0 5.9 2.8 5.9 6.2-.2 8.3-11.5 8.3-11.7 0-.1-3.4 2.6-6.2 5.8-6.2zm12.7-8.3c3.2 0 5.9 2.8 5.9 6.2-.2 8.3-11.5 8.3-11.7 0-.1-3.4 2.6-6.2 5.8-6.2z"/><path class="st0" d="M412 55.6c3.2 0 5.9 2.8 5.9 6.2-.2 8.3-11.5 8.3-11.7 0 0-3.4 2.6-6.2 5.8-6.2zm13.7-8.3c3.2 0 5.9 2.8 5.9 6.2-.2 8.3-11.5 8.3-11.7 0 0-3.4 2.6-6.2 5.8-6.2zM373 95.2c3.2 0 5.9 2.8 5.9 6.2-.2 8.3-11.5 8.3-11.7 0-.1-3.4 2.6-6.2 5.8-6.2zm12.7-8.3c3.2 0 5.9 2.8 5.9 6.2-.2 8.3-11.5 8.3-11.7 0-.1-3.4 2.5-6.2 5.8-6.2zm14.6-9.4c3.2 0 5.9 2.8 5.9 6.2-.2 8.3-11.5 8.3-11.7 0 0-3.4 2.6-6.2 5.8-6.2z"/><path class="st0" d="M414 69.2c3.2 0 5.9 2.8 5.9 6.2-.2 8.3-11.5 8.3-11.7 0-.1-3.4 2.6-6.2 5.8-6.2zm-49.8 47.9c3.2 0 5.9 2.8 5.8 6.3-.3 8.3-11.5 8.2-11.7 0 .1-3.6 2.7-6.3 5.9-6.3zm12.7-8.3c3.2 0 5.9 2.8 5.8 6.3-.3 8.3-11.5 8.2-11.7 0 .1-3.6 2.7-6.4 5.9-6.3zm14.7-9.4c3.2 0 5.9 2.8 5.8 6.3-.3 8.3-11.5 8.2-11.7 0 0-3.5 2.6-6.3 5.9-6.3zm13.7-8.3c3.2 0 5.9 2.8 5.8 6.3-.3 8.3-11.5 8.2-11.7 0 0-3.5 2.6-6.3 5.9-6.3zm-165.1 63.5c3.2 0 5.9 2.8 5.8 6.3-.3 8.3-11.5 8.2-11.7 0 .1-3.6 2.7-6.3 5.9-6.3zm13.7-8.3c3.2 0 5.9 2.8 5.8 6.3-.3 8.3-11.5 8.2-11.7 0 .1-3.6 2.7-6.3 5.9-6.3zm71.3-19.9c3.2 0 5.9 2.8 5.8 6.3-.3 8.3-11.5 8.2-11.7 0 0-3.5 2.6-6.3 5.9-6.3zm12.7-8.3c3.2 0 5.9 2.8 5.8 6.3-.3 8.3-11.5 8.2-11.7 0 0-3.5 2.6-6.3 5.9-6.3zm14.6-9.3c3.2 0 5.9 2.8 5.8 6.3-.3 8.3-11.5 8.2-11.7 0 .1-3.5 2.7-6.3 5.9-6.3zm13.7-8.3c3.2 0 5.9 2.8 5.8 6.3-.3 8.3-11.5 8.2-11.7 0 0-3.5 2.7-6.3 5.9-6.3zm-125 35.3c3.2 0 5.9 2.8 5.9 6.2-.2 8.3-11.5 8.3-11.7 0-.1-3.4 2.5-6.2 5.8-6.2zm13.6-8.3c3.2 0 5.9 2.8 5.9 6.2-.2 8.3-11.5 8.3-11.7 0 0-3.5 2.6-6.2 5.8-6.2zm18.6-9.4c3.2 0 5.9 2.8 5.9 6.2-.2 8.3-11.5 8.3-11.7 0-.1-3.4 2.6-6.2 5.8-6.2zm12.7-8.3c3.2 0 5.9 2.8 5.9 6.2-.2 8.3-11.5 8.3-11.7 0-.1-3.4 2.6-6.2 5.8-6.2zm14.6-9.4c3.2 0 5.9 2.8 5.9 6.2-.2 8.3-11.5 8.3-11.7 0 0-3.4 2.6-6.2 5.8-6.2zm13.7-8.3c3.2 0 5.9 2.8 5.9 6.2-.2 8.3-11.5 8.3-11.7 0-.1-3.4 2.6-6.2 5.8-6.2zm-15.6 38.5c3.2 0 5.9 2.8 5.9 6.2-.2 8.3-11.5 8.3-11.7 0-.1-3.4 2.5-6.2 5.8-6.2zm12.7-8.3c3.2 0 5.9 2.8 5.9 6.2-.2 8.3-11.5 8.3-11.7 0-.1-3.5 2.5-6.2 5.8-6.2z"/><path class="st0" d="M326.1 112.9c3.2 0 5.9 2.8 5.9 6.2-.2 8.3-11.5 8.3-11.7 0 0-3.4 2.6-6.2 5.8-6.2zm13.7-8.3c3.2 0 5.9 2.8 5.9 6.2-.2 8.3-11.5 8.3-11.7 0-.1-3.4 2.6-6.2 5.8-6.2zm-39.1 9.3c3.2 0 5.9 2.8 5.9 6.2-.2 8.3-11.5 8.3-11.7 0 0-3.4 2.6-6.2 5.8-6.2zm12.7-8.3c3.2 0 5.9 2.8 5.9 6.2-.2 8.3-11.5 8.3-11.7 0 0-3.4 2.6-6.2 5.8-6.2zm14.7-9.4c3.2 0 5.9 2.8 5.9 6.2-.2 8.3-11.5 8.3-11.7 0-.1-3.4 2.5-6.2 5.8-6.2zm13.6-8.3c3.2 0 5.9 2.8 5.9 6.2-.2 8.3-11.5 8.3-11.7 0 0-3.4 2.6-6.2 5.8-6.2zM247 120.2c3.2 0 5.9 2.8 5.9 6.2-.2 8.3-11.5 8.3-11.7 0 0-3.4 2.6-6.2 5.8-6.2zm12.7-8.4c3.2 0 5.9 2.8 5.9 6.2-.2 8.3-11.5 8.3-11.7 0 0-3.4 2.6-6.2 5.8-6.2zm14.7-9.3c3.2 0 5.9 2.8 5.9 6.2-.2 8.3-11.5 8.3-11.7 0-.1-3.4 2.5-6.2 5.8-6.2zm13.6-8.3c3.2 0 5.9 2.8 5.9 6.2-.2 8.3-11.5 8.3-11.7 0 0-3.5 2.6-6.2 5.8-6.2zM5.9 352.2c3.2 0 5.9 2.8 5.9 6.2-.2 8.3-11.5 8.3-11.7 0-.1-3.4 2.5-6.2 5.8-6.2zm12.7-8.3c3.2 0 5.9 2.8 5.9 6.2-.2 8.3-11.5 8.3-11.7 0-.1-3.4 2.5-6.2 5.8-6.2zm14.6-9.4c3.2 0 5.9 2.8 5.9 6.2-.2 8.3-11.5 8.3-11.7 0-.1-3.4 2.6-6.2 5.8-6.2zm13.7-8.3c3.2 0 5.9 2.8 5.9 6.2-.2 8.3-11.5 8.3-11.7 0-.1-3.4 2.5-6.2 5.8-6.2zm33.2 29.2c3.2 0 5.9 2.8 5.9 6.2-.2 8.3-11.5 8.3-11.7 0-.1-3.4 2.5-6.2 5.8-6.2zm12.7-8.4c3.2 0 5.9 2.8 5.9 6.2-.2 8.3-11.5 8.3-11.7 0-.1-3.4 2.5-6.2 5.8-6.2zm14.6-9.3c3.2 0 5.9 2.8 5.9 6.2-.2 8.3-11.5 8.3-11.7 0-.1-3.4 2.6-6.2 5.8-6.2zm13.7-8.4c3.2 0 5.9 2.8 5.9 6.2-.2 8.3-11.5 8.3-11.7 0-.1-3.4 2.5-6.2 5.8-6.2z"/><path class="st0" d="M110.3 351.2c3.2 0 5.9 2.8 5.9 6.2-.2 8.3-11.5 8.3-11.7 0 0-3.4 2.6-6.2 5.8-6.2zm12.7-8.3c3.2 0 5.9 2.8 5.9 6.2-.2 8.3-11.5 8.3-11.7 0 0-3.4 2.6-6.2 5.8-6.2zm14.7-9.4c3.2 0 5.9 2.8 5.9 6.2-.2 8.3-11.5 8.3-11.7 0-.1-3.4 2.5-6.2 5.8-6.2zm13.6-8.3c3.2 0 5.9 2.8 5.9 6.2-.2 8.3-11.5 8.3-11.7 0 0-3.4 2.6-6.2 5.8-6.2zm14.7-12.5c3.2 0 5.9 2.8 5.9 6.2-.2 8.3-11.5 8.3-11.7 0-.1-3.4 2.6-6.2 5.8-6.2z"/><path class="st0" d="M134.7 320c3.2 0 5.9 2.8 5.9 6.2-.2 8.3-11.5 8.3-11.7 0 0-3.4 2.6-6.2 5.8-6.2zm889.6 51c3.2 0 5.9 2.8 5.9 6.2-.2 8.3-11.5 8.3-11.7 0-.1-3.4 2.5-6.2 5.8-6.2zm12.6-8.4c3.2 0 5.9 2.8 5.9 6.2-.2 8.3-11.5 8.3-11.7 0 0-3.4 2.6-6.2 5.8-6.2zm14.7-9.3c3.2 0 5.9 2.8 5.9 6.2-.2 8.3-11.5 8.3-11.7 0-.1-3.4 2.6-6.2 5.8-6.2zm13.7-8.4c3.2 0 5.9 2.8 5.9 6.2-.2 8.3-11.5 8.3-11.7 0-.1-3.4 2.5-6.2 5.8-6.2zm-7.9 21.9c3.2 0 5.9 2.8 5.9 6.2-.2 8.3-11.5 8.3-11.7 0 0-3.4 2.6-6.2 5.8-6.2zm12.7-8.3c3.2 0 5.9 2.8 5.9 6.2-.2 8.3-11.5 8.3-11.7 0 0-3.4 2.6-6.2 5.8-6.2zm14.7-9.4c3.2 0 5.9 2.8 5.9 6.2-.2 8.3-11.5 8.3-11.7 0-.1-3.4 2.5-6.2 5.8-6.2zm13.6-8.3c3.2 0 5.9 2.8 5.9 6.2-.2 8.3-11.5 8.3-11.7 0 0-3.4 2.6-6.2 5.8-6.2zm-12.6 22.9c3.2 0 5.9 2.8 5.9 6.2-.2 8.3-11.5 8.3-11.7 0-.1-3.4 2.5-6.2 5.8-6.2zm12.6-8.3c3.2 0 5.9 2.8 5.9 6.2-.2 8.3-11.5 8.3-11.7 0 0-3.4 2.6-6.2 5.8-6.2zm14.7-9.4c3.2 0 5.9 2.8 5.9 6.2-.2 8.3-11.5 8.3-11.7 0-.1-3.4 2.6-6.2 5.8-6.2zm13.7-8.3c3.2 0 5.9 2.8 5.9 6.2-.2 8.3-11.5 8.3-11.7 0-.1-3.4 2.5-6.2 5.8-6.2z"/><path class="st0" d="M1113.1 359.5c3.2 0 5.9 2.8 5.9 6.2-.2 8.3-11.5 8.3-11.7 0-.1-3.4 2.6-6.2 5.8-6.2zm12.7-8.3c3.2 0 5.9 2.8 5.9 6.2-.2 8.3-11.5 8.3-11.7 0-.1-3.4 2.6-6.2 5.8-6.2zm14.6-9.4c3.2 0 5.9 2.8 5.9 6.2-.2 8.3-11.5 8.3-11.7 0 0-3.4 2.6-6.2 5.8-6.2zm13.7-8.3c3.2 0 5.9 2.8 5.9 6.2-.2 8.3-11.5 8.3-11.7 0 0-3.4 2.6-6.2 5.8-6.2zm-32.2 37.5c3.2 0 5.9 2.8 5.9 6.2-.2 8.3-11.5 8.3-11.7 0-.1-3.4 2.6-6.2 5.8-6.2zm12.7-8.4c3.2 0 5.9 2.8 5.9 6.2-.2 8.3-11.5 8.3-11.7 0-.1-3.4 2.5-6.2 5.8-6.2zm17.6 9.4c3.2 0 5.9 2.8 5.9 6.2-.2 8.3-11.5 8.3-11.7 0-.1-3.4 2.5-6.2 5.8-6.2zm-3-18.7c3.2 0 5.9 2.8 5.9 6.2-.2 8.3-11.5 8.3-11.7 0 0-3.4 2.6-6.2 5.8-6.2zm17.6 9.3c3.2 0 5.9 2.8 5.9 6.2-.2 8.3-11.5 8.3-11.7 0-.1-3.4 2.6-6.2 5.8-6.2zm13.7 9.4c3.2 0 5.9 2.8 5.9 6.2-.2 8.3-11.5 8.3-11.7 0-.1-3.4 2.5-6.2 5.8-6.2zm-17.6-27.1c3.2 0 5.9 2.8 5.9 6.2-.2 8.3-11.5 8.3-11.7 0-.1-3.4 2.6-6.2 5.8-6.2zm-198.2-42.6c3.2 0 5.9 2.8 5.9 6.2-.2 8.3-11.5 8.3-11.7 0-.1-3.4 2.6-6.2 5.8-6.2zm12.7-8.3c3.2 0 5.9 2.8 5.9 6.2-.2 8.3-11.5 8.3-11.7 0-.1-3.4 2.5-6.2 5.8-6.2zm14.6-9.4c3.2 0 5.9 2.8 5.9 6.2-.2 8.3-11.5 8.3-11.7 0 0-3.4 2.6-6.2 5.8-6.2zm13.7-8.3c3.2 0 5.9 2.8 5.9 6.2-.2 8.3-11.5 8.3-11.7 0-.1-3.4 2.6-6.2 5.8-6.2zm-65.4 24.9c3.2 0 5.9 2.8 5.9 6.2-.2 8.3-11.5 8.3-11.7 0-.1-3.4 2.5-6.2 5.8-6.2zm12.7-8.3c3.2 0 5.9 2.8 5.9 6.2-.2 8.3-11.5 8.3-11.7 0-.1-3.4 2.5-6.2 5.8-6.2zm14.6-9.3c3.2 0 5.9 2.8 5.9 6.2-.2 8.3-11.5 8.3-11.7 0 0-3.5 2.6-6.2 5.8-6.2zm13.7-8.4c3.2 0 5.9 2.8 5.9 6.2-.2 8.3-11.5 8.3-11.7 0-.1-3.4 2.5-6.2 5.8-6.2zM995 371c3.2 0 5.9 2.8 5.9 6.2-.2 8.3-11.5 8.3-11.7 0-.1-3.4 2.5-6.2 5.8-6.2zm12.7-8.4c3.2 0 5.9 2.8 5.9 6.2-.2 8.3-11.5 8.3-11.7 0-.1-3.4 2.5-6.2 5.8-6.2zm14.6-9.3c3.2 0 5.9 2.8 5.9 6.2-.2 8.3-11.5 8.3-11.7 0-.1-3.4 2.6-6.2 5.8-6.2zm13.7-8.4c3.2 0 5.9 2.8 5.9 6.2-.2 8.3-11.5 8.3-11.7 0-.1-3.4 2.5-6.2 5.8-6.2zm-56.7 19.8c3.2 0 5.9 2.8 5.9 6.2-.2 8.3-11.5 8.3-11.7 0 0-3.4 2.6-6.2 5.8-6.2zm12.7-8.3c3.2 0 5.9 2.8 5.9 6.2-.2 8.3-11.5 8.3-11.7 0 0-3.4 2.6-6.2 5.8-6.2zm14.7-9.4c3.2 0 5.9 2.8 5.9 6.2-.2 8.3-11.5 8.3-11.7 0-.1-3.4 2.5-6.2 5.8-6.2zm13.6-8.3c3.2 0 5.9 2.8 5.9 6.2-.2 8.3-11.5 8.3-11.7 0 0-3.4 2.6-6.2 5.8-6.2zm-35.1 4.2c3.2 0 5.9 2.8 5.9 6.2-.2 8.3-11.5 8.3-11.7 0-.1-3.4 2.6-6.2 5.8-6.2zm12.7-8.4c3.2 0 5.9 2.8 5.9 6.2-.2 8.3-11.5 8.3-11.7 0-.1-3.4 2.5-6.2 5.8-6.2zm14.6-9.3c3.2 0 5.9 2.8 5.9 6.2-.2 8.3-11.5 8.3-11.7 0 0-3.4 2.6-6.2 5.8-6.2zm13.7-8.3c3.2 0 5.9 2.8 5.9 6.2-.2 8.3-11.5 8.3-11.7 0-.1-3.5 2.6-6.2 5.8-6.2zm-346.9-18.8c7.8-.9 9.3 10.9 1.8 12.3-7.8 1-9.3-10.8-1.8-12.3zm11.4-10.3c7.8-.9 9.3 10.9 1.8 12.3-7.9 1-9.4-10.8-1.8-12.3zm13.1-11.6c7.8-.9 9.3 10.9 1.8 12.3-7.8 1-9.3-10.8-1.8-12.3zm12.3-10.4c7.8-.9 9.3 10.9 1.8 12.3-7.8 1-9.3-10.9-1.8-12.3zm269.1 40.6c3.2 0 5.9 2.8 5.9 6.2-.2 8.3-11.5 8.3-11.7 0-.1-3.4 2.6-6.2 5.8-6.2zm12.7-8.3c3.2 0 5.9 2.8 5.9 6.2-.2 8.3-11.5 8.3-11.7 0-.1-3.4 2.5-6.2 5.8-6.2zm14.6-9.3c3.2 0 5.9 2.8 5.9 6.2-.2 8.3-11.5 8.3-11.7 0 0-3.5 2.6-6.2 5.8-6.2zm13.7-8.4c3.2 0 5.9 2.8 5.9 6.2-.2 8.3-11.5 8.3-11.7 0-.1-3.4 2.6-6.2 5.8-6.2zm-43.9 45.8c3.2 0 5.9 2.8 5.9 6.2-.2 8.3-11.5 8.3-11.7 0-.1-3.4 2.5-6.2 5.8-6.2zm12.7-8.3c3.2 0 5.9 2.8 5.9 6.2-.2 8.3-11.5 8.3-11.7 0-.1-3.4 2.5-6.2 5.8-6.2zm14.6-9.4c3.2 0 5.9 2.8 5.9 6.2-.2 8.3-11.5 8.3-11.7 0-.1-3.4 2.6-6.2 5.8-6.2zm13.7-8.3c3.2 0 5.9 2.8 5.9 6.2-.2 8.3-11.5 8.3-11.7 0-.1-3.4 2.5-6.2 5.8-6.2zM920.7 296c3.2 0 5.9 2.8 5.9 6.2-.2 8.3-11.5 8.3-11.7 0 0-3.4 2.6-6.2 5.8-6.2zm12.7-8.3c3.2 0 5.9 2.8 5.9 6.2-.2 8.3-11.5 8.3-11.7 0 0-3.4 2.6-6.2 5.8-6.2zm14.7-9.4c3.2 0 5.9 2.8 5.9 6.2-.2 8.3-11.5 8.3-11.7 0-.1-3.4 2.6-6.2 5.8-6.2z"/><path class="st0" d="M947.1 308.5c3.2 0 5.9-2.8 5.9-6.2-.2-8.3-11.5-8.3-11.7 0 0 3.4 2.6 6.2 5.8 6.2zM52.7 354.3c3.2 0 5.9 2.8 5.9 6.2-.2 8.3-11.5 8.3-11.7 0 0-3.4 2.6-6.2 5.8-6.2zm12.7-8.3c3.2 0 5.9 2.8 5.9 6.2-.2 8.3-11.5 8.3-11.7 0 0-3.4 2.6-6.2 5.8-6.2zm14.7-9.4c3.2 0 5.9 2.8 5.9 6.2-.2 8.3-11.5 8.3-11.7 0-.1-3.4 2.5-6.2 5.8-6.2zm13.6-8.3c3.2 0 5.9 2.8 5.9 6.2-.2 8.3-11.5 8.3-11.7 0 0-3.4 2.6-6.2 5.8-6.2zm-65.4 25c3.2 0 5.9 2.8 5.9 6.2-.2 8.3-11.5 8.3-11.7 0 0-3.4 2.6-6.2 5.8-6.2zm12.7-8.4c3.2 0 5.9 2.8 5.9 6.2-.2 8.3-11.5 8.3-11.7 0 0-3.4 2.6-6.2 5.8-6.2zm14.7-9.3c3.2 0 5.9 2.8 5.9 6.2-.2 8.3-11.5 8.3-11.7 0-.1-3.4 2.5-6.2 5.8-6.2zm13.6-8.3c3.2 0 5.9 2.8 5.9 6.2-.2 8.3-11.5 8.3-11.7 0 0-3.4 2.6-6.2 5.8-6.2zM447.2 50.4c3.2 0 5.9 2.8 5.9 6.2-.2 8.3-11.5 8.3-11.7 0-.1-3.4 2.6-6.2 5.8-6.2zm12.7-8.3c3.2 0 5.9 2.8 5.9 6.2-.2 8.3-11.5 8.3-11.7 0-.1-3.4 2.6-6.2 5.8-6.2zm14.6-9.3c3.2 0 5.9 2.8 5.9 6.2-.2 8.3-11.5 8.3-11.7 0 0-3.4 2.6-6.2 5.8-6.2zm13.7-8.4c3.2 0 5.9 2.8 5.9 6.2-.2 8.3-11.5 8.3-11.7 0-.1-3.4 2.6-6.2 5.8-6.2zm-43 68.7c3.2 0 5.9 2.8 5.9 6.2-.2 8.3-11.5 8.3-11.7 0 0-3.4 2.6-6.2 5.8-6.2zm12.7-8.3c3.2 0 5.9 2.8 5.9 6.2-.2 8.3-11.5 8.3-11.7 0 0-3.4 2.6-6.2 5.8-6.2zm14.7-9.4c3.2 0 5.9 2.8 5.9 6.2-.2 8.3-11.5 8.3-11.7 0-.1-3.4 2.5-6.2 5.8-6.2zm13.6-8.3c3.2 0 5.9 2.8 5.9 6.2-.2 8.3-11.5 8.3-11.7 0 0-3.4 2.6-6.2 5.8-6.2zm-38 4.2c3.2 0 5.9 2.8 5.9 6.2-.2 8.3-11.5 8.3-11.7 0-.1-3.4 2.5-6.2 5.8-6.2zm12.7-8.4c3.2 0 5.9 2.8 5.9 6.2-.2 8.3-11.5 8.3-11.7 0-.1-3.4 2.5-6.2 5.8-6.2zm14.6-9.3c3.2 0 5.9 2.8 5.9 6.2-.2 8.3-11.5 8.3-11.7 0 0-3.4 2.6-6.2 5.8-6.2zm13.7-8.4c3.2 0 5.9 2.8 5.9 6.2-.2 8.3-11.5 8.3-11.7 0-.1-3.4 2.5-6.2 5.8-6.2zm-43 68.7c3.2 0 5.9 2.8 5.9 6.2-.2 8.3-11.5 8.3-11.7 0 0-3.4 2.6-6.2 5.8-6.2zm12.7-8.3c3.2 0 5.9 2.8 5.9 6.2-.2 8.3-11.5 8.3-11.7 0 0-3.4 2.6-6.2 5.8-6.2zm14.7-9.4c3.2 0 5.9 2.8 5.9 6.2-.2 8.3-11.5 8.3-11.7 0-.1-3.4 2.5-6.2 5.8-6.2zm13.6-8.3c3.2 0 5.9 2.8 5.9 6.2-.2 8.3-11.5 8.3-11.7 0 0-3.4 2.6-6.2 5.8-6.2zm-35.1 40.6c3.2 0 5.9 2.8 5.9 6.2-.2 8.3-11.5 8.3-11.7 0-.1-3.4 2.5-6.2 5.8-6.2zm12.7-8.3c3.2 0 5.9 2.8 5.9 6.2-.2 8.3-11.5 8.3-11.7 0-.1-3.4 2.5-6.2 5.8-6.2zm14.6-9.4c3.2 0 5.9 2.8 5.9 6.2-.2 8.3-11.5 8.3-11.7 0 0-3.4 2.6-6.2 5.8-6.2zm13.7-8.3c3.2 0 5.9 2.8 5.9 6.2-.2 8.3-11.5 8.3-11.7 0-.1-3.4 2.5-6.2 5.8-6.2zm-28.3 37.4c3.2 0 5.9 2.8 5.9 6.2-.2 8.3-11.5 8.3-11.7 0-.1-3.4 2.5-6.2 5.8-6.2zm12.7-8.3c3.2 0 5.9 2.8 5.9 6.2-.2 8.3-11.5 8.3-11.7 0-.1-3.4 2.5-6.2 5.8-6.2zm14.6-9.3c3.2 0 5.9 2.8 5.9 6.2-.2 8.3-11.5 8.3-11.7 0-.1-3.5 2.6-6.2 5.8-6.2zm13.7-8.4c3.2 0 5.9 2.8 5.9 6.2-.2 8.3-11.5 8.3-11.7 0-.1-3.4 2.5-6.2 5.8-6.2zm-24.4 35.4c3.2 0 5.9 2.8 5.9 6.2-.2 8.3-11.5 8.3-11.7 0-.1-3.4 2.5-6.2 5.8-6.2zm12.7-8.3c3.2 0 5.9 2.8 5.9 6.2-.2 8.3-11.5 8.3-11.7 0-.1-3.4 2.5-6.2 5.8-6.2zm14.6-9.4c3.2 0 5.9 2.8 5.9 6.2-.2 8.3-11.5 8.3-11.7 0-.1-3.4 2.6-6.2 5.8-6.2zm13.7-8.3c3.2 0 5.9 2.8 5.9 6.2-.2 8.3-11.5 8.3-11.7 0-.1-3.4 2.5-6.2 5.8-6.2z"/><path class="st0" d="M500.9 151.4c3.2 0 5.9 2.8 5.9 6.2-.2 8.3-11.5 8.3-11.7 0-.1-3.4 2.6-6.2 5.8-6.2zm12.7-8.3c3.2 0 5.9 2.8 5.9 6.2-.2 8.3-11.5 8.3-11.7 0-.1-3.4 2.6-6.2 5.8-6.2zm14.6-9.4c3.2 0 5.9 2.8 5.9 6.2-.2 8.3-11.5 8.3-11.7 0 0-3.4 2.6-6.2 5.8-6.2zm13.7-8.3c3.2 0 5.9 2.8 5.9 6.2-.2 8.3-11.5 8.3-11.7 0-.1-3.4 2.6-6.2 5.8-6.2zm-21.5 30.2c3.2 0 5.9 2.8 5.9 6.2-.2 8.3-11.5 8.3-11.7 0 0-3.5 2.6-6.2 5.8-6.2zm12.7-8.4c3.2 0 5.9 2.8 5.9 6.2-.2 8.3-11.5 8.3-11.7 0 0-3.4 2.6-6.2 5.8-6.2zm14.7-9.3c3.2 0 5.9 2.8 5.9 6.2-.2 8.3-11.5 8.3-11.7 0-.1-3.4 2.5-6.2 5.8-6.2zm13.6-8.4c3.2 0 5.9 2.8 5.9 6.2-.2 8.3-11.5 8.3-11.7 0 0-3.4 2.6-6.2 5.8-6.2zm-45.9 45.8c3.2 0 5.9 2.8 5.9 6.2-.2 8.3-11.5 8.3-11.7 0 0-3.4 2.6-6.2 5.8-6.2zm12.7-8.3c3.2 0 5.9 2.8 5.9 6.2-.2 8.3-11.5 8.3-11.7 0 0-3.4 2.6-6.2 5.8-6.2zm14.7-9.4c3.2 0 5.9 2.8 5.9 6.2-.2 8.3-11.5 8.3-11.7 0-.1-3.4 2.5-6.2 5.8-6.2zm13.6-8.3c3.2 0 5.9 2.8 5.9 6.2-.2 8.3-11.5 8.3-11.7 0 0-3.4 2.6-6.2 5.8-6.2zm-42.9 44.8c3.2 0 5.9 2.8 5.9 6.2-.2 8.3-11.5 8.3-11.7 0-.1-3.4 2.6-6.2 5.8-6.2zm12.7-8.4c3.2 0 5.9 2.8 5.9 6.2-.2 8.3-11.5 8.3-11.7 0-.1-3.4 2.5-6.2 5.8-6.2zm14.6-9.3c3.2 0 5.9 2.8 5.9 6.2-.2 8.3-11.5 8.3-11.7 0 0-3.4 2.6-6.2 5.8-6.2zm13.7-8.4c3.2 0 5.9 2.8 5.9 6.2-.2 8.3-11.5 8.3-11.7 0-.1-3.4 2.6-6.2 5.8-6.2zm-47.8 50c3.2 0 5.9 2.8 5.9 6.2-.2 8.3-11.5 8.3-11.7 0-.1-3.4 2.5-6.2 5.8-6.2zm12.6-8.3c3.2 0 5.9 2.8 5.9 6.2-.2 8.3-11.5 8.3-11.7 0 0-3.4 2.6-6.2 5.8-6.2zm14.7-9.4c3.2 0 5.9 2.8 5.9 6.2-.2 8.3-11.5 8.3-11.7 0-.1-3.4 2.6-6.2 5.8-6.2zm13.7-8.3c3.2 0 5.9 2.8 5.9 6.2-.2 8.3-11.5 8.3-11.7 0-.1-3.4 2.5-6.2 5.8-6.2zm-44 46.8c3.2 0 5.9 2.8 5.9 6.2-.2 8.3-11.5 8.3-11.7 0 0-3.4 2.6-6.2 5.8-6.2zm12.7-8.3c3.2 0 5.9 2.8 5.9 6.2-.2 8.3-11.5 8.3-11.7 0 0-3.4 2.6-6.2 5.8-6.2zm14.7-9.4c3.2 0 5.9 2.8 5.9 6.2-.2 8.3-11.5 8.3-11.7 0-.1-3.4 2.5-6.2 5.8-6.2zm13.6-8.3c3.2 0 5.9 2.8 5.9 6.2-.2 8.3-11.5 8.3-11.7 0 0-3.4 2.6-6.2 5.8-6.2zm-44.9 47.9c3.2 0 5.9 2.8 5.9 6.2-.2 8.3-11.5 8.3-11.7 0 0-3.4 2.6-6.2 5.8-6.2zm12.7-8.4c3.2 0 5.9 2.8 5.9 6.2-.2 8.3-11.5 8.3-11.7 0 0-3.4 2.6-6.2 5.8-6.2zm14.7-9.3c3.2 0 5.9 2.8 5.9 6.2-.2 8.3-11.5 8.3-11.7 0-.1-3.4 2.5-6.2 5.8-6.2zm13.6-8.4c3.2 0 5.9 2.8 5.9 6.2-.2 8.3-11.5 8.3-11.7 0 0-3.4 2.6-6.2 5.8-6.2zM498 278.3c3.2 0 5.9 2.8 5.9 6.2-.2 8.3-11.5 8.3-11.7 0-.1-3.4 2.5-6.2 5.8-6.2zm12.7-8.3c3.2 0 5.9 2.8 5.9 6.2-.2 8.3-11.5 8.3-11.7 0-.1-3.4 2.5-6.2 5.8-6.2zm14.6-9.3c3.2 0 5.9 2.8 5.9 6.2-.2 8.3-11.5 8.3-11.7 0-.1-3.4 2.6-6.2 5.8-6.2zm13.7-8.4c3.2 0 5.9 2.8 5.9 6.2-.2 8.3-11.5 8.3-11.7 0-.1-3.4 2.5-6.2 5.8-6.2zm-43 44.8c3.2 0 5.9 2.8 5.9 6.2-.2 8.3-11.5 8.3-11.7 0 0-3.4 2.6-6.2 5.8-6.2zm12.7-8.3c3.2 0 5.9 2.8 5.9 6.2-.2 8.3-11.5 8.3-11.7 0-.1-3.5 2.6-6.2 5.8-6.2zm14.7-9.4c3.2 0 5.9 2.8 5.9 6.2-.2 8.3-11.5 8.3-11.7 0-.1-3.4 2.5-6.2 5.8-6.2zm13.6-8.3c3.2 0 5.9 2.8 5.9 6.2-.2 8.3-11.5 8.3-11.7 0 0-3.4 2.6-6.2 5.8-6.2zm-35.1 41.6c3.2 0 5.9 2.8 5.9 6.2-.2 8.3-11.5 8.3-11.7 0-.1-3.4 2.5-6.2 5.8-6.2zm12.7-8.3c3.2 0 5.9 2.8 5.9 6.2-.2 8.3-11.5 8.3-11.7 0-.1-3.4 2.5-6.2 5.8-6.2zm14.6-9.4c3.2 0 5.9 2.8 5.9 6.2-.2 8.3-11.5 8.3-11.7 0 0-3.4 2.6-6.2 5.8-6.2zm13.7-8.3c3.2 0 5.9 2.8 5.9 6.2-.2 8.3-11.5 8.3-11.7 0-.1-3.4 2.5-6.2 5.8-6.2zM516.5 321c3.2 0 5.9 2.8 5.9 6.2-.2 8.3-11.5 8.3-11.7 0 0-3.4 2.6-6.2 5.8-6.2zm12.7-8.3c3.2 0 5.9 2.8 5.9 6.2-.2 8.3-11.5 8.3-11.7 0 0-3.4 2.6-6.2 5.8-6.2zm14.7-9.4c3.2 0 5.9 2.8 5.9 6.2-.2 8.3-11.5 8.3-11.7 0-.1-3.4 2.5-6.2 5.8-6.2zm13.6-8.3c3.2 0 5.9 2.8 5.9 6.2-.2 8.3-11.5 8.3-11.7 0 0-3.4 2.6-6.2 5.8-6.2zm-24.4 31.2c3.2 0 5.9 2.8 5.9 6.2-.2 8.3-11.5 8.3-11.7 0 0-3.4 2.6-6.2 5.8-6.2zm12.7-8.3c3.2 0 5.9 2.8 5.9 6.2-.2 8.3-11.5 8.3-11.7 0 0-3.4 2.6-6.2 5.8-6.2z"/><path class="st0" d="M560.5 308.5c3.2 0 5.9 2.8 5.9 6.2-.2 8.3-11.5 8.3-11.7 0-.1-3.4 2.5-6.2 5.8-6.2zm13.6-8.3c3.2 0 5.9 2.8 5.9 6.2-.2 8.3-11.5 8.3-11.7 0 0-3.4 2.6-6.2 5.8-6.2zm-19.5 27.1c3.2 0 5.9 2.8 5.9 6.2-.2 8.3-11.5 8.3-11.7 0-.1-3.4 2.6-6.2 5.8-6.2z"/><path class="st0" d="M567.3 318.9c3.2 0 5.9 2.8 5.9 6.2-.2 8.3-11.5 8.3-11.7 0-.1-3.4 2.6-6.2 5.8-6.2zm14.6-9.3c3.2 0 5.9 2.8 5.9 6.2-.2 8.3-11.5 8.3-11.7 0 0-3.4 2.6-6.2 5.8-6.2zm13.7-8.4c3.2 0 5.9 2.8 5.9 6.2-.2 8.3-11.5 8.3-11.7 0-.1-3.4 2.6-6.2 5.8-6.2zM580 327.3c3.2 0 5.9 2.8 5.9 6.2-.2 8.3-11.5 8.3-11.7 0-.1-3.4 2.5-6.2 5.8-6.2zm12.7-8.4c3.2 0 5.9 2.8 5.9 6.2-.2 8.3-11.5 8.3-11.7 0-.1-3.4 2.5-6.2 5.8-6.2zm14.6-9.3c3.2 0 5.9 2.8 5.9 6.2-.2 8.3-11.5 8.3-11.7 0 0-3.4 2.6-6.2 5.8-6.2zm13.7-8.4c3.2 0 5.9 2.8 5.9 6.2-.2 8.3-11.5 8.3-11.7 0-.1-3.4 2.6-6.2 5.8-6.2z"/><path class="st0" d="M601.5 326.2c3.2 0 5.9 2.8 5.9 6.2-.2 8.3-11.5 8.3-11.7 0-.1-3.4 2.5-6.2 5.8-6.2zm12.7-8.3c3.2 0 5.9 2.8 5.9 6.2-.2 8.3-11.5 8.3-11.7 0-.1-3.4 2.5-6.2 5.8-6.2zm14.6-9.4c3.2 0 5.9 2.8 5.9 6.2-.2 8.3-11.5 8.3-11.7 0-.1-3.4 2.6-6.2 5.8-6.2zm13.7-8.3c3.2 0 5.9 2.8 5.9 6.2-.2 8.3-11.5 8.3-11.7 0-.1-3.4 2.5-6.2 5.8-6.2zm-16.6 25c3.2 0 5.9 2.8 5.9 6.2-.2 8.3-11.5 8.3-11.7 0-.1-3.4 2.5-6.2 5.8-6.2z"/><path class="st0" d="M638.6 316.9c3.2 0 5.9 2.8 5.9 6.2-.2 8.3-11.5 8.3-11.7 0-.1-3.5 2.5-6.2 5.8-6.2zm14.6-9.4c3.2 0 5.9 2.8 5.9 6.2-.2 8.3-11.5 8.3-11.7 0 0-3.4 2.6-6.2 5.8-6.2zm13.7-8.3c3.2 0 5.9 2.8 5.9 6.2-.2 8.3-11.5 8.3-11.7 0-.1-3.4 2.5-6.2 5.8-6.2z"/><path class="st0" d="M648.3 298.1c3.2 0 5.9 2.8 5.9 6.2-.2 8.3-11.5 8.3-11.7 0 0-3.4 2.6-6.2 5.8-6.2zm12.7-8.3c3.2 0 5.9 2.8 5.9 6.2-.2 8.3-11.5 8.3-11.7 0 0-3.4 2.6-6.2 5.8-6.2zm14.7-9.4c3.2 0 5.9 2.8 5.9 6.2-.2 8.3-11.5 8.3-11.7 0-.1-3.4 2.5-6.2 5.8-6.2zm13.6-8.3c3.2 0 5.9 2.8 5.9 6.2-.2 8.3-11.5 8.3-11.7 0 0-3.4 2.6-6.2 5.8-6.2z"/></svg>