<svg version="1.1" id="Layer_1" xmlns="http://www.w3.org/2000/svg" x="0" y="0" viewBox="0 0 1200 385" style="enable-background:new 0 0 1200 385" xml:space="preserve"><style>.st0{fill:#f8d24e}</style><ellipse class="st0" cx="447.2" cy="32.8" rx="5.9" ry="6.2"/><ellipse class="st0" cx="459.9" cy="24.4" rx="5.9" ry="6.2"/><ellipse class="st0" cx="474.5" cy="15.1" rx="5.9" ry="6.2"/><ellipse class="st0" cx="488.2" cy="6.7" rx="5.9" ry="6.2"/><ellipse class="st0" cx="428.6" cy="54.6" rx="5.9" ry="6.2"/><ellipse class="st0" cx="441.3" cy="46.3" rx="5.9" ry="6.2"/><ellipse class="st0" cx="456" cy="36.9" rx="5.9" ry="6.2"/><ellipse class="st0" cx="469.6" cy="28.6" rx="5.9" ry="6.2"/><ellipse class="st0" cx="400.3" cy="55.6" rx="5.9" ry="6.2"/><ellipse class="st0" cx="413" cy="47.3" rx="5.9" ry="6.2"/><ellipse class="st0" cx="427.7" cy="38" rx="5.9" ry="6.2"/><ellipse class="st0" cx="441.3" cy="29.6" rx="5.9" ry="6.2"/><ellipse class="st0" cx="384.7" cy="79.6" rx="5.9" ry="6.2"/><ellipse class="st0" cx="397.4" cy="71.3" rx="5.9" ry="6.2"/><ellipse class="st0" cx="412" cy="61.9" rx="5.9" ry="6.2"/><ellipse class="st0" cx="425.7" cy="53.6" rx="5.9" ry="6.2"/><ellipse class="st0" cx="373" cy="101.4" rx="5.9" ry="6.2"/><ellipse class="st0" cx="385.7" cy="93.1" rx="5.9" ry="6.2"/><ellipse class="st0" cx="400.3" cy="83.7" rx="5.9" ry="6.2"/><ellipse class="st0" cx="414" cy="75.4" rx="5.9" ry="6.2"/><ellipse class="st0" cx="364.2" cy="123.3" rx="5.9" ry="6.2"/><ellipse class="st0" cx="376.9" cy="115" rx="5.9" ry="6.2"/><ellipse class="st0" cx="391.6" cy="105.7" rx="5.9" ry="6.2"/><ellipse class="st0" cx="405.3" cy="97.3" rx="5.9" ry="6.2"/><ellipse class="st0" cx="240.2" cy="160.8" rx="5.9" ry="6.2"/><ellipse class="st0" cx="253.9" cy="152.5" rx="5.9" ry="6.2"/><ellipse class="st0" cx="325.2" cy="132.7" rx="5.9" ry="6.2"/><ellipse class="st0" cx="337.9" cy="124.4" rx="5.9" ry="6.2"/><ellipse class="st0" cx="352.5" cy="115" rx="5.9" ry="6.2"/><ellipse class="st0" cx="366.2" cy="106.7" rx="5.9" ry="6.2"/><ellipse class="st0" cx="241.2" cy="142" rx="5.9" ry="6.2"/><ellipse class="st0" cx="254.8" cy="133.7" rx="5.9" ry="6.2"/><ellipse class="st0" cx="273.4" cy="124.3" rx="5.9" ry="6.2"/><ellipse class="st0" cx="286.1" cy="116" rx="5.9" ry="6.2"/><ellipse class="st0" cx="300.7" cy="106.6" rx="5.9" ry="6.2"/><ellipse class="st0" cx="314.4" cy="98.3" rx="5.9" ry="6.2"/><ellipse class="st0" cx="298.8" cy="136.8" rx="5.9" ry="6.2"/><ellipse class="st0" cx="311.5" cy="128.5" rx="5.9" ry="6.2"/><ellipse class="st0" cx="326.1" cy="119.1" rx="5.9" ry="6.2"/><ellipse class="st0" cx="339.8" cy="110.8" rx="5.9" ry="6.2"/><ellipse class="st0" cx="300.7" cy="120.2" rx="5.9" ry="6.2"/><ellipse class="st0" cx="313.4" cy="111.8" rx="5.9" ry="6.2"/><ellipse class="st0" cx="328.1" cy="102.5" rx="5.9" ry="6.2"/><ellipse class="st0" cx="341.7" cy="94.2" rx="5.9" ry="6.2"/><ellipse class="st0" cx="247" cy="126.4" rx="5.9" ry="6.2"/><ellipse class="st0" cx="259.7" cy="118.1" rx="5.9" ry="6.2"/><ellipse class="st0" cx="274.4" cy="108.7" rx="5.9" ry="6.2"/><ellipse class="st0" cx="288" cy="100.4" rx="5.9" ry="6.2"/><ellipse class="st0" cx="5.9" cy="358.5" rx="5.9" ry="6.2"/><ellipse class="st0" cx="18.6" cy="350.2" rx="5.9" ry="6.2"/><ellipse class="st0" cx="33.2" cy="340.8" rx="5.9" ry="6.2"/><ellipse class="st0" cx="46.9" cy="332.5" rx="5.9" ry="6.2"/><ellipse class="st0" cx="80.1" cy="361.6" rx="5.9" ry="6.2"/><ellipse class="st0" cx="92.8" cy="353.3" rx="5.9" ry="6.2"/><ellipse class="st0" cx="107.4" cy="343.9" rx="5.9" ry="6.2"/><ellipse class="st0" cx="121.1" cy="335.6" rx="5.9" ry="6.2"/><ellipse class="st0" cx="110.3" cy="357.4" rx="5.9" ry="6.2"/><ellipse class="st0" cx="123" cy="349.1" rx="5.9" ry="6.2"/><ellipse class="st0" cx="137.7" cy="339.7" rx="5.9" ry="6.2"/><ellipse class="st0" cx="151.3" cy="331.4" rx="5.9" ry="6.2"/><ellipse class="st0" cx="166" cy="318.9" rx="5.9" ry="6.2"/><ellipse class="st0" cx="134.7" cy="326.2" rx="5.9" ry="6.2"/><ellipse class="st0" cx="1024.2" cy="377.2" rx="5.9" ry="6.2"/><ellipse class="st0" cx="1036.9" cy="368.9" rx="5.9" ry="6.2"/><ellipse class="st0" cx="1051.6" cy="359.5" rx="5.9" ry="6.2"/><ellipse class="st0" cx="1065.3" cy="351.2" rx="5.9" ry="6.2"/><ellipse class="st0" cx="1057.4" cy="373" rx="5.9" ry="6.2"/><ellipse class="st0" cx="1070.1" cy="364.7" rx="5.9" ry="6.2"/><ellipse class="st0" cx="1084.8" cy="355.4" rx="5.9" ry="6.2"/><ellipse class="st0" cx="1098.4" cy="347" rx="5.9" ry="6.2"/><ellipse class="st0" cx="1085.8" cy="369.9" rx="5.9" ry="6.2"/><ellipse class="st0" cx="1098.4" cy="361.6" rx="5.9" ry="6.2"/><ellipse class="st0" cx="1113.1" cy="352.2" rx="5.9" ry="6.2"/><ellipse class="st0" cx="1126.8" cy="343.9" rx="5.9" ry="6.2"/><ellipse class="st0" cx="1113.1" cy="365.8" rx="5.9" ry="6.2"/><ellipse class="st0" cx="1125.8" cy="357.4" rx="5.9" ry="6.2"/><ellipse class="st0" cx="1140.4" cy="348.1" rx="5.9" ry="6.2"/><ellipse class="st0" cx="1154.1" cy="339.7" rx="5.9" ry="6.2"/><ellipse class="st0" cx="1121.9" cy="377.2" rx="5.9" ry="6.2"/><ellipse class="st0" cx="1134.6" cy="368.9" rx="5.9" ry="6.2"/><ellipse class="st0" cx="1152.2" cy="378.2" rx="5.9" ry="6.2"/><ellipse class="st0" cx="1149.2" cy="359.5" rx="5.9" ry="6.2"/><ellipse class="st0" cx="1166.8" cy="368.9" rx="5.9" ry="6.2"/><ellipse class="st0" cx="1180.5" cy="378.2" rx="5.9" ry="6.2"/><ellipse class="st0" cx="1162.9" cy="351.2" rx="5.9" ry="6.2"/><ellipse class="st0" cx="1180.5" cy="360.6" rx="5.9" ry="6.2"/><ellipse class="st0" cx="1194.1" cy="369.9" rx="5.9" ry="6.2"/><ellipse class="st0" cx="964.7" cy="308.5" rx="5.9" ry="6.2"/><ellipse class="st0" cx="977.4" cy="300.2" rx="5.9" ry="6.2"/><ellipse class="st0" cx="992" cy="290.8" rx="5.9" ry="6.2"/><ellipse class="st0" cx="1005.7" cy="282.5" rx="5.9" ry="6.2"/><ellipse class="st0" cx="940.3" cy="307.5" rx="5.9" ry="6.2"/><ellipse class="st0" cx="953" cy="299.2" rx="5.9" ry="6.2"/><ellipse class="st0" cx="967.6" cy="289.8" rx="5.9" ry="6.2"/><ellipse class="st0" cx="981.3" cy="281.5" rx="5.9" ry="6.2"/><ellipse class="st0" cx="995" cy="377.2" rx="5.9" ry="6.2"/><ellipse class="st0" cx="1007.7" cy="368.9" rx="5.9" ry="6.2"/><ellipse class="st0" cx="1022.3" cy="359.5" rx="5.9" ry="6.2"/><ellipse class="st0" cx="1036" cy="351.2" rx="5.9" ry="6.2"/><ellipse class="st0" cx="979.3" cy="371" rx="5.9" ry="6.2"/><ellipse class="st0" cx="992" cy="362.6" rx="5.9" ry="6.2"/><ellipse class="st0" cx="1006.7" cy="353.3" rx="5.9" ry="6.2"/><ellipse class="st0" cx="1020.3" cy="345" rx="5.9" ry="6.2"/><ellipse class="st0" cx="985.2" cy="349.1" rx="5.9" ry="6.2"/><ellipse class="st0" cx="997.9" cy="340.8" rx="5.9" ry="6.2"/><ellipse class="st0" cx="1012.5" cy="331.4" rx="5.9" ry="6.2"/><ellipse class="st0" cx="1026.2" cy="323.1" rx="5.9" ry="6.2"/><ellipse class="st0" cx="985.2" cy="312.7" rx="5.9" ry="6.2"/><ellipse class="st0" cx="997.9" cy="304.4" rx="5.9" ry="6.2"/><ellipse class="st0" cx="1012.5" cy="295" rx="5.9" ry="6.2"/><ellipse class="st0" cx="1026.2" cy="286.7" rx="5.9" ry="6.2"/><ellipse class="st0" cx="982.3" cy="332.5" rx="5.9" ry="6.2"/><ellipse class="st0" cx="995" cy="324.1" rx="5.9" ry="6.2"/><ellipse class="st0" cx="1009.6" cy="314.8" rx="5.9" ry="6.2"/><ellipse class="st0" cx="1023.3" cy="306.4" rx="5.9" ry="6.2"/><ellipse class="st0" cx="52.7" cy="360.6" rx="5.9" ry="6.2"/><ellipse class="st0" cx="65.4" cy="352.2" rx="5.9" ry="6.2"/><ellipse class="st0" cx="80.1" cy="342.9" rx="5.9" ry="6.2"/><ellipse class="st0" cx="93.7" cy="334.5" rx="5.9" ry="6.2"/><ellipse class="st0" cx="28.3" cy="359.5" rx="5.9" ry="6.2"/><ellipse class="st0" cx="41" cy="351.2" rx="5.9" ry="6.2"/><ellipse class="st0" cx="55.7" cy="341.8" rx="5.9" ry="6.2"/><ellipse class="st0" cx="69.3" cy="333.5" rx="5.9" ry="6.2"/><ellipse class="st0" cx="447.2" cy="56.7" rx="5.9" ry="6.2"/><ellipse class="st0" cx="459.9" cy="48.4" rx="5.9" ry="6.2"/><ellipse class="st0" cx="474.5" cy="39" rx="5.9" ry="6.2"/><ellipse class="st0" cx="488.2" cy="30.7" rx="5.9" ry="6.2"/><ellipse class="st0" cx="445.2" cy="99.4" rx="5.9" ry="6.2"/><ellipse class="st0" cx="457.9" cy="91" rx="5.9" ry="6.2"/><ellipse class="st0" cx="472.6" cy="81.7" rx="5.9" ry="6.2"/><ellipse class="st0" cx="486.2" cy="73.3" rx="5.9" ry="6.2"/><ellipse class="st0" cx="448.2" cy="77.5" rx="5.9" ry="6.2"/><ellipse class="st0" cx="460.9" cy="69.2" rx="5.9" ry="6.2"/><ellipse class="st0" cx="475.5" cy="59.8" rx="5.9" ry="6.2"/><ellipse class="st0" cx="489.2" cy="51.5" rx="5.9" ry="6.2"/><ellipse class="st0" cx="446.2" cy="120.2" rx="5.9" ry="6.2"/><ellipse class="st0" cx="458.9" cy="111.8" rx="5.9" ry="6.2"/><ellipse class="st0" cx="473.6" cy="102.5" rx="5.9" ry="6.2"/><ellipse class="st0" cx="487.2" cy="94.2" rx="5.9" ry="6.2"/><ellipse class="st0" cx="452.1" cy="134.7" rx="5.9" ry="6.2"/><ellipse class="st0" cx="464.8" cy="126.4" rx="5.9" ry="6.2"/><ellipse class="st0" cx="479.4" cy="117" rx="5.9" ry="6.2"/><ellipse class="st0" cx="493.1" cy="108.7" rx="5.9" ry="6.2"/><ellipse class="st0" cx="464.8" cy="146.2" rx="5.9" ry="6.2"/><ellipse class="st0" cx="477.5" cy="137.9" rx="5.9" ry="6.2"/><ellipse class="st0" cx="492.1" cy="128.5" rx="5.9" ry="6.2"/><ellipse class="st0" cx="505.8" cy="120.2" rx="5.9" ry="6.2"/><ellipse class="st0" cx="481.4" cy="155.6" rx="5.9" ry="6.2"/><ellipse class="st0" cx="494.1" cy="147.2" rx="5.9" ry="6.2"/><ellipse class="st0" cx="508.7" cy="137.9" rx="5.9" ry="6.2"/><ellipse class="st0" cx="522.4" cy="129.5" rx="5.9" ry="6.2"/><ellipse class="st0" cx="500.9" cy="157.6" rx="5.9" ry="6.2"/><ellipse class="st0" cx="513.6" cy="149.3" rx="5.9" ry="6.2"/><ellipse class="st0" cx="528.2" cy="139.9" rx="5.9" ry="6.2"/><ellipse class="st0" cx="541.9" cy="131.6" rx="5.9" ry="6.2"/><ellipse class="st0" cx="520.4" cy="161.8" rx="5.9" ry="6.2"/><ellipse class="st0" cx="533.1" cy="153.5" rx="5.9" ry="6.2"/><ellipse class="st0" cx="547.8" cy="144.1" rx="5.9" ry="6.2"/><ellipse class="st0" cx="561.4" cy="135.8" rx="5.9" ry="6.2"/><ellipse class="st0" cx="515.5" cy="181.6" rx="5.9" ry="6.2"/><ellipse class="st0" cx="528.2" cy="173.2" rx="5.9" ry="6.2"/><ellipse class="st0" cx="542.9" cy="163.9" rx="5.9" ry="6.2"/><ellipse class="st0" cx="556.5" cy="155.6" rx="5.9" ry="6.2"/><ellipse class="st0" cx="513.6" cy="200.3" rx="5.9" ry="6.2"/><ellipse class="st0" cx="526.3" cy="192" rx="5.9" ry="6.2"/><ellipse class="st0" cx="540.9" cy="182.6" rx="5.9" ry="6.2"/><ellipse class="st0" cx="554.6" cy="174.3" rx="5.9" ry="6.2"/><ellipse class="st0" cx="506.8" cy="224.2" rx="5.9" ry="6.2"/><ellipse class="st0" cx="519.4" cy="215.9" rx="5.9" ry="6.2"/><ellipse class="st0" cx="534.1" cy="206.5" rx="5.9" ry="6.2"/><ellipse class="st0" cx="547.8" cy="198.2" rx="5.9" ry="6.2"/><ellipse class="st0" cx="503.8" cy="245" rx="5.9" ry="6.2"/><ellipse class="st0" cx="516.5" cy="236.7" rx="5.9" ry="6.2"/><ellipse class="st0" cx="531.2" cy="227.4" rx="5.9" ry="6.2"/><ellipse class="st0" cx="544.8" cy="219" rx="5.9" ry="6.2"/><ellipse class="st0" cx="499.9" cy="266.9" rx="5.9" ry="6.2"/><ellipse class="st0" cx="512.6" cy="258.6" rx="5.9" ry="6.2"/><ellipse class="st0" cx="527.3" cy="249.2" rx="5.9" ry="6.2"/><ellipse class="st0" cx="540.9" cy="240.9" rx="5.9" ry="6.2"/><ellipse class="st0" cx="498" cy="284.6" rx="5.9" ry="6.2"/><ellipse class="st0" cx="510.7" cy="276.3" rx="5.9" ry="6.2"/><ellipse class="st0" cx="525.3" cy="266.9" rx="5.9" ry="6.2"/><ellipse class="st0" cx="539" cy="258.6" rx="5.9" ry="6.2"/><ellipse class="st0" cx="496" cy="303.3" rx="5.9" ry="6.2"/><ellipse class="st0" cx="508.7" cy="295" rx="5.9" ry="6.2"/><ellipse class="st0" cx="523.4" cy="285.6" rx="5.9" ry="6.2"/><ellipse class="st0" cx="537" cy="277.3" rx="5.9" ry="6.2"/><ellipse class="st0" cx="501.9" cy="318.9" rx="5.9" ry="6.2"/><ellipse class="st0" cx="514.6" cy="310.6" rx="5.9" ry="6.2"/><ellipse class="st0" cx="529.2" cy="301.2" rx="5.9" ry="6.2"/><ellipse class="st0" cx="542.9" cy="292.9" rx="5.9" ry="6.2"/><ellipse class="st0" cx="516.5" cy="327.3" rx="5.9" ry="6.2"/><ellipse class="st0" cx="529.2" cy="318.9" rx="5.9" ry="6.2"/><ellipse class="st0" cx="543.9" cy="309.6" rx="5.9" ry="6.2"/><ellipse class="st0" cx="557.5" cy="301.2" rx="5.9" ry="6.2"/><ellipse class="st0" cx="533.1" cy="332.5" rx="5.9" ry="6.2"/><ellipse class="st0" cx="545.8" cy="324.1" rx="5.9" ry="6.2"/><ellipse class="st0" cx="560.5" cy="314.8" rx="5.9" ry="6.2"/><ellipse class="st0" cx="574.1" cy="306.4" rx="5.9" ry="6.2"/></svg>