<svg aria-hidden="true" style="width:0;height:0;position:absolute;overflow:hidden" xmlns="http://www.w3.org/2000/svg"><defs><symbol id="cursor" viewBox="0 0 27 32"><path d="M5.614 32c-.842 0-1.544-.14-2.246-.561C1.263 30.597 0 28.632 0 26.386V5.614C0 3.368 1.263 1.403 3.368.421 5.473-.421 7.719 0 9.403 1.544L24.701 15.86c1.684 1.544 2.246 3.789 1.544 5.895s-2.386 3.509-4.632 3.789l-5.754.702c-1.123.14-2.246.561-3.088 1.404l-3.368 2.947c-1.123.982-2.386 1.404-3.789 1.404zm0-29.193c-.421 0-.702.14-1.123.281-1.123.421-1.684 1.403-1.684 2.526v20.772c0 1.123.561 2.105 1.684 2.526.982.421 2.105.281 3.088-.421l3.368-2.947c1.263-1.123 2.947-1.965 4.632-2.105l5.754-.702c1.123-.14 1.965-.842 2.386-1.965s.14-2.105-.702-2.947L7.578 3.509c-.561-.421-1.263-.702-1.965-.702z"/></symbol><symbol id="logo" viewBox="0 0 30 32"><path d="M15.212 17.083c1.428-3.791-1.526-5.858-3.446-7.237-.394-.295-.738-.542-1.034-.788A3.425 3.425 0 0 1 9.6 7.335c-.197-.64-.197-1.378-.049-2.018V5.12c0-.049-.049-.148-.098-.197s-.098-.098-.197-.098h-.197a6.7 6.7 0 0 0-1.822 1.034c-.542.394-.935.886-1.231 1.477s-.443 1.231-.443 1.871c-.345.295-.689.64-.985.985-.492.689-.738 1.477-.689 2.314-.591.542-1.034 1.231-1.28 1.969s-.295 1.674-.148 2.412c-.246.148-.443.345-.542.591s-.098.542-.049.788.246.492.443.64.492.246.788.246h.049v2.166c0 .197.098.443.246.591s.345.246.591.246h.64l1.034 9.058c0 .197.098.394.295.542.148.148.345.197.542.197h4.382c.197 0 .394-.098.542-.197s.246-.345.295-.542l1.034-9.058h.64c.246 0 .443-.098.591-.246s.246-.345.246-.591v-2.117h.049c.345 0 .64-.148.886-.345s.394-.542.394-.886c0-.148-.049-.345-.098-.492 0-.148-.098-.295-.246-.394zM5.711 10.24c.542 1.969 2.609 2.757 4.48 3.446.049.049.098.049.148.049h.197c.049 0 .098-.049.148-.098s.098-.098.098-.148c0-.049.049-.098.049-.148s0-.098-.049-.148c-.049-.049-.049-.098-.098-.148s-.098-.049-.148-.049c-2.018-.738-3.938-1.477-4.086-3.495-.049-.542.049-1.132.295-1.625s.591-.935 1.034-1.28c.295-.246.591-.443.886-.591v.738c.049.591.197 1.132.492 1.674.246.542.64.985 1.083 1.329.295.246.689.542 1.132.837.985.689 2.068 1.477 2.806 2.511.394.542.591 1.182.689 1.822.049.64 0 1.329-.295 1.92h-1.625c-3.397 0-7.286-.935-8.025-3.495a3.03 3.03 0 0 1 0-1.625c.049-.64.394-1.132.788-1.477zm3.052 12.455 1.231 1.231-1.231 1.231-1.231-1.231 1.231-1.231zm2.806 3.2-1.034 1.034-1.231-1.231 1.231-1.231 1.083 1.034-.049.394zm-2.806 2.807-1.231-1.231 1.231-1.231 1.231 1.231-1.231 1.231zm-.591-3.004-1.231 1.231-1.034-1.034-.049-.345 1.083-1.034 1.231 1.182zm-1.821 1.773-.246.246-.049-.542.295.295zm-.099 1.28.689-.689 1.378 1.378c0 .049 0 .049.049.098H6.35l-.098-.788zm4.283-.689.689.689-.098.738H9.058l1.477-1.428zm.837-.345-.246-.246.295-.295-.049.542zm.345-3.2-.64-.64.788-.788-.148 1.428zm-1.182-1.182-1.182-1.132h2.363l-1.182 1.132zm-3.593 0L5.76 22.203h2.363l-1.182 1.132zm3.987 7.828H6.547l-.148-.886h4.677l-.148.886c.049 0 .049 0 0 0 .049 0 0 0 0 0zm3.397-12.751h-1.428c-.049 0-.098.049-.148.098s-.098.098-.098.148-.049.098-.049.148 0 .098.049.148c0 .049.049.098.098.148s.098.049.148.098h.591v2.166H3.987V19.2h7.335a.27.27 0 0 0 .246-.148c.049-.049.098-.148.098-.246s-.049-.197-.098-.246-.148-.098-.246-.148H2.953c-.049 0-.098-.049-.148-.098s-.098-.098-.098-.148c-.049-.049-.049-.098-.049-.197 0-.049 0-.148.049-.197s.049-.098.098-.148.098-.098.148-.098c.049 0 .148-.049.197 0h.837a.27.27 0 0 0 .246-.148c.049-.049.098-.148.098-.246s-.049-.197-.098-.246a.272.272 0 0 0-.246-.148h-.738c-.098-.542-.098-1.132.049-1.674s.394-1.083.738-1.526c.246.788.935 1.871 2.609 2.757 1.575.788 3.643 1.231 6.154 1.231h1.674c.049 0 .098.049.148.098s.098.098.098.148c.049.049.049.098.049.197 0 .049 0 .148-.049.197s-.049.098-.098.148-.098.098-.148.098h-.148zM18.018 31.409c-.886 0-1.526-.049-2.018-.197-.492-.098-.886-.197-1.28-.394-.345-.148-.591-.345-.837-.542a2.463 2.463 0 0 1-.837-1.871c0-.443.098-.886.246-1.28.295-.689.886-1.182 1.772-1.575.738-.345 1.575-.443 2.658-.443.935 0 1.871.098 2.708.295l.197.049-.148 2.117h-.246c-.246 0-.542 0-.788-.049h-.591c-.985 0-2.117.148-2.117.788 0 .295.098.492.345.64.246.197.689.246 1.28.246s1.132-.049 1.723-.148l.295-.049.049 2.117-.197.049c-.542.148-1.231.246-2.215.246zm-.295-5.809c-1.034 0-1.772.148-2.462.443-.788.345-1.231.738-1.477 1.329-.148.345-.246.689-.246 1.083 0 .591.197 1.083.64 1.477.197.148.443.295.738.443.345.148.738.295 1.182.394.492.148 1.083.197 1.92.197s1.428-.049 1.92-.197l-.049-1.132c-.492.049-1.034.098-1.526.098-.443 0-1.083-.049-1.526-.345-.394-.246-.591-.542-.591-1.034 0-.837.886-1.28 2.609-1.28h1.182l.098-1.231a12.9 12.9 0 0 0-2.412-.246z"/><path d="M24.763 31.705a11.05 11.05 0 0 1-1.477-.098c-.394-.049-.837-.148-1.231-.295s-.788-.295-1.083-.591c-.295-.197-.492-.492-.738-.886a3.246 3.246 0 0 1-.295-1.329c0-.492.098-.935.246-1.428.197-.394.394-.788.738-1.083.837-.738 1.969-1.083 3.495-1.083.689 0 1.329.148 2.068.394.738.345 1.182.788 1.477 1.378.197.345.246.738.246 1.132l-.049 1.182h-4.48c.098.148.246.295.394.394.295.148.738.246 1.329.246s1.231-.148 2.018-.492h.64l-.098 1.772-.049.049c-.246.246-.738.394-1.329.542-.542.148-1.132.197-1.822.197zm-.246-6.351c-1.378 0-2.462.295-3.2.985-.246.197-.443.492-.64.886-.148.394-.197.788-.197 1.231 0 .394.049.788.246 1.132s.345.591.591.738c.246.246.591.394.935.492.394.148.738.246 1.132.295.345.049.837.098 1.378.098.64 0 1.182-.049 1.723-.197.345-.098.837-.197 1.034-.394l.049-1.034c-.788.345-1.526.492-2.166.492s-1.182-.098-1.526-.345c-.394-.197-.64-.542-.738-.985l-.098-.295h4.726l.049-.689c0-.295-.098-.64-.197-.886-.197-.492-.591-.837-1.231-1.132s-1.28-.394-1.871-.394zm-1.28 2.658.049-.295c.049-.345.197-.591.394-.837.246-.246.542-.345.935-.345s.689.098.886.246c.148.148.295.443.295.935v.246l-2.56.049zm1.378-.984c-.246 0-.394.049-.542.246a.868.868 0 0 0-.197.246l1.428-.049a2.307 2.307 0 0 0-.148-.345 1.32 1.32 0 0 0-.542-.098z"/></symbol><symbol id="icon-Burger" viewBox="0 0 32 32"><path d="M26 11H6c-.6 0-1-.4-1-1s.4-1 1-1h20c.6 0 1 .4 1 1s-.4 1-1 1zM26 17H6c-.6 0-1-.4-1-1s.4-1 1-1h20c.6 0 1 .4 1 1s-.4 1-1 1zM26 23H6c-.6 0-1-.4-1-1s.4-1 1-1h20c.6 0 1 .4 1 1s-.4 1-1 1z"/></symbol><symbol id="close-button" viewBox="0 0 32 32"><path d="m17.253 16 7.369-7.369a.886.886 0 0 0-.047-1.207.89.89 0 0 0-1.206-.047L16 14.746 8.631 7.368A.892.892 0 0 0 7.369 8.63l7.378 7.369-7.378 7.369a.891.891 0 0 0-.05 1.304.89.89 0 0 0 1.304-.051l7.378-7.369 7.369 7.369a.885.885 0 0 0 1.206-.047.89.89 0 0 0 .047-1.206l-7.369-7.369z"/></symbol><symbol id="forward-arrow" viewBox="0 0 20 32"><path d="M5.818 31.418c-.582 0-1.455-.291-2.036-.873-1.164-1.164-1.164-2.909 0-4.073l9.891-10.182L3.491 5.817c-1.164-1.164-1.164-2.909 0-4.073S6.4.58 7.564 1.744L19.2 13.962c1.164 1.164 1.164 2.909 0 4.073L7.564 30.253c-.873.873-1.164 1.164-1.745 1.164z"/></symbol><symbol id="arrow" viewBox="0 0 82 32"><path d="M81.414 17.414a2 2 0 0 0 0-2.828L68.686 1.858a2 2 0 1 0-2.828 2.828L77.172 16 65.858 27.314a2 2 0 1 0 2.828 2.828l12.728-12.728zM0 18h80v-4H0v4z"/></symbol><symbol id="hover-arrow" viewBox="0 0 102 32"><path d="M101.414 17.414a2 2 0 0 0 0-2.828L88.686 1.858a2 2 0 1 0-2.828 2.828L97.172 16 85.858 27.314a2 2 0 1 0 2.828 2.828l12.728-12.728zM0 18h100v-4H0v4z"/></symbol><symbol id="focus-arrow" viewBox="0 0 69 32"><path d="M68.081 17.414a2 2 0 0 0 0-2.829L55.353 1.857a2 2 0 1 0-2.828 2.828l11.314 11.314-11.314 11.314a2 2 0 1 0 2.828 2.828l12.728-12.728zM0 18h66.667v-4H0v4z"/></symbol><symbol id="cow" viewBox="0 0 32 32"><path d="M10.3 23.558c-2.008-2.017-2.458-4.525-2.242-7.225 0-.017-.008-.025-.025-.025-.725-.075-1.392-.133-2.05-.225-.9-.125-1.775-.325-2.583-.75a3.67 3.67 0 0 1-.875-.633c-.55-.542-.533-1.275-.017-1.842.392-.425.892-.675 1.417-.875.992-.367 2.017-.55 3.067-.633.15-.008.308-.033.475-.05-.017-.05-.025-.083-.042-.1-1.617-1.958-1.817-4.142-.967-6.467.208-.567.525-1.1.8-1.65.125-.242.317-.392.6-.333s.392.267.433.542c.283 1.608.792 3.133 1.817 4.45l.075.1c.408.575.892.85 1.683.833 2.725-.075 5.45-.058 8.175-.008.675.017 1.075-.233 1.467-.7.992-1.183 1.558-2.558 1.892-4.05.05-.233.092-.467.133-.7.05-.233.167-.408.408-.458.25-.05.442.042.583.267.975 1.592 1.558 3.292 1.308 5.2a5.78 5.78 0 0 1-1.125 2.733l-.233.308c-.008.017 0 .042.017.042.35.042.675.067.983.108.983.125 1.95.308 2.842.758.367.183.725.425 1.008.708.533.533.508 1.258 0 1.817-.45.492-1.042.742-1.65.958-1.15.4-2.342.533-3.55.608-.075.008-.15.008-.258.017-.017 0-.025.008-.025.025v1.725c0 1.925-.633 3.617-1.858 5.1-.133.158-.283.317-.383.425-.008.008-.008.017 0 .025.325.417.5.908.542 1.358.092.975-.125 1.758-.775 2.442-.9.958-2.067 1.45-3.325 1.708-2.167.45-4.283.317-6.275-.725a5.32 5.32 0 0 1-1.4-1.075c-.992-1.058-1.033-2.35-.2-3.525.042-.05.075-.108.125-.175.017-.008.017-.025.008-.033zm10.5-.716c.008.008.025 0 .025 0 1.05-.95 1.917-2.783 1.958-4.233.025-.875.017-1.75.025-2.617 0-.583.167-.717.733-.758.9-.067 1.8-.133 2.692-.267.758-.117 1.5-.333 2.142-.792.392-.283.408-.533 0-.758a8.127 8.127 0 0 0-1.558-.675c-1.075-.317-2.183-.4-3.3-.408-.525-.008-.65-.125-.733-.642-.15-.983-.967-1.825-1.958-1.958-.5-.067-1.017-.058-1.525-.058-2.567-.008-5.133-.008-7.708 0-1.317 0-2.258.8-2.483 2.075-.075.417-.25.558-.675.583-.717.042-1.433.067-2.142.15-.917.117-1.825.308-2.633.783-.633.367-.633.658 0 1.033.708.417 1.492.625 2.3.725.825.108 1.65.142 2.483.208.442.033.617.2.625.642 0 .258-.008.517 0 .783.05.958.033 1.933.192 2.883.217 1.292.875 2.392 1.758 3.283.008.008.017.008.033.008 3.267-1.792 6.483-1.792 9.75.008zm-4.917 5.491c.683-.017 1.358-.092 2-.275 1.025-.217 1.992-.6 2.733-1.392.767-.825.75-1.842-.1-2.575a5.866 5.866 0 0 0-1.483-.933c-1.558-.667-3.2-.725-4.85-.433-1.025.183-1.983.567-2.8 1.258-.925.783-.992 1.892-.142 2.742.208.208.45.4.708.558 1.2.733 2.533.983 3.933 1.05zm7.667-17.658c.008.017.033.017.042.008.742-.825 1.158-1.758 1.25-2.817a5.89 5.89 0 0 0-.55-3.025c-.008-.025-.042-.017-.05 0-.458 1.6-1.158 2.983-2.267 4.15-.008.008-.008.033.008.042.708.383 1.208.917 1.567 1.642zM9.858 9.008C8.725 7.825 8.058 6.425 7.6 4.891c-.008-.025-.033-.025-.05-.008-.858 1.733-.75 4.192.775 5.725.008.008.033.008.042-.008.325-.667.817-1.167 1.483-1.55.017-.008.017-.033.008-.042z"/><path d="M12.308 12.842c.708 0 1.275.333 1.75.817a.498.498 0 0 1 .008.725c-.183.192-.475.208-.708.033-.075-.058-.142-.125-.208-.183-.542-.45-1.142-.458-1.708-.042-.083.058-.158.142-.233.2-.233.192-.533.192-.725-.008-.208-.217-.208-.517.025-.75.5-.483 1.083-.792 1.8-.792zm7.267 0c.725.008 1.3.333 1.775.842.183.2.175.483 0 .683a.506.506 0 0 1-.7.05c-.058-.042-.108-.092-.167-.142-.625-.525-1.242-.525-1.875 0-.108.092-.225.2-.358.233a.469.469 0 0 1-.567-.225c-.125-.225-.108-.442.075-.625.5-.5 1.092-.817 1.817-.817zm-.65 11.55c.342 0 .567.175.6.458s-.167.533-.5.558c-.367.033-.533.192-.55.567-.008.308-.25.492-.542.475s-.492-.258-.492-.575c0-.842.65-1.483 1.483-1.483zm-4.583 1.533c0 .017-.017.025-.025.025h-.592c-.217 0-.4.008-.458-.283-.017-.1-.25-.192-.392-.225-.267-.05-.483-.133-.558-.417s.125-.575.408-.625c.883-.158 1.717.633 1.617 1.525z"/></symbol><symbol id="kettlebell" viewBox="0 0 32 32"><path d="M15.75 28.375c-1.475 0-2.95.017-4.417-.008a1.705 1.705 0 0 1-.875-.267c-3.092-2.117-4.6-5.067-4.45-8.817.083-1.992.8-3.792 2.033-5.367.15-.192.308-.333.125-.625-1.683-2.608-.9-5.542 1.3-7.4 2.192-1.85 4.775-2.425 7.575-2.125 2.133.225 4.033 1.033 5.55 2.592 1.917 1.967 2.233 4.525.833 6.883-.183.308-.075.458.092.683 3.475 4.525 2.45 10.908-2.283 14.083-.3.2-.708.317-1.067.325-1.475.033-2.95.017-4.417.017v.025zm.033-.975v-.017c1.35 0 2.7-.025 4.05.008.517.017.9-.15 1.292-.45 4.083-3.167 4.692-8.867 1.342-12.808-.342-.4-.342-.7-.033-1.1.583-.775.925-1.658.917-2.633-.008-1.775-.883-3.1-2.267-4.117-3.033-2.233-7.667-2.2-10.683.067-2.242 1.683-2.967 4.475-1.167 6.825.292.383.133.65-.133.967-3.4 3.892-2.658 10 1.575 12.958.267.183.633.292.958.3 1.383.025 2.767 0 4.15 0z"/><path d="M15.75 5.608c1.758.058 3.35.483 4.717 1.592 1.567 1.275 2.033 3.25 1.158 4.892-.35.65-.525.683-1.142.325-3.117-1.833-6.242-1.833-9.358-.025-.675.392-.825.375-1.183-.308-.825-1.558-.475-3.383.925-4.675 1.383-1.275 3.075-1.733 4.883-1.8zm5.258 5.959c.017-.675.108-1.225.033-1.758-.158-1.042-.858-1.742-1.717-2.275-1.383-.867-2.917-1.092-4.5-.9-1.383.167-2.642.675-3.608 1.758-.808.908-1.008 2.133-.475 3.075 3.35-1.825 6.708-1.833 10.267.1zm-4.041 2.25c2.808.058 5.367 2.708 5.35 5.525 0 .325-.083.617-.483.617-.392 0-.458-.283-.483-.617-.142-2.275-1.575-4-3.742-4.483-.217-.05-.45-.058-.675-.075-.358-.033-.758-.042-.725-.542.033-.467.417-.433.758-.425z"/></symbol><symbol id="ice-cream" viewBox="0 0 32 32"><path d="M9.584 13.773c-.533-.225-.658-.516-.475-1.024.125-.35.333-.641.624-.874.591-.475 1.174-.949 1.807-1.374-.591-.408-.758-.991-.541-1.915.216-.874.733-1.54 1.466-2.057.55-.383 1.174-.608 1.79-.858.208-.083.425-.175.624-.275 1.416-.716 1.998-1.957 1.674-3.547-.05-.233-.1-.466-.167-.749.225.117.425.216.616.316 1.182.658 2.273 1.432 3.006 2.598.908 1.441 1.066 3.006.633 4.638-.117.441-.233.6-.541.933.233.167.483.316.708.5.491.383.883.841 1.091 1.441.233.674.1 1.291-.3 1.857-.108.15-.108.225.05.333.375.283.708.608.983.991.691.974.541 1.907-.458 2.556-.225.15-.308.308-.308.575-.025 1.382-.083 2.764-.108 4.138-.008.4-.142.683-.491.908-.45.283-.691.724-.816 1.241-.425 1.774-.774 3.564-1.107 5.354-.1.525-.375.841-.824 1.041-.625.283-1.291.375-1.965.391-.991.033-1.973.033-2.923-.3-.591-.208-.949-.55-1.074-1.224a101.37 101.37 0 0 0-1.082-5.263c-.125-.541-.383-.991-.858-1.282-.308-.192-.425-.45-.433-.799-.033-1.416-.083-2.823-.117-4.238-.008-.175-.042-.275-.208-.358a1.963 1.963 0 0 1-.674-.491c-.266-.308-.375-.633-.208-1.033.108-.258.142-.525.075-.791-.158-.566.033-.999.533-1.357zm1.058 2.764c.949-.008 1.89-.042 2.831-.142 1.973-.208 3.839-.741 5.554-1.765.708-.425 1.366-.899 1.857-1.582.508-.699.458-1.324-.142-1.957-.3-.308-.658-.533-1.033-.733-.241-.133-.458-.117-.691.05-2.173 1.491-4.53 2.573-7.111 3.139-.641.142-1.291.3-1.882.616-.458.241-.55.433-.45.924.042.208.042.408-.05.575-.216.4-.133.658.333.949.483.3 1.016.458 1.565.583 2.864.633 5.737.666 8.627.175.633-.108 1.266-.241 1.799-.633s.625-.916.266-1.466c-.241-.358-.575-.616-.891-.908-.233-.216-.433-.192-.649 0a6.541 6.541 0 0 1-.891.616c-1.491.874-3.114 1.332-4.813 1.549-1.424.175-2.831.15-4.23.008zm3.48-7.194c.017.017.025.042.042.058-.075.058-.15.125-.225.183-.924.691-1.849 1.374-2.764 2.073-.433.325-.933.55-1.324.924-.133.125-.283.266-.216.483.067.225.25.316.466.358.408.075.808 0 1.199-.1 1.774-.458 3.422-1.232 5.038-2.082.916-.483 1.832-.966 2.598-1.69.5-.475.891-1.016 1.008-1.707.308-1.857-.716-4.005-2.357-4.979a4.694 4.694 0 0 1-.649 1.824c-.566.966-1.466 1.49-2.481 1.857-.583.208-1.174.416-1.682.783-.624.45-.991 1.049-1.082 1.815-.067.566.225.874.791.841.391-.025.741-.183 1.082-.358.183-.092.366-.192.558-.283zm-3.206 8.551c.067.408.05.808.05 1.216-.008.791-.067 1.574.008 2.365.067.724.175.866.874 1.033.183.042.366.092.55.108 2.498.283 4.988.241 7.486-.05.483-.058.758-.291.866-.741.033-.117.058-.241.075-.366.192-1.074.092-2.157.133-3.231.008-.192-.092-.158-.208-.142-.508.083-1.016.183-1.532.25-2.798.358-5.562.475-8.302-.441zm8.785 5.404c-.067.075-.142.15-.208.216-.3.316-.408.741-.649 1.091-.192.275-.125.491.058.724.117.142.358.291.216.491-.125.175-.35.017-.516-.042-.283-.1-.45-.042-.6.233a9.61 9.61 0 0 1-.791 1.191c-.6.791-.608.783.175 1.366.183.133.366.275.433.508.042.167.025.25-.192.216-.383-.058-.699-.258-1.008-.458-.225-.142-.383-.142-.575.042-.433.408-.716.924-1.124 1.391.941.125 1.824.192 2.706-.05.658-.175 1.058-.558 1.216-1.257.425-1.857.541-3.764.858-5.662zm-5.912 2.657a25.42 25.42 0 0 1 2.065 1.391c.092.067.142.083.216-.025.433-.658.883-1.307 1.316-1.957.05-.067.108-.125.008-.208-.583-.516-1.116-1.082-1.799-1.474-.233-.133-.4-.1-.533.142-.408.716-.841 1.416-1.274 2.132zm-1.041 1.066c.117.833.225 1.657.483 2.456.125.391.674.708 1.066.666a.287.287 0 0 0 .225-.15c.308-.516.616-1.024.924-1.54.125-.208.05-.341-.133-.458a10.523 10.523 0 0 0-2.115-1.082c-.083-.033-.175-.05-.266-.067-.125-.008-.208.025-.183.175zm-.566-3.723c.1.633.2 1.241.3 1.849.042.25.283.283.466.358.175.067.216-.117.275-.225.225-.425.483-.824.783-1.191.142-.167.283-.341.458-.55-.799-.042-1.54-.15-2.282-.241zm4.338.458c.375.25.649.541 1.016.699.142.067.291.117.416-.042.192-.25.391-.5.608-.783-.674.042-1.324.075-2.04.125z"/></symbol><symbol id="github" viewBox="0 0 32 32"><path d="M16 0C7.211 0 0 7.211 0 16c0 7.499 5.262 14.312 12.25 16v-5.293a3.921 3.921 0 0 1-2.062-.06l.028.007c-.946-.278-1.714-.909-2.285-1.869-.363-.613-1.008-1.28-1.68-1.23l-.165-1.867c1.454-.125 2.71.886 3.456 2.139.333.558.715.885 1.205 1.029.472.141.981.074 1.573-.136.149-1.186.693-1.629 1.104-2.256-4.168-.621-5.829-2.832-6.488-4.576-.874-2.318-.405-5.213 1.139-7.043.03-.035.085-.128.064-.192-.709-2.141.154-3.91.186-4.098.818.24.95-.243 3.552 1.336l.448.27c.189.112.128.048.317.032a13.246 13.246 0 0 1 3.349-.469h.01c1.136.014 2.272.176 3.403.483l.146.016c-.013-.003.04-.01.128-.062 3.248-1.968 3.131-1.325 4.003-1.608.032.189.882 1.987.182 4.099-.096.291 2.816 2.957 1.202 7.235-.659 1.744-2.32 3.957-6.486 4.578.534.816 1.176 1.248 1.173 2.928v6.606c6.986-1.688 12.25-8.501 12.25-16 0-8.789-7.211-16-16-16z"/></symbol><symbol id="telegram" viewBox="0 0 44 32"><path d="m17.342 21.048-.674 8.86c.966 0 1.384-.388 1.886-.852l4.526-4.04 9.38 6.414c1.72.894 2.934.422 3.398-1.478L42.016 3.02c.546-2.374-.92-3.302-2.594-2.72L3.226 13.234C.756 14.13.794 15.414 2.808 16l9.252 2.684L33.554 6.132c1.012-.626 1.932-.28 1.174.346l-17.386 14.57z"/></symbol><symbol id="facebook" viewBox="0 0 16 32"><path d="M14.143 15.971H10.11v14.865H3.998V15.971H1.092v-5.222h2.906V7.367c0-2.417 1.142-6.204 6.167-6.204l4.527.019v5.072h-3.284c-.538 0-1.297.272-1.297 1.425v3.073h4.567l-.534 5.219z"/></symbol></defs></svg>