<svg aria-hidden="true" style="position: absolute; width: 0; height: 0; overflow: hidden;" version="1.1" xmlns="http://www.w3.org/2000/svg" xmlns:xlink="http://www.w3.org/1999/xlink">
<defs>
<symbol id="cursor" viewBox="0 0 27 32">
<path d="M5.614 32c-0.842 0-1.544-0.14-2.246-0.561-2.105-0.842-3.368-2.807-3.368-5.053v-20.772c0-2.246 1.263-4.211 3.368-5.193 2.105-0.842 4.351-0.421 6.035 1.123l15.298 14.316c1.684 1.544 2.246 3.789 1.544 5.895s-2.386 3.509-4.632 3.789l-5.754 0.702c-1.123 0.14-2.246 0.561-3.088 1.404l-3.368 2.947c-1.123 0.982-2.386 1.404-3.789 1.404zM5.614 2.807c-0.421 0-0.702 0.14-1.123 0.281-1.123 0.421-1.684 1.403-1.684 2.526v20.772c0 1.123 0.561 2.105 1.684 2.526 0.982 0.421 2.105 0.281 3.088-0.421l3.368-2.947c1.263-1.123 2.947-1.965 4.632-2.105l5.754-0.702c1.123-0.14 1.965-0.842 2.386-1.965s0.14-2.105-0.702-2.947l-15.439-14.316c-0.561-0.421-1.263-0.702-1.965-0.702z"></path>
</symbol>
<symbol id="logo" viewBox="0 0 30 32">
<path d="M15.212 17.083c1.428-3.791-1.526-5.858-3.446-7.237-0.394-0.295-0.738-0.542-1.034-0.788-0.542-0.443-0.935-1.034-1.132-1.723-0.197-0.64-0.197-1.378-0.049-2.018v-0.197c0-0.049-0.049-0.148-0.098-0.197s-0.098-0.098-0.197-0.098h-0.197c-0.64 0.246-1.28 0.591-1.822 1.034-0.542 0.394-0.935 0.886-1.231 1.477s-0.443 1.231-0.443 1.871c-0.345 0.295-0.689 0.64-0.985 0.985-0.492 0.689-0.738 1.477-0.689 2.314-0.591 0.542-1.034 1.231-1.28 1.969s-0.295 1.674-0.148 2.412c-0.246 0.148-0.443 0.345-0.542 0.591s-0.098 0.542-0.049 0.788 0.246 0.492 0.443 0.64 0.492 0.246 0.788 0.246h0.049v2.166c0 0.197 0.098 0.443 0.246 0.591s0.345 0.246 0.591 0.246h0.64l1.034 9.058c0 0.197 0.098 0.394 0.295 0.542 0.148 0.148 0.345 0.197 0.542 0.197h4.382c0.197 0 0.394-0.098 0.542-0.197s0.246-0.345 0.295-0.542l1.034-9.058h0.64c0.246 0 0.443-0.098 0.591-0.246s0.246-0.345 0.246-0.591v-2.117h0.049c0.345 0 0.64-0.148 0.886-0.345s0.394-0.542 0.394-0.886c0-0.148-0.049-0.345-0.098-0.492 0-0.148-0.098-0.295-0.246-0.394zM5.711 10.24c0.542 1.969 2.609 2.757 4.48 3.446 0.049 0.049 0.098 0.049 0.148 0.049h0.197c0.049 0 0.098-0.049 0.148-0.098s0.098-0.098 0.098-0.148c0-0.049 0.049-0.098 0.049-0.148s0-0.098-0.049-0.148c-0.049-0.049-0.049-0.098-0.098-0.148s-0.098-0.049-0.148-0.049c-2.018-0.738-3.938-1.477-4.086-3.495-0.049-0.542 0.049-1.132 0.295-1.625s0.591-0.935 1.034-1.28c0.295-0.246 0.591-0.443 0.886-0.591v0.738c0.049 0.591 0.197 1.132 0.492 1.674 0.246 0.542 0.64 0.985 1.083 1.329 0.295 0.246 0.689 0.542 1.132 0.837 0.985 0.689 2.068 1.477 2.806 2.511 0.394 0.542 0.591 1.182 0.689 1.822 0.049 0.64 0 1.329-0.295 1.92h-1.625c-3.397 0-7.286-0.935-8.025-3.495-0.148-0.542-0.148-1.083 0-1.625 0.049-0.64 0.394-1.132 0.788-1.477zM8.763 22.695l1.231 1.231-1.231 1.231-1.231-1.231 1.231-1.231zM11.569 25.895l-1.034 1.034-1.231-1.231 1.231-1.231 1.083 1.034c0 0-0.049 0.394-0.049 0.394zM8.763 28.702l-1.231-1.231 1.231-1.231 1.231 1.231-1.231 1.231zM8.172 25.698l-1.231 1.231-1.034-1.034-0.049-0.345 1.083-1.034c0 0 1.231 1.182 1.231 1.182zM6.351 27.471l-0.246 0.246-0.049-0.542 0.295 0.295zM6.252 28.751l0.689-0.689 1.378 1.378c0 0.049 0 0.049 0.049 0.098h-2.018c0 0-0.098-0.788-0.098-0.788zM10.535 28.062l0.689 0.689-0.098 0.738h-2.068l1.477-1.428zM11.372 27.717l-0.246-0.246 0.295-0.295-0.049 0.542zM11.717 24.517l-0.64-0.64 0.788-0.788c0 0-0.148 1.428-0.148 1.428zM10.535 23.335l-1.182-1.132h2.363c0 0-1.182 1.132-1.182 1.132zM6.942 23.335l-1.182-1.132h2.363c0 0-1.182 1.132-1.182 1.132zM10.929 31.163h-4.382l-0.148-0.886h4.677l-0.148 0.886c0.049 0 0.049 0 0 0 0.049 0 0 0 0 0zM14.326 18.412h-1.428c-0.049 0-0.098 0.049-0.148 0.098s-0.098 0.098-0.098 0.148-0.049 0.098-0.049 0.148 0 0.098 0.049 0.148c0 0.049 0.049 0.098 0.098 0.148s0.098 0.049 0.148 0.098h0.591v2.166h-9.502v-2.166h7.335c0.098 0 0.197-0.049 0.246-0.148 0.049-0.049 0.098-0.148 0.098-0.246s-0.049-0.197-0.098-0.246-0.148-0.098-0.246-0.148h-8.369c-0.049 0-0.098-0.049-0.148-0.098s-0.098-0.098-0.098-0.148c-0.049-0.049-0.049-0.098-0.049-0.197 0-0.049 0-0.148 0.049-0.197s0.049-0.098 0.098-0.148 0.098-0.098 0.148-0.098c0.049 0 0.148-0.049 0.197 0h0.837c0.098 0 0.197-0.049 0.246-0.148 0.049-0.049 0.098-0.148 0.098-0.246s-0.049-0.197-0.098-0.246c-0.049-0.098-0.148-0.148-0.246-0.148h-0.738c-0.098-0.542-0.098-1.132 0.049-1.674s0.394-1.083 0.738-1.526c0.246 0.788 0.935 1.871 2.609 2.757 1.575 0.788 3.643 1.231 6.154 1.231h1.674c0.049 0 0.098 0.049 0.148 0.098s0.098 0.098 0.098 0.148c0.049 0.049 0.049 0.098 0.049 0.197 0 0.049 0 0.148-0.049 0.197s-0.049 0.098-0.098 0.148-0.098 0.098-0.148 0.098c0 0-0.148 0-0.148 0z"></path>
<path d="M18.018 31.409c-0.886 0-1.526-0.049-2.018-0.197-0.492-0.098-0.886-0.197-1.28-0.394-0.345-0.148-0.591-0.345-0.837-0.542-0.542-0.492-0.837-1.132-0.837-1.871 0-0.443 0.098-0.886 0.246-1.28 0.295-0.689 0.886-1.182 1.772-1.575 0.738-0.345 1.575-0.443 2.658-0.443 0.935 0 1.871 0.098 2.708 0.295l0.197 0.049-0.148 2.117h-0.246c-0.246 0-0.542 0-0.788-0.049-0.197 0-0.394 0-0.591 0-0.985 0-2.117 0.148-2.117 0.788 0 0.295 0.098 0.492 0.345 0.64 0.246 0.197 0.689 0.246 1.28 0.246s1.132-0.049 1.723-0.148l0.295-0.049 0.049 2.117-0.197 0.049c-0.542 0.148-1.231 0.246-2.215 0.246zM17.723 25.6c-1.034 0-1.772 0.148-2.462 0.443-0.788 0.345-1.231 0.738-1.477 1.329-0.148 0.345-0.246 0.689-0.246 1.083 0 0.591 0.197 1.083 0.64 1.477 0.197 0.148 0.443 0.295 0.738 0.443 0.345 0.148 0.738 0.295 1.182 0.394 0.492 0.148 1.083 0.197 1.92 0.197s1.428-0.049 1.92-0.197l-0.049-1.132c-0.492 0.049-1.034 0.098-1.526 0.098-0.443 0-1.083-0.049-1.526-0.345-0.394-0.246-0.591-0.542-0.591-1.034 0-0.837 0.886-1.28 2.609-1.28 0.197 0 0.394 0 0.64 0 0.148 0 0.345 0 0.542 0l0.098-1.231c-0.788-0.148-1.575-0.246-2.412-0.246z"></path>
<path d="M24.763 31.705c-0.591 0-1.132-0.049-1.477-0.098-0.394-0.049-0.837-0.148-1.231-0.295s-0.788-0.295-1.083-0.591c-0.295-0.197-0.492-0.492-0.738-0.886-0.197-0.443-0.295-0.886-0.295-1.329 0-0.492 0.098-0.935 0.246-1.428 0.197-0.394 0.394-0.788 0.738-1.083 0.837-0.738 1.969-1.083 3.495-1.083 0.689 0 1.329 0.148 2.068 0.394 0.738 0.345 1.182 0.788 1.477 1.378 0.197 0.345 0.246 0.738 0.246 1.132l-0.049 1.182h-4.48c0.098 0.148 0.246 0.295 0.394 0.394 0.295 0.148 0.738 0.246 1.329 0.246s1.231-0.148 2.018-0.492h0.64l-0.098 1.772-0.049 0.049c-0.246 0.246-0.738 0.394-1.329 0.542v0c-0.542 0.148-1.132 0.197-1.822 0.197zM24.517 25.354c-1.378 0-2.462 0.295-3.2 0.985-0.246 0.197-0.443 0.492-0.64 0.886-0.148 0.394-0.197 0.788-0.197 1.231 0 0.394 0.049 0.788 0.246 1.132s0.345 0.591 0.591 0.738c0.246 0.246 0.591 0.394 0.935 0.492 0.394 0.148 0.738 0.246 1.132 0.295 0.345 0.049 0.837 0.098 1.378 0.098 0.64 0 1.182-0.049 1.723-0.197 0.345-0.098 0.837-0.197 1.034-0.394l0.049-1.034c-0.788 0.345-1.526 0.492-2.166 0.492s-1.182-0.098-1.526-0.345c-0.394-0.197-0.64-0.542-0.738-0.985l-0.098-0.295h4.726l0.049-0.689c0-0.295-0.098-0.64-0.197-0.886-0.197-0.492-0.591-0.837-1.231-1.132s-1.28-0.394-1.871-0.394zM23.237 28.012l0.049-0.295c0.049-0.345 0.197-0.591 0.394-0.837 0.246-0.246 0.542-0.345 0.935-0.345s0.689 0.098 0.886 0.246c0.148 0.148 0.295 0.443 0.295 0.935v0.246l-2.56 0.049zM24.615 27.028c-0.246 0-0.394 0.049-0.542 0.246-0.098 0.098-0.148 0.148-0.197 0.246l1.428-0.049c-0.049-0.148-0.098-0.246-0.148-0.345-0.098-0.049-0.295-0.098-0.542-0.098z"></path>
</symbol>
<symbol id="burger" viewBox="0 0 50 32">
<path d="M48 4.571h-45.714c-1.371 0-2.286-0.914-2.286-2.286s0.914-2.286 2.286-2.286h45.714c1.371 0 2.286 0.914 2.286 2.286s-0.914 2.286-2.286 2.286z"></path>
<path d="M48 18.286h-45.714c-1.371 0-2.286-0.914-2.286-2.286s0.914-2.286 2.286-2.286h45.714c1.371 0 2.286 0.914 2.286 2.286s-0.914 2.286-2.286 2.286z"></path>
<path d="M48 32h-45.714c-1.371 0-2.286-0.914-2.286-2.286s0.914-2.286 2.286-2.286h45.714c1.371 0 2.286 0.914 2.286 2.286s-0.914 2.286-2.286 2.286z"></path>
</symbol>
<symbol id="close-button" viewBox="0 0 32 32">
<path d="M17.253 16l7.369-7.369c0.146-0.17 0.222-0.389 0.213-0.613s-0.101-0.436-0.26-0.594c-0.158-0.158-0.37-0.251-0.594-0.26s-0.442 0.067-0.612 0.213l-7.369 7.369-7.369-7.378c-0.167-0.167-0.394-0.261-0.631-0.261s-0.464 0.094-0.631 0.261c-0.167 0.167-0.261 0.394-0.261 0.631s0.094 0.464 0.261 0.631l7.378 7.369-7.378 7.369c-0.093 0.080-0.169 0.178-0.222 0.288s-0.083 0.23-0.088 0.353c-0.005 0.123 0.016 0.245 0.061 0.359s0.112 0.218 0.199 0.304c0.087 0.087 0.19 0.154 0.304 0.199s0.236 0.065 0.359 0.060c0.122-0.005 0.243-0.035 0.353-0.088s0.208-0.129 0.288-0.222l7.378-7.369 7.369 7.369c0.17 0.146 0.389 0.222 0.612 0.213s0.436-0.101 0.594-0.26c0.158-0.158 0.251-0.37 0.26-0.594s-0.067-0.442-0.213-0.612l-7.369-7.369z"></path>
</symbol>
<symbol id="forward-arrow" viewBox="0 0 20 32">
<path d="M5.818 31.418c-0.582 0-1.455-0.291-2.036-0.873-1.164-1.164-1.164-2.909 0-4.073l9.891-10.182-10.182-10.473c-1.164-1.164-1.164-2.909 0-4.073s2.909-1.164 4.073 0l11.636 12.218c1.164 1.164 1.164 2.909 0 4.073l-11.636 12.218c-0.873 0.873-1.164 1.164-1.745 1.164z"></path>
</symbol>
<symbol id="arrow" viewBox="0 0 82 32">
<path d="M81.414 17.414c0.781-0.781 0.781-2.047 0-2.828l-12.728-12.728c-0.781-0.781-2.047-0.781-2.828 0s-0.781 2.047 0 2.828l11.314 11.314-11.314 11.314c-0.781 0.781-0.781 2.047 0 2.828s2.047 0.781 2.828 0l12.728-12.728zM0 18h80v-4h-80v4z"></path>
</symbol>
<symbol id="hover-arrow" viewBox="0 0 102 32">
<path d="M101.414 17.414c0.781-0.781 0.781-2.047 0-2.828l-12.728-12.728c-0.781-0.781-2.047-0.781-2.828 0s-0.781 2.047 0 2.828l11.314 11.314-11.314 11.314c-0.781 0.781-0.781 2.047 0 2.828s2.047 0.781 2.828 0l12.728-12.728zM0 18h100v-4h-100v4z"></path>
</symbol>
<symbol id="dots-background-1200" viewBox="0 0 1199 385">
<path d="M447.2,26.5c3.2,0,5.9,2.8,5.9,6.2c-0.2,8.3-11.5,8.3-11.7,0C441.3,29.3,444,26.5,447.2,26.5z"></path>
<path d="M459.9,18.2c3.2,0,5.9,2.8,5.9,6.2c-0.2,8.3-11.5,8.3-11.7,0C454,21,456.7,18.2,459.9,18.2z"></path>
<path d="M474.5,8.8c3.2,0,5.9,2.8,5.9,6.2c-0.2,8.3-11.5,8.3-11.7,0C468.7,11.6,471.3,8.8,474.5,8.8z"></path>
<path d="M488.2,0.5c3.2,0,5.9,2.8,5.9,6.2c-0.2,8.3-11.5,8.3-11.7,0C482.3,3.3,485,0.5,488.2,0.5z"></path>
<path d="M428.6,48.4c3.2,0,5.9,2.8,5.9,6.2c-0.2,8.3-11.5,8.3-11.7,0C422.8,51.2,425.4,48.4,428.6,48.4z"></path>
<path d="M441.3,40c3.2,0,5.9,2.8,5.9,6.2c-0.2,8.3-11.5,8.3-11.7,0C435.5,42.8,438.1,40,441.3,40z"></path>
<path d="M456,30.7c3.2,0,5.9,2.8,5.9,6.2c-0.2,8.3-11.5,8.3-11.7,0C450.1,33.5,452.7,30.7,456,30.7z"></path>
<path d="M469.6,22.3c3.2,0,5.9,2.8,5.9,6.2c-0.2,8.3-11.5,8.3-11.7,0C463.8,25.1,466.4,22.3,469.6,22.3z"></path>
<path d="M400.3,49.4c3.2,0,5.9,2.8,5.9,6.2c-0.2,8.3-11.5,8.3-11.7,0C394.5,52.2,397.1,49.4,400.3,49.4z"></path>
<path d="M413,41.1c3.2,0,5.9,2.8,5.9,6.2c-0.2,8.3-11.5,8.3-11.7,0C407.2,43.9,409.8,41.1,413,41.1z"></path>
<path d="M427.7,31.7c3.2,0,5.9,2.8,5.9,6.2c-0.2,8.3-11.5,8.3-11.7,0C421.8,34.5,424.4,31.7,427.7,31.7z"></path>
<path d="M441.3,23.4c3.2,0,5.9,2.8,5.9,6.2c-0.2,8.3-11.5,8.3-11.7,0C435.5,26.2,438.1,23.4,441.3,23.4z"></path>
<path d="M384.7,73.3c3.2,0,5.9,2.8,5.9,6.2c-0.2,8.3-11.5,8.3-11.7,0C378.8,76.1,381.5,73.3,384.7,73.3z"></path>
<path d="M397.4,65c3.2,0,5.9,2.8,5.9,6.2c-0.2,8.3-11.5,8.3-11.7,0C391.5,67.8,394.2,65,397.4,65z"></path>
<path d="M412,55.6c3.2,0,5.9,2.8,5.9,6.2c-0.2,8.3-11.5,8.3-11.7,0C406.2,58.4,408.8,55.6,412,55.6z"></path>
<path d="M425.7,47.3c3.2,0,5.9,2.8,5.9,6.2c-0.2,8.3-11.5,8.3-11.7,0C419.9,50.1,422.5,47.3,425.7,47.3z"></path>
<path d="M373,95.2c3.2,0,5.9,2.8,5.9,6.2c-0.2,8.3-11.5,8.3-11.7,0C367.1,98,369.8,95.2,373,95.2z"></path>
<path d="M385.7,86.9c3.2,0,5.9,2.8,5.9,6.2c-0.2,8.3-11.5,8.3-11.7,0C379.8,89.7,382.4,86.9,385.7,86.9z"></path>
<path d="M400.3,77.5c3.2,0,5.9,2.8,5.9,6.2c-0.2,8.3-11.5,8.3-11.7,0C394.5,80.3,397.1,77.5,400.3,77.5z"></path>
<path d="M414,69.2c3.2,0,5.9,2.8,5.9,6.2c-0.2,8.3-11.5,8.3-11.7,0C408.1,72,410.8,69.2,414,69.2z"></path>
<path d="M364.2,117.1c3.2,0,5.9,2.8,5.8,6.3c-0.3,8.3-11.5,8.2-11.7,0C358.4,119.8,361,117.1,364.2,117.1z"></path>
<path d="M376.9,108.8c3.2,0,5.9,2.8,5.8,6.3c-0.3,8.3-11.5,8.2-11.7,0C371.1,111.5,373.7,108.7,376.9,108.8z"></path>
<path d="M391.6,99.4c3.2,0,5.9,2.8,5.8,6.3c-0.3,8.3-11.5,8.2-11.7,0C385.7,102.2,388.3,99.4,391.6,99.4z"></path>
<path d="M405.3,91.1c3.2,0,5.9,2.8,5.8,6.3c-0.3,8.3-11.5,8.2-11.7,0C399.4,93.9,402,91.1,405.3,91.1z"></path>
<path d="M240.2,154.6c3.2,0,5.9,2.8,5.8,6.3c-0.3,8.3-11.5,8.2-11.7,0C234.4,157.3,237,154.6,240.2,154.6z"></path>
<path d="M253.9,146.3c3.2,0,5.9,2.8,5.8,6.3c-0.3,8.3-11.5,8.2-11.7,0C248.1,149,250.7,146.3,253.9,146.3z"></path>
<path d="M325.2,126.4c3.2,0,5.9,2.8,5.8,6.3c-0.3,8.3-11.5,8.2-11.7,0C319.3,129.2,321.9,126.4,325.2,126.4z"></path>
<path d="M337.9,118.1c3.2,0,5.9,2.8,5.8,6.3c-0.3,8.3-11.5,8.2-11.7,0C332,120.9,334.6,118.1,337.9,118.1z"></path>
<path d="M352.5,108.8c3.2,0,5.9,2.8,5.8,6.3c-0.3,8.3-11.5,8.2-11.7,0C346.7,111.6,349.3,108.8,352.5,108.8z"></path>
<path d="M366.2,100.5c3.2,0,5.9,2.8,5.8,6.3c-0.3,8.3-11.5,8.2-11.7,0C360.3,103.3,363,100.5,366.2,100.5z"></path>
<path d="M241.2,135.8c3.2,0,5.9,2.8,5.9,6.2c-0.2,8.3-11.5,8.3-11.7,0C235.3,138.6,237.9,135.8,241.2,135.8z"></path>
<path d="M254.8,127.5c3.2,0,5.9,2.8,5.9,6.2c-0.2,8.3-11.5,8.3-11.7,0C249,130.2,251.6,127.5,254.8,127.5z"></path>
<path d="M273.4,118.1c3.2,0,5.9,2.8,5.9,6.2c-0.2,8.3-11.5,8.3-11.7,0C267.5,120.9,270.2,118.1,273.4,118.1z"></path>
<path d="M286.1,109.8c3.2,0,5.9,2.8,5.9,6.2c-0.2,8.3-11.5,8.3-11.7,0C280.2,112.6,282.9,109.8,286.1,109.8z"></path>
<path d="M300.7,100.4c3.2,0,5.9,2.8,5.9,6.2c-0.2,8.3-11.5,8.3-11.7,0C294.9,103.2,297.5,100.4,300.7,100.4z"></path>
<path d="M314.4,92.1c3.2,0,5.9,2.8,5.9,6.2c-0.2,8.3-11.5,8.3-11.7,0C308.5,94.9,311.2,92.1,314.4,92.1z"></path>
<path d="M298.8,130.6c3.2,0,5.9,2.8,5.9,6.2c-0.2,8.3-11.5,8.3-11.7,0C292.9,133.4,295.5,130.6,298.8,130.6z"></path>
<path d="M311.5,122.3c3.2,0,5.9,2.8,5.9,6.2c-0.2,8.3-11.5,8.3-11.7,0C305.6,125,308.2,122.3,311.5,122.3z"></path>
<path d="M326.1,112.9c3.2,0,5.9,2.8,5.9,6.2c-0.2,8.3-11.5,8.3-11.7,0C320.3,115.7,322.9,112.9,326.1,112.9z"></path>
<path d="M339.8,104.6c3.2,0,5.9,2.8,5.9,6.2c-0.2,8.3-11.5,8.3-11.7,0C333.9,107.4,336.6,104.6,339.8,104.6z"></path>
<path d="M300.7,113.9c3.2,0,5.9,2.8,5.9,6.2c-0.2,8.3-11.5,8.3-11.7,0C294.9,116.7,297.5,113.9,300.7,113.9z"></path>
<path d="M313.4,105.6c3.2,0,5.9,2.8,5.9,6.2c-0.2,8.3-11.5,8.3-11.7,0C307.6,108.4,310.2,105.6,313.4,105.6z"></path>
<path d="M328.1,96.2c3.2,0,5.9,2.8,5.9,6.2c-0.2,8.3-11.5,8.3-11.7,0C322.2,99,324.8,96.2,328.1,96.2z"></path>
<path d="M341.7,87.9c3.2,0,5.9,2.8,5.9,6.2c-0.2,8.3-11.5,8.3-11.7,0C335.9,90.7,338.5,87.9,341.7,87.9z"></path>
<path d="M247,120.2c3.2,0,5.9,2.8,5.9,6.2c-0.2,8.3-11.5,8.3-11.7,0C241.2,123,243.8,120.2,247,120.2z"></path>
<path d="M259.7,111.8c3.2,0,5.9,2.8,5.9,6.2c-0.2,8.3-11.5,8.3-11.7,0C253.9,114.6,256.5,111.8,259.7,111.8z"></path>
<path d="M274.4,102.5c3.2,0,5.9,2.8,5.9,6.2c-0.2,8.3-11.5,8.3-11.7,0C268.5,105.3,271.1,102.5,274.4,102.5z"></path>
<path d="M288,94.2c3.2,0,5.9,2.8,5.9,6.2c-0.2,8.3-11.5,8.3-11.7,0C282.2,96.9,284.8,94.2,288,94.2z"></path>
<path d="M5.9,352.2c3.2,0,5.9,2.8,5.9,6.2c-0.2,8.3-11.5,8.3-11.7,0C0,355,2.6,352.2,5.9,352.2z"></path>
<path d="M18.6,343.9c3.2,0,5.9,2.8,5.9,6.2c-0.2,8.3-11.5,8.3-11.7,0C12.7,346.7,15.3,343.9,18.6,343.9z"></path>
<path d="M33.2,334.5c3.2,0,5.9,2.8,5.9,6.2c-0.2,8.3-11.5,8.3-11.7,0C27.3,337.3,30,334.5,33.2,334.5z"></path>
<path d="M46.9,326.2c3.2,0,5.9,2.8,5.9,6.2c-0.2,8.3-11.5,8.3-11.7,0C41,329,43.6,326.2,46.9,326.2z"></path>
<path d="M80.1,355.4c3.2,0,5.9,2.8,5.9,6.2c-0.2,8.3-11.5,8.3-11.7,0C74.2,358.2,76.8,355.4,80.1,355.4z"></path>
<path d="M92.8,347c3.2,0,5.9,2.8,5.9,6.2c-0.2,8.3-11.5,8.3-11.7,0C86.9,349.8,89.5,347,92.8,347z"></path>
<path d="M107.4,337.7c3.2,0,5.9,2.8,5.9,6.2c-0.2,8.3-11.5,8.3-11.7,0C101.5,340.5,104.2,337.7,107.4,337.7z"></path>
<path d="M121.1,329.3c3.2,0,5.9,2.8,5.9,6.2c-0.2,8.3-11.5,8.3-11.7,0C115.2,332.1,117.8,329.3,121.1,329.3z"></path>
<path d="M110.3,351.2c3.2,0,5.9,2.8,5.9,6.2c-0.2,8.3-11.5,8.3-11.7,0C104.5,354,107.1,351.2,110.3,351.2z"></path>
<path d="M123,342.9c3.2,0,5.9,2.8,5.9,6.2c-0.2,8.3-11.5,8.3-11.7,0C117.2,345.7,119.8,342.9,123,342.9z"></path>
<path d="M137.7,333.5c3.2,0,5.9,2.8,5.9,6.2c-0.2,8.3-11.5,8.3-11.7,0C131.8,336.3,134.4,333.5,137.7,333.5z"></path>
<path d="M151.3,325.2c3.2,0,5.9,2.8,5.9,6.2c-0.2,8.3-11.5,8.3-11.7,0C145.5,328,148.1,325.2,151.3,325.2z"></path>
<path d="M166,312.7c3.2,0,5.9,2.8,5.9,6.2c-0.2,8.3-11.5,8.3-11.7,0C160.1,315.5,162.8,312.7,166,312.7z"></path>
<path d="M134.7,320c3.2,0,5.9,2.8,5.9,6.2c-0.2,8.3-11.5,8.3-11.7,0C128.9,322.8,131.5,320,134.7,320z"></path>
<path d="M1024.3,371c3.2,0,5.9,2.8,5.9,6.2c-0.2,8.3-11.5,8.3-11.7,0C1018.4,373.8,1021,371,1024.3,371z"></path>
<path d="M1036.9,362.6c3.2,0,5.9,2.8,5.9,6.2c-0.2,8.3-11.5,8.3-11.7,0C1031.1,365.4,1033.7,362.6,1036.9,362.6z"></path>
<path d="M1051.6,353.3c3.2,0,5.9,2.8,5.9,6.2c-0.2,8.3-11.5,8.3-11.7,0C1045.7,356.1,1048.4,353.3,1051.6,353.3z"></path>
<path d="M1065.3,344.9c3.2,0,5.9,2.8,5.9,6.2c-0.2,8.3-11.5,8.3-11.7,0C1059.4,347.7,1062,344.9,1065.3,344.9z"></path>
<path d="M1057.4,366.8c3.2,0,5.9,2.8,5.9,6.2c-0.2,8.3-11.5,8.3-11.7,0C1051.6,369.6,1054.2,366.8,1057.4,366.8z"></path>
<path d="M1070.1,358.5c3.2,0,5.9,2.8,5.9,6.2c-0.2,8.3-11.5,8.3-11.7,0C1064.3,361.3,1066.9,358.5,1070.1,358.5z"></path>
<path d="M1084.8,349.1c3.2,0,5.9,2.8,5.9,6.2c-0.2,8.3-11.5,8.3-11.7,0C1078.9,351.9,1081.5,349.1,1084.8,349.1z"></path>
<path d="M1098.4,340.8c3.2,0,5.9,2.8,5.9,6.2c-0.2,8.3-11.5,8.3-11.7,0C1092.6,343.6,1095.2,340.8,1098.4,340.8z"></path>
<path d="M1085.8,363.7c3.2,0,5.9,2.8,5.9,6.2c-0.2,8.3-11.5,8.3-11.7,0C1079.9,366.5,1082.5,363.7,1085.8,363.7z"></path>
<path d="M1098.4,355.4c3.2,0,5.9,2.8,5.9,6.2c-0.2,8.3-11.5,8.3-11.7,0C1092.6,358.2,1095.2,355.4,1098.4,355.4z"></path>
<path d="M1113.1,346c3.2,0,5.9,2.8,5.9,6.2c-0.2,8.3-11.5,8.3-11.7,0C1107.2,348.8,1109.9,346,1113.1,346z"></path>
<path d="M1126.8,337.7c3.2,0,5.9,2.8,5.9,6.2c-0.2,8.3-11.5,8.3-11.7,0C1120.9,340.5,1123.5,337.7,1126.8,337.7z"></path>
<path d="M1113.1,359.5c3.2,0,5.9,2.8,5.9,6.2c-0.2,8.3-11.5,8.3-11.7,0C1107.2,362.3,1109.9,359.5,1113.1,359.5z"></path>
<path d="M1125.8,351.2c3.2,0,5.9,2.8,5.9,6.2c-0.2,8.3-11.5,8.3-11.7,0C1119.9,354,1122.6,351.2,1125.8,351.2z"></path>
<path d="M1140.4,341.8c3.2,0,5.9,2.8,5.9,6.2c-0.2,8.3-11.5,8.3-11.7,0C1134.6,344.6,1137.2,341.8,1140.4,341.8z"></path>
<path d="M1154.1,333.5c3.2,0,5.9,2.8,5.9,6.2c-0.2,8.3-11.5,8.3-11.7,0C1148.3,336.3,1150.9,333.5,1154.1,333.5z"></path>
<path d="M1121.9,371c3.2,0,5.9,2.8,5.9,6.2c-0.2,8.3-11.5,8.3-11.7,0C1116,373.8,1118.7,371,1121.9,371z"></path>
<path d="M1134.6,362.6c3.2,0,5.9,2.8,5.9,6.2c-0.2,8.3-11.5,8.3-11.7,0C1128.7,365.4,1131.3,362.6,1134.6,362.6z"></path>
<path d="M1152.2,372c3.2,0,5.9,2.8,5.9,6.2c-0.2,8.3-11.5,8.3-11.7,0C1146.3,374.8,1148.9,372,1152.2,372z"></path>
<path d="M1149.2,353.3c3.2,0,5.9,2.8,5.9,6.2c-0.2,8.3-11.5,8.3-11.7,0C1143.4,356.1,1146,353.3,1149.2,353.3z"></path>
<path d="M1166.8,362.6c3.2,0,5.9,2.8,5.9,6.2c-0.2,8.3-11.5,8.3-11.7,0C1160.9,365.4,1163.6,362.6,1166.8,362.6z"></path>
<path d="M1180.5,372c3.2,0,5.9,2.8,5.9,6.2c-0.2,8.3-11.5,8.3-11.7,0C1174.6,374.8,1177.2,372,1180.5,372z"></path>
<path d="M1162.9,344.9c3.2,0,5.9,2.8,5.9,6.2c-0.2,8.3-11.5,8.3-11.7,0C1157,347.7,1159.7,344.9,1162.9,344.9z"></path>
<path d="M1180.5,354.3c3.2,0,5.9,2.8,5.9,6.2c-0.2,8.3-11.5,8.3-11.7,0C1174.6,357.1,1177.2,354.3,1180.5,354.3z"></path>
<path d="M1194.1,363.7c3.2,0,5.9,2.8,5.9,6.2c-0.2,8.3-11.5,8.3-11.7,0C1188.3,366.5,1190.9,363.7,1194.1,363.7z"></path>
<path d="M964.7,302.3c3.2,0,5.9,2.8,5.9,6.2c-0.2,8.3-11.5,8.3-11.7,0C958.8,305.1,961.5,302.3,964.7,302.3z"></path>
<path d="M977.4,294c3.2,0,5.9,2.8,5.9,6.2c-0.2,8.3-11.5,8.3-11.7,0C971.5,296.8,974.1,294,977.4,294z"></path>
<path d="M992,284.6c3.2,0,5.9,2.8,5.9,6.2c-0.2,8.3-11.5,8.3-11.7,0C986.2,287.4,988.8,284.6,992,284.6z"></path>
<path d="M1005.7,276.3c3.2,0,5.9,2.8,5.9,6.2c-0.2,8.3-11.5,8.3-11.7,0C999.8,279.1,1002.5,276.3,1005.7,276.3z"></path>
<path d="M940.3,301.2c3.2,0,5.9,2.8,5.9,6.2c-0.2,8.3-11.5,8.3-11.7,0C934.4,304,937,301.2,940.3,301.2z"></path>
<path d="M953,292.9c3.2,0,5.9,2.8,5.9,6.2c-0.2,8.3-11.5,8.3-11.7,0C947.1,295.7,949.7,292.9,953,292.9z"></path>
<path d="M967.6,283.6c3.2,0,5.9,2.8,5.9,6.2c-0.2,8.3-11.5,8.3-11.7,0C961.8,286.3,964.4,283.6,967.6,283.6z"></path>
<path d="M981.3,275.2c3.2,0,5.9,2.8,5.9,6.2c-0.2,8.3-11.5,8.3-11.7,0C975.4,278,978,275.2,981.3,275.2z"></path>
<path d="M995,371c3.2,0,5.9,2.8,5.9,6.2c-0.2,8.3-11.5,8.3-11.7,0C989.1,373.8,991.7,371,995,371z"></path>
<path d="M1007.7,362.6c3.2,0,5.9,2.8,5.9,6.2c-0.2,8.3-11.5,8.3-11.7,0C1001.8,365.4,1004.4,362.6,1007.7,362.6z"></path>
<path d="M1022.3,353.3c3.2,0,5.9,2.8,5.9,6.2c-0.2,8.3-11.5,8.3-11.7,0C1016.4,356.1,1019.1,353.3,1022.3,353.3z"></path>
<path d="M1036,344.9c3.2,0,5.9,2.8,5.9,6.2c-0.2,8.3-11.5,8.3-11.7,0C1030.1,347.7,1032.7,344.9,1036,344.9z"></path>
<path d="M979.3,364.7c3.2,0,5.9,2.8,5.9,6.2c-0.2,8.3-11.5,8.3-11.7,0C973.5,367.5,976.1,364.7,979.3,364.7z"></path>
<path d="M992,356.4c3.2,0,5.9,2.8,5.9,6.2c-0.2,8.3-11.5,8.3-11.7,0C986.2,359.2,988.8,356.4,992,356.4z"></path>
<path d="M1006.7,347c3.2,0,5.9,2.8,5.9,6.2c-0.2,8.3-11.5,8.3-11.7,0C1000.8,349.8,1003.4,347,1006.7,347z"></path>
<path d="M1020.3,338.7c3.2,0,5.9,2.8,5.9,6.2c-0.2,8.3-11.5,8.3-11.7,0C1014.5,341.5,1017.1,338.7,1020.3,338.7z"></path>
<path d="M985.2,342.9c3.2,0,5.9,2.8,5.9,6.2c-0.2,8.3-11.5,8.3-11.7,0C979.3,345.7,982,342.9,985.2,342.9z"></path>
<path d="M997.9,334.5c3.2,0,5.9,2.8,5.9,6.2c-0.2,8.3-11.5,8.3-11.7,0C992,337.3,994.6,334.5,997.9,334.5z"></path>
<path d="M1012.5,325.2c3.2,0,5.9,2.8,5.9,6.2c-0.2,8.3-11.5,8.3-11.7,0C1006.7,328,1009.3,325.2,1012.5,325.2z"></path>
<path d="M1026.2,316.9c3.2,0,5.9,2.8,5.9,6.2c-0.2,8.3-11.5,8.3-11.7,0C1020.3,319.6,1023,316.9,1026.2,316.9z"></path>
<path d="M679.3,298.1c7.8-0.9,9.3,10.9,1.8,12.3C673.3,311.4,671.8,299.6,679.3,298.1z"></path>
<path d="M690.7,287.8c7.8-0.9,9.3,10.9,1.8,12.3C684.6,301.1,683.1,289.3,690.7,287.8z"></path>
<path d="M703.8,276.2c7.8-0.9,9.3,10.9,1.8,12.3C697.8,289.5,696.3,277.7,703.8,276.2z"></path>
<path d="M716.1,265.8c7.8-0.9,9.3,10.9,1.8,12.3C710.1,279.1,708.6,267.2,716.1,265.8z"></path>
<path d="M985.2,306.4c3.2,0,5.9,2.8,5.9,6.2c-0.2,8.3-11.5,8.3-11.7,0C979.3,309.2,982,306.4,985.2,306.4z"></path>
<path d="M997.9,298.1c3.2,0,5.9,2.8,5.9,6.2c-0.2,8.3-11.5,8.3-11.7,0C992,300.9,994.6,298.1,997.9,298.1z"></path>
<path d="M1012.5,288.8c3.2,0,5.9,2.8,5.9,6.2c-0.2,8.3-11.5,8.3-11.7,0C1006.7,291.5,1009.3,288.8,1012.5,288.8z"></path>
<path d="M1026.2,280.4c3.2,0,5.9,2.8,5.9,6.2c-0.2,8.3-11.5,8.3-11.7,0C1020.3,283.2,1023,280.4,1026.2,280.4z"></path>
<path d="M982.3,326.2c3.2,0,5.9,2.8,5.9,6.2c-0.2,8.3-11.5,8.3-11.7,0C976.4,329,979,326.2,982.3,326.2z"></path>
<path d="M995,317.9c3.2,0,5.9,2.8,5.9,6.2c-0.2,8.3-11.5,8.3-11.7,0C989.1,320.7,991.7,317.9,995,317.9z"></path>
<path d="M1009.6,308.5c3.2,0,5.9,2.8,5.9,6.2c-0.2,8.3-11.5,8.3-11.7,0C1003.7,311.3,1006.4,308.5,1009.6,308.5z"></path>
<path d="M1023.3,300.2c3.2,0,5.9,2.8,5.9,6.2c-0.2,8.3-11.5,8.3-11.7,0C1017.4,303,1020,300.2,1023.3,300.2z"></path>
<path d="M920.7,296c3.2,0,5.9,2.8,5.9,6.2c-0.2,8.3-11.5,8.3-11.7,0C914.9,298.8,917.5,296,920.7,296z"></path>
<path d="M933.4,287.7c3.2,0,5.9,2.8,5.9,6.2c-0.2,8.3-11.5,8.3-11.7,0C927.6,290.5,930.2,287.7,933.4,287.7z"></path>
<path d="M948.1,278.3c3.2,0,5.9,2.8,5.9,6.2c-0.2,8.3-11.5,8.3-11.7,0C942.2,281.1,944.9,278.3,948.1,278.3z"></path>
<path d="M947.1,308.5c3.2,0,5.9-2.8,5.9-6.2c-0.2-8.3-11.5-8.3-11.7,0C941.3,305.7,943.9,308.5,947.1,308.5z"></path>
<path d="M52.7,354.3c3.2,0,5.9,2.8,5.9,6.2c-0.2,8.3-11.5,8.3-11.7,0C46.9,357.1,49.5,354.3,52.7,354.3z"></path>
<path d="M65.4,346c3.2,0,5.9,2.8,5.9,6.2c-0.2,8.3-11.5,8.3-11.7,0C59.6,348.8,62.2,346,65.4,346z"></path>
<path d="M80.1,336.6c3.2,0,5.9,2.8,5.9,6.2c-0.2,8.3-11.5,8.3-11.7,0C74.2,339.4,76.8,336.6,80.1,336.6z"></path>
<path d="M93.7,328.3c3.2,0,5.9,2.8,5.9,6.2c-0.2,8.3-11.5,8.3-11.7,0C87.9,331.1,90.5,328.3,93.7,328.3z"></path>
<path d="M28.3,353.3c3.2,0,5.9,2.8,5.9,6.2c-0.2,8.3-11.5,8.3-11.7,0C22.5,356.1,25.1,353.3,28.3,353.3z"></path>
<path d="M41,344.9c3.2,0,5.9,2.8,5.9,6.2c-0.2,8.3-11.5,8.3-11.7,0C35.2,347.7,37.8,344.9,41,344.9z"></path>
<path d="M55.7,335.6c3.2,0,5.9,2.8,5.9,6.2c-0.2,8.3-11.5,8.3-11.7,0C49.8,338.4,52.4,335.6,55.7,335.6z"></path>
<path d="M69.3,327.3c3.2,0,5.9,2.8,5.9,6.2c-0.2,8.3-11.5,8.3-11.7,0C63.5,330.1,66.1,327.3,69.3,327.3z"></path>
<path d="M447.2,50.4c3.2,0,5.9,2.8,5.9,6.2c-0.2,8.3-11.5,8.3-11.7,0C441.3,53.2,444,50.4,447.2,50.4z"></path>
<path d="M459.9,42.1c3.2,0,5.9,2.8,5.9,6.2c-0.2,8.3-11.5,8.3-11.7,0C454,44.9,456.7,42.1,459.9,42.1z"></path>
<path d="M474.5,32.8c3.2,0,5.9,2.8,5.9,6.2c-0.2,8.3-11.5,8.3-11.7,0C468.7,35.6,471.3,32.8,474.5,32.8z"></path>
<path d="M488.2,24.4c3.2,0,5.9,2.8,5.9,6.2c-0.2,8.3-11.5,8.3-11.7,0C482.3,27.2,485,24.4,488.2,24.4z"></path>
<path d="M445.2,93.1c3.2,0,5.9,2.8,5.9,6.2c-0.2,8.3-11.5,8.3-11.7,0C439.4,95.9,442,93.1,445.2,93.1z"></path>
<path d="M457.9,84.8c3.2,0,5.9,2.8,5.9,6.2c-0.2,8.3-11.5,8.3-11.7,0C452.1,87.6,454.7,84.8,457.9,84.8z"></path>
<path d="M472.6,75.4c3.2,0,5.9,2.8,5.9,6.2c-0.2,8.3-11.5,8.3-11.7,0C466.7,78.2,469.3,75.4,472.6,75.4z"></path>
<path d="M486.2,67.1c3.2,0,5.9,2.8,5.9,6.2c-0.2,8.3-11.5,8.3-11.7,0C480.4,69.9,483,67.1,486.2,67.1z"></path>
<path d="M448.2,71.3c3.2,0,5.9,2.8,5.9,6.2c-0.2,8.3-11.5,8.3-11.7,0C442.3,74.1,444.9,71.3,448.2,71.3z"></path>
<path d="M460.9,62.9c3.2,0,5.9,2.8,5.9,6.2c-0.2,8.3-11.5,8.3-11.7,0C455,65.7,457.6,62.9,460.9,62.9z"></path>
<path d="M475.5,53.6c3.2,0,5.9,2.8,5.9,6.2c-0.2,8.3-11.5,8.3-11.7,0C469.7,56.4,472.3,53.6,475.5,53.6z"></path>
<path d="M489.2,45.2c3.2,0,5.9,2.8,5.9,6.2c-0.2,8.3-11.5,8.3-11.7,0C483.3,48,485.9,45.2,489.2,45.2z"></path>
<path d="M446.2,113.9c3.2,0,5.9,2.8,5.9,6.2c-0.2,8.3-11.5,8.3-11.7,0C440.4,116.7,443,113.9,446.2,113.9z"></path>
<path d="M458.9,105.6c3.2,0,5.9,2.8,5.9,6.2c-0.2,8.3-11.5,8.3-11.7,0C453.1,108.4,455.7,105.6,458.9,105.6z"></path>
<path d="M473.6,96.2c3.2,0,5.9,2.8,5.9,6.2c-0.2,8.3-11.5,8.3-11.7,0C467.7,99,470.3,96.2,473.6,96.2z"></path>
<path d="M487.2,87.9c3.2,0,5.9,2.8,5.9,6.2c-0.2,8.3-11.5,8.3-11.7,0C481.4,90.7,484,87.9,487.2,87.9z"></path>
<path d="M452.1,128.5c3.2,0,5.9,2.8,5.9,6.2c-0.2,8.3-11.5,8.3-11.7,0C446.2,131.3,448.8,128.5,452.1,128.5z"></path>
<path d="M464.8,120.2c3.2,0,5.9,2.8,5.9,6.2c-0.2,8.3-11.5,8.3-11.7,0C458.9,123,461.5,120.2,464.8,120.2z"></path>
<path d="M479.4,110.8c3.2,0,5.9,2.8,5.9,6.2c-0.2,8.3-11.5,8.3-11.7,0C473.6,113.6,476.2,110.8,479.4,110.8z"></path>
<path d="M493.1,102.5c3.2,0,5.9,2.8,5.9,6.2c-0.2,8.3-11.5,8.3-11.7,0C487.2,105.3,489.8,102.5,493.1,102.5z"></path>
<path d="M464.8,139.9c3.2,0,5.9,2.8,5.9,6.2c-0.2,8.3-11.5,8.3-11.7,0C458.9,142.7,461.5,139.9,464.8,139.9z"></path>
<path d="M477.5,131.6c3.2,0,5.9,2.8,5.9,6.2c-0.2,8.3-11.5,8.3-11.7,0C471.6,134.4,474.2,131.6,477.5,131.6z"></path>
<path d="M492.1,122.3c3.2,0,5.9,2.8,5.9,6.2c-0.2,8.3-11.5,8.3-11.7,0C486.2,125,488.9,122.3,492.1,122.3z"></path>
<path d="M505.8,113.9c3.2,0,5.9,2.8,5.9,6.2c-0.2,8.3-11.5,8.3-11.7,0C499.9,116.7,502.5,113.9,505.8,113.9z"></path>
<path d="M481.4,149.3c3.2,0,5.9,2.8,5.9,6.2c-0.2,8.3-11.5,8.3-11.7,0C475.5,152.1,478.1,149.3,481.4,149.3z"></path>
<path d="M494.1,141c3.2,0,5.9,2.8,5.9,6.2c-0.2,8.3-11.5,8.3-11.7,0C488.2,143.8,490.8,141,494.1,141z"></path>
<path d="M508.7,131.6c3.2,0,5.9,2.8,5.9,6.2c-0.2,8.3-11.5,8.3-11.7,0C502.8,134.4,505.5,131.6,508.7,131.6z"></path>
<path d="M522.4,123.3c3.2,0,5.9,2.8,5.9,6.2c-0.2,8.3-11.5,8.3-11.7,0C516.5,126.1,519.1,123.3,522.4,123.3z"></path>
<path d="M500.9,151.4c3.2,0,5.9,2.8,5.9,6.2c-0.2,8.3-11.5,8.3-11.7,0C495,154.2,497.7,151.4,500.9,151.4z"></path>
<path d="M513.6,143.1c3.2,0,5.9,2.8,5.9,6.2c-0.2,8.3-11.5,8.3-11.7,0C507.7,145.9,510.4,143.1,513.6,143.1z"></path>
<path d="M528.2,133.7c3.2,0,5.9,2.8,5.9,6.2c-0.2,8.3-11.5,8.3-11.7,0C522.4,136.5,525,133.7,528.2,133.7z"></path>
<path d="M541.9,125.4c3.2,0,5.9,2.8,5.9,6.2c-0.2,8.3-11.5,8.3-11.7,0C536,128.2,538.7,125.4,541.9,125.4z"></path>
<path d="M520.4,155.6c3.2,0,5.9,2.8,5.9,6.2c-0.2,8.3-11.5,8.3-11.7,0C514.6,158.3,517.2,155.6,520.4,155.6z"></path>
<path d="M533.1,147.2c3.2,0,5.9,2.8,5.9,6.2c-0.2,8.3-11.5,8.3-11.7,0C527.3,150,529.9,147.2,533.1,147.2z"></path>
<path d="M547.8,137.9c3.2,0,5.9,2.8,5.9,6.2c-0.2,8.3-11.5,8.3-11.7,0C541.9,140.7,544.5,137.9,547.8,137.9z"></path>
<path d="M561.4,129.5c3.2,0,5.9,2.8,5.9,6.2c-0.2,8.3-11.5,8.3-11.7,0C555.6,132.3,558.2,129.5,561.4,129.5z"></path>
<path d="M515.5,175.3c3.2,0,5.9,2.8,5.9,6.2c-0.2,8.3-11.5,8.3-11.7,0C509.7,178.1,512.3,175.3,515.5,175.3z"></path>
<path d="M528.2,167c3.2,0,5.9,2.8,5.9,6.2c-0.2,8.3-11.5,8.3-11.7,0C522.4,169.8,525,167,528.2,167z"></path>
<path d="M542.9,157.6c3.2,0,5.9,2.8,5.9,6.2c-0.2,8.3-11.5,8.3-11.7,0C537,160.4,539.6,157.6,542.9,157.6z"></path>
<path d="M556.5,149.3c3.2,0,5.9,2.8,5.9,6.2c-0.2,8.3-11.5,8.3-11.7,0C550.7,152.1,553.3,149.3,556.5,149.3z"></path>
<path d="M513.6,194.1c3.2,0,5.9,2.8,5.9,6.2c-0.2,8.3-11.5,8.3-11.7,0C507.7,196.9,510.4,194.1,513.6,194.1z"></path>
<path d="M526.3,185.7c3.2,0,5.9,2.8,5.9,6.2c-0.2,8.3-11.5,8.3-11.7,0C520.4,188.5,523,185.7,526.3,185.7z"></path>
<path d="M540.9,176.4c3.2,0,5.9,2.8,5.9,6.2c-0.2,8.3-11.5,8.3-11.7,0C535.1,179.2,537.7,176.4,540.9,176.4z"></path>
<path d="M554.6,168c3.2,0,5.9,2.8,5.9,6.2c-0.2,8.3-11.5,8.3-11.7,0C548.7,170.8,551.4,168,554.6,168z"></path>
<path d="M506.8,218c3.2,0,5.9,2.8,5.9,6.2c-0.2,8.3-11.5,8.3-11.7,0C500.9,220.8,503.5,218,506.8,218z"></path>
<path d="M519.4,209.7c3.2,0,5.9,2.8,5.9,6.2c-0.2,8.3-11.5,8.3-11.7,0C513.6,212.5,516.2,209.7,519.4,209.7z"></path>
<path d="M534.1,200.3c3.2,0,5.9,2.8,5.9,6.2c-0.2,8.3-11.5,8.3-11.7,0C528.2,203.1,530.9,200.3,534.1,200.3z"></path>
<path d="M547.8,192c3.2,0,5.9,2.8,5.9,6.2c-0.2,8.3-11.5,8.3-11.7,0C541.9,194.8,544.5,192,547.8,192z"></path>
<path d="M503.8,238.8c3.2,0,5.9,2.8,5.9,6.2c-0.2,8.3-11.5,8.3-11.7,0C498,241.6,500.6,238.8,503.8,238.8z"></path>
<path d="M516.5,230.5c3.2,0,5.9,2.8,5.9,6.2c-0.2,8.3-11.5,8.3-11.7,0C510.7,233.3,513.3,230.5,516.5,230.5z"></path>
<path d="M531.2,221.1c3.2,0,5.9,2.8,5.9,6.2c-0.2,8.3-11.5,8.3-11.7,0C525.3,223.9,527.9,221.1,531.2,221.1z"></path>
<path d="M544.8,212.8c3.2,0,5.9,2.8,5.9,6.2c-0.2,8.3-11.5,8.3-11.7,0C539,215.6,541.6,212.8,544.8,212.8z"></path>
<path d="M499.9,260.7c3.2,0,5.9,2.8,5.9,6.2c-0.2,8.3-11.5,8.3-11.7,0C494.1,263.5,496.7,260.7,499.9,260.7z"></path>
<path d="M512.6,252.3c3.2,0,5.9,2.8,5.9,6.2c-0.2,8.3-11.5,8.3-11.7,0C506.8,255.1,509.4,252.3,512.6,252.3z"></path>
<path d="M527.3,243c3.2,0,5.9,2.8,5.9,6.2c-0.2,8.3-11.5,8.3-11.7,0C521.4,245.8,524,243,527.3,243z"></path>
<path d="M540.9,234.6c3.2,0,5.9,2.8,5.9,6.2c-0.2,8.3-11.5,8.3-11.7,0C535.1,237.4,537.7,234.6,540.9,234.6z"></path>
<path d="M498,278.3c3.2,0,5.9,2.8,5.9,6.2c-0.2,8.3-11.5,8.3-11.7,0C492.1,281.1,494.7,278.3,498,278.3z"></path>
<path d="M510.7,270c3.2,0,5.9,2.8,5.9,6.2c-0.2,8.3-11.5,8.3-11.7,0C504.8,272.8,507.4,270,510.7,270z"></path>
<path d="M525.3,260.7c3.2,0,5.9,2.8,5.9,6.2c-0.2,8.3-11.5,8.3-11.7,0C519.4,263.5,522.1,260.7,525.3,260.7z"></path>
<path d="M539,252.3c3.2,0,5.9,2.8,5.9,6.2c-0.2,8.3-11.5,8.3-11.7,0C533.1,255.1,535.7,252.3,539,252.3z"></path>
<path d="M496,297.1c3.2,0,5.9,2.8,5.9,6.2c-0.2,8.3-11.5,8.3-11.7,0C490.2,299.9,492.8,297.1,496,297.1z"></path>
<path d="M508.7,288.8c3.2,0,5.9,2.8,5.9,6.2c-0.2,8.3-11.5,8.3-11.7,0C502.8,291.5,505.5,288.8,508.7,288.8z"></path>
<path d="M523.4,279.4c3.2,0,5.9,2.8,5.9,6.2c-0.2,8.3-11.5,8.3-11.7,0C517.5,282.2,520.1,279.4,523.4,279.4z"></path>
<path d="M537,271.1c3.2,0,5.9,2.8,5.9,6.2c-0.2,8.3-11.5,8.3-11.7,0C531.2,273.9,533.8,271.1,537,271.1z"></path>
<path d="M501.9,312.7c3.2,0,5.9,2.8,5.9,6.2c-0.2,8.3-11.5,8.3-11.7,0C496,315.5,498.6,312.7,501.9,312.7z"></path>
<path d="M514.6,304.4c3.2,0,5.9,2.8,5.9,6.2c-0.2,8.3-11.5,8.3-11.7,0C508.7,307.2,511.3,304.4,514.6,304.4z"></path>
<path d="M529.2,295c3.2,0,5.9,2.8,5.9,6.2c-0.2,8.3-11.5,8.3-11.7,0C523.4,297.8,526,295,529.2,295z"></path>
<path d="M542.9,286.7c3.2,0,5.9,2.8,5.9,6.2c-0.2,8.3-11.5,8.3-11.7,0C537,289.5,539.6,286.7,542.9,286.7z"></path>
<path d="M516.5,321c3.2,0,5.9,2.8,5.9,6.2c-0.2,8.3-11.5,8.3-11.7,0C510.7,323.8,513.3,321,516.5,321z"></path>
<path d="M529.2,312.7c3.2,0,5.9,2.8,5.9,6.2c-0.2,8.3-11.5,8.3-11.7,0C523.4,315.5,526,312.7,529.2,312.7z"></path>
<path d="M543.9,303.3c3.2,0,5.9,2.8,5.9,6.2c-0.2,8.3-11.5,8.3-11.7,0C538,306.1,540.6,303.3,543.9,303.3z"></path>
<path d="M557.5,295c3.2,0,5.9,2.8,5.9,6.2c-0.2,8.3-11.5,8.3-11.7,0C551.7,297.8,554.3,295,557.5,295z"></path>
<path d="M533.1,326.2c3.2,0,5.9,2.8,5.9,6.2c-0.2,8.3-11.5,8.3-11.7,0C527.3,329,529.9,326.2,533.1,326.2z"></path>
<path d="M545.8,317.9c3.2,0,5.9,2.8,5.9,6.2c-0.2,8.3-11.5,8.3-11.7,0C540,320.7,542.6,317.9,545.8,317.9z"></path>
<path d="M560.5,308.5c3.2,0,5.9,2.8,5.9,6.2c-0.2,8.3-11.5,8.3-11.7,0C554.6,311.3,557.2,308.5,560.5,308.5z"></path>
<path d="M574.1,300.2c3.2,0,5.9,2.8,5.9,6.2c-0.2,8.3-11.5,8.3-11.7,0C568.3,303,570.9,300.2,574.1,300.2z"></path>
<path d="M554.6,327.3c3.2,0,5.9,2.8,5.9,6.2c-0.2,8.3-11.5,8.3-11.7,0C548.7,330.1,551.4,327.3,554.6,327.3z"></path>
<path d="M567.3,318.9c3.2,0,5.9,2.8,5.9,6.2c-0.2,8.3-11.5,8.3-11.7,0C561.4,321.7,564.1,318.9,567.3,318.9z"></path>
<path d="M581.9,309.6c3.2,0,5.9,2.8,5.9,6.2c-0.2,8.3-11.5,8.3-11.7,0C576.1,312.4,578.7,309.6,581.9,309.6z"></path>
<path d="M595.6,301.2c3.2,0,5.9,2.8,5.9,6.2c-0.2,8.3-11.5,8.3-11.7,0C589.7,304,592.4,301.2,595.6,301.2z"></path>
<path d="M580,327.3c3.2,0,5.9,2.8,5.9,6.2c-0.2,8.3-11.5,8.3-11.7,0C574.1,330.1,576.7,327.3,580,327.3z"></path>
<path d="M592.7,318.9c3.2,0,5.9,2.8,5.9,6.2c-0.2,8.3-11.5,8.3-11.7,0C586.8,321.7,589.4,318.9,592.7,318.9z"></path>
<path d="M607.3,309.6c3.2,0,5.9,2.8,5.9,6.2c-0.2,8.3-11.5,8.3-11.7,0C601.5,312.4,604.1,309.6,607.3,309.6z"></path>
<path d="M621,301.2c3.2,0,5.9,2.8,5.9,6.2c-0.2,8.3-11.5,8.3-11.7,0C615.1,304,617.8,301.2,621,301.2z"></path>
<path d="M601.5,326.2c3.2,0,5.9,2.8,5.9,6.2c-0.2,8.3-11.5,8.3-11.7,0C595.6,329,598.2,326.2,601.5,326.2z"></path>
<path d="M614.2,317.9c3.2,0,5.9,2.8,5.9,6.2c-0.2,8.3-11.5,8.3-11.7,0C608.3,320.7,610.9,317.9,614.2,317.9z"></path>
<path d="M628.8,308.5c3.2,0,5.9,2.8,5.9,6.2c-0.2,8.3-11.5,8.3-11.7,0C622.9,311.3,625.6,308.5,628.8,308.5z"></path>
<path d="M642.5,300.2c3.2,0,5.9,2.8,5.9,6.2c-0.2,8.3-11.5,8.3-11.7,0C636.6,303,639.2,300.2,642.5,300.2z"></path>
<path d="M625.9,325.2c3.2,0,5.9,2.8,5.9,6.2c-0.2,8.3-11.5,8.3-11.7,0C620,328,622.6,325.2,625.9,325.2z"></path>
<path d="M638.6,316.9c3.2,0,5.9,2.8,5.9,6.2c-0.2,8.3-11.5,8.3-11.7,0C632.7,319.6,635.3,316.9,638.6,316.9z"></path>
<path d="M653.2,307.5c3.2,0,5.9,2.8,5.9,6.2c-0.2,8.3-11.5,8.3-11.7,0C647.4,310.3,650,307.5,653.2,307.5z"></path>
<path d="M666.9,299.2c3.2,0,5.9,2.8,5.9,6.2c-0.2,8.3-11.5,8.3-11.7,0C661,302,663.6,299.2,666.9,299.2z"></path>
<path d="M648.3,298.1c3.2,0,5.9,2.8,5.9,6.2c-0.2,8.3-11.5,8.3-11.7,0C642.5,300.9,645.1,298.1,648.3,298.1z"></path>
<path d="M661,289.8c3.2,0,5.9,2.8,5.9,6.2c-0.2,8.3-11.5,8.3-11.7,0C655.2,292.6,657.8,289.8,661,289.8z"></path>
<path d="M675.7,280.4c3.2,0,5.9,2.8,5.9,6.2c-0.2,8.3-11.5,8.3-11.7,0C669.8,283.2,672.4,280.4,675.7,280.4z"></path>
<path d="M689.3,272.1c3.2,0,5.9,2.8,5.9,6.2c-0.2,8.3-11.5,8.3-11.7,0C683.5,274.9,686.1,272.1,689.3,272.1z"></path>
</symbol>
<symbol id="dots-background-768" viewBox="0 0 361 32">
<path d="M309.949 29.706c0 0.998-0.789 1.808-1.762 1.808s-1.762-0.809-1.762-1.808c0-0.998 0.789-1.808 1.762-1.808s1.762 0.809 1.762 1.808z"></path>
<path d="M313.767 27.295c0 0.998-0.789 1.808-1.762 1.808s-1.762-0.809-1.762-1.808c0-0.998 0.789-1.808 1.762-1.808s1.762 0.809 1.762 1.808z"></path>
<path d="M318.172 24.583c0 0.998-0.789 1.808-1.762 1.808s-1.762-0.809-1.762-1.808c0-0.998 0.789-1.808 1.762-1.808s1.762 0.809 1.762 1.808z"></path>
<path d="M322.284 22.172c0 0.998-0.789 1.808-1.762 1.808s-1.762-0.809-1.762-1.808c0-0.998 0.789-1.808 1.762-1.808s1.762 0.809 1.762 1.808z"></path>
<path d="M319.934 28.5c0 0.998-0.789 1.808-1.762 1.808s-1.762-0.809-1.762-1.808c0-0.998 0.789-1.808 1.762-1.808s1.762 0.809 1.762 1.808z"></path>
<path d="M323.752 26.090c0 0.998-0.789 1.808-1.762 1.808s-1.762-0.809-1.762-1.808c0-0.998 0.789-1.808 1.762-1.808s1.762 0.809 1.762 1.808z"></path>
<path d="M328.158 23.378c0 0.998-0.789 1.808-1.762 1.808s-1.762-0.809-1.762-1.808c0-0.998 0.789-1.808 1.762-1.808s1.762 0.809 1.762 1.808z"></path>
<path d="M332.269 20.967c0 0.998-0.789 1.808-1.762 1.808s-1.762-0.809-1.762-1.808c0-0.998 0.789-1.808 1.762-1.808s1.762 0.809 1.762 1.808z"></path>
<path d="M328.452 27.596c0 0.998-0.789 1.808-1.762 1.808s-1.762-0.809-1.762-1.808c0-0.998 0.789-1.808 1.762-1.808s1.762 0.809 1.762 1.808z"></path>
<path d="M332.269 25.185c0 0.998-0.789 1.808-1.762 1.808s-1.762-0.809-1.762-1.808c0-0.998 0.789-1.808 1.762-1.808s1.762 0.809 1.762 1.808z"></path>
<path d="M336.675 22.474c0 0.998-0.789 1.808-1.762 1.808s-1.762-0.809-1.762-1.808c0-0.998 0.789-1.808 1.762-1.808s1.762 0.809 1.762 1.808z"></path>
<path d="M340.786 20.063c0 0.998-0.789 1.808-1.762 1.808s-1.762-0.809-1.762-1.808c0-0.998 0.789-1.808 1.762-1.808s1.762 0.809 1.762 1.808z"></path>
<path d="M336.675 26.391c0 0.998-0.789 1.808-1.762 1.808s-1.762-0.809-1.762-1.808c0-0.998 0.789-1.808 1.762-1.808s1.762 0.809 1.762 1.808z"></path>
<path d="M340.492 23.98c0 0.998-0.789 1.808-1.762 1.808s-1.762-0.809-1.762-1.808c0-0.998 0.789-1.808 1.762-1.808s1.762 0.809 1.762 1.808z"></path>
<path d="M344.898 21.268c0 0.998-0.789 1.808-1.762 1.808s-1.762-0.809-1.762-1.808c0-0.998 0.789-1.808 1.762-1.808s1.762 0.809 1.762 1.808z"></path>
<path d="M349.010 18.858c0 0.998-0.789 1.808-1.762 1.808s-1.762-0.809-1.762-1.808c0-0.998 0.789-1.808 1.762-1.808s1.762 0.809 1.762 1.808z"></path>
<path d="M339.318 29.706c0 0.998-0.789 1.808-1.762 1.808s-1.762-0.809-1.762-1.808c0-0.998 0.789-1.808 1.762-1.808s1.762 0.809 1.762 1.808z"></path>
<path d="M343.136 27.295c0 0.998-0.789 1.808-1.762 1.808s-1.762-0.809-1.762-1.808c0-0.998 0.789-1.808 1.762-1.808s1.762 0.809 1.762 1.808z"></path>
<path d="M348.422 30.007c0 0.998-0.789 1.808-1.762 1.808s-1.762-0.809-1.762-1.808c0-0.998 0.789-1.808 1.762-1.808s1.762 0.809 1.762 1.808z"></path>
<path d="M347.541 24.583c0 0.998-0.789 1.808-1.762 1.808s-1.762-0.809-1.762-1.808c0-0.998 0.789-1.808 1.762-1.808s1.762 0.809 1.762 1.808z"></path>
<path d="M352.828 27.295c0 0.998-0.789 1.808-1.762 1.808s-1.762-0.809-1.762-1.808c0-0.998 0.789-1.808 1.762-1.808s1.762 0.809 1.762 1.808z"></path>
<path d="M356.939 30.007c0 0.998-0.789 1.808-1.762 1.808s-1.762-0.809-1.762-1.808c0-0.998 0.789-1.808 1.762-1.808s1.762 0.809 1.762 1.808z"></path>
<path d="M351.652 22.172c0 0.998-0.789 1.808-1.762 1.808s-1.762-0.809-1.762-1.808c0-0.998 0.789-1.808 1.762-1.808s1.762 0.809 1.762 1.808z"></path>
<path d="M356.939 24.884c0 0.998-0.789 1.808-1.762 1.808s-1.762-0.809-1.762-1.808c0-0.998 0.789-1.808 1.762-1.808s1.762 0.809 1.762 1.808z"></path>
<path d="M361.051 27.596c0 0.998-0.789 1.808-1.762 1.808s-1.762-0.809-1.762-1.808c0-0.998 0.789-1.808 1.762-1.808s1.762 0.809 1.762 1.808z"></path>
<path d="M292.034 9.818c0 0.998-0.789 1.808-1.762 1.808s-1.762-0.809-1.762-1.808c0-0.998 0.789-1.808 1.762-1.808s1.762 0.809 1.762 1.808z"></path>
<path d="M295.852 7.407c0 0.998-0.789 1.808-1.762 1.808s-1.762-0.809-1.762-1.808c0-0.998 0.789-1.808 1.762-1.808s1.762 0.809 1.762 1.808z"></path>
<path d="M300.258 4.696c0 0.998-0.789 1.808-1.762 1.808s-1.762-0.809-1.762-1.808c0-0.998 0.789-1.808 1.762-1.808s1.762 0.809 1.762 1.808z"></path>
<path d="M304.368 2.285c0 0.998-0.789 1.808-1.762 1.808s-1.762-0.809-1.762-1.808c0-0.998 0.789-1.808 1.762-1.808s1.762 0.809 1.762 1.808z"></path>
<path d="M284.692 9.516c0 0.998-0.789 1.808-1.762 1.808s-1.762-0.809-1.762-1.808c0-0.998 0.789-1.808 1.762-1.808s1.762 0.809 1.762 1.808z"></path>
<path d="M288.51 7.106c0 0.999-0.789 1.808-1.762 1.808s-1.762-0.809-1.762-1.808c0-0.998 0.789-1.808 1.762-1.808s1.762 0.809 1.762 1.808z"></path>
<path d="M292.915 4.394c0 0.998-0.789 1.808-1.762 1.808s-1.762-0.809-1.762-1.808c0-0.998 0.789-1.808 1.762-1.808s1.762 0.809 1.762 1.808z"></path>
<path d="M297.027 1.984c0 0.998-0.789 1.808-1.762 1.808s-1.762-0.809-1.762-1.808c0-0.999 0.789-1.808 1.762-1.808s1.762 0.809 1.762 1.808z"></path>
<path d="M301.139 29.706c0 0.998-0.789 1.808-1.762 1.808s-1.762-0.809-1.762-1.808c0-0.998 0.789-1.808 1.762-1.808s1.762 0.809 1.762 1.808z"></path>
<path d="M304.956 27.295c0 0.998-0.789 1.808-1.762 1.808s-1.762-0.809-1.762-1.808c0-0.998 0.789-1.808 1.762-1.808s1.762 0.809 1.762 1.808z"></path>
<path d="M309.362 24.583c0 0.998-0.789 1.808-1.762 1.808s-1.762-0.809-1.762-1.808c0-0.998 0.789-1.808 1.762-1.808s1.762 0.809 1.762 1.808z"></path>
<path d="M313.474 22.172c0 0.998-0.789 1.808-1.762 1.808s-1.762-0.809-1.762-1.808c0-0.998 0.789-1.808 1.762-1.808s1.762 0.809 1.762 1.808z"></path>
<path d="M296.44 27.898c0 0.998-0.789 1.808-1.762 1.808s-1.762-0.809-1.762-1.808c0-0.998 0.789-1.808 1.762-1.808s1.762 0.809 1.762 1.808z"></path>
<path d="M300.258 25.487c0 0.998-0.789 1.808-1.762 1.808s-1.762-0.809-1.762-1.808c0-0.998 0.789-1.808 1.762-1.808s1.762 0.809 1.762 1.808z"></path>
<path d="M304.663 22.775c0 0.998-0.789 1.808-1.762 1.808s-1.762-0.809-1.762-1.808c0-0.998 0.789-1.808 1.762-1.808s1.762 0.809 1.762 1.808z"></path>
<path d="M308.774 20.365c0 0.998-0.789 1.808-1.762 1.808s-1.762-0.809-1.762-1.808c0-0.998 0.789-1.808 1.762-1.808s1.762 0.809 1.762 1.808z"></path>
<path d="M298.201 21.57c0 0.998-0.789 1.808-1.762 1.808s-1.762-0.809-1.762-1.808c0-0.998 0.789-1.808 1.762-1.808s1.762 0.809 1.762 1.808z"></path>
<path d="M302.019 19.159c0 0.998-0.789 1.808-1.762 1.808s-1.762-0.809-1.762-1.808c0-0.998 0.789-1.808 1.762-1.808s1.762 0.809 1.762 1.808z"></path>
<path d="M306.425 16.447c0 0.998-0.789 1.808-1.762 1.808s-1.762-0.809-1.762-1.808c0-0.998 0.789-1.808 1.762-1.808s1.762 0.809 1.762 1.808z"></path>
<path d="M310.536 14.037c0 0.998-0.789 1.808-1.762 1.808s-1.762-0.809-1.762-1.808c0-0.998 0.789-1.808 1.762-1.808s1.762 0.809 1.762 1.808z"></path>
<path d="M298.201 11.024c0 0.998-0.789 1.808-1.762 1.808s-1.762-0.809-1.762-1.808c0-0.998 0.789-1.808 1.762-1.808s1.762 0.809 1.762 1.808z"></path>
<path d="M302.019 8.613c0 0.998-0.789 1.808-1.762 1.808s-1.762-0.809-1.762-1.808c0-0.998 0.789-1.808 1.762-1.808s1.762 0.809 1.762 1.808z"></path>
<path d="M306.425 5.901c0 0.998-0.789 1.808-1.762 1.808s-1.762-0.809-1.762-1.808c0-0.998 0.789-1.808 1.762-1.808s1.762 0.809 1.762 1.808z"></path>
<path d="M310.536 3.49c0 0.998-0.789 1.808-1.762 1.808s-1.762-0.809-1.762-1.808c0-0.998 0.789-1.808 1.762-1.808s1.762 0.809 1.762 1.808z"></path>
<path d="M297.321 16.749c0 0.998-0.789 1.808-1.762 1.808s-1.762-0.809-1.762-1.808c0-0.998 0.789-1.808 1.762-1.808s1.762 0.809 1.762 1.808z"></path>
<path d="M301.139 14.338c0 0.998-0.789 1.808-1.762 1.808s-1.762-0.809-1.762-1.808c0-0.998 0.789-1.808 1.762-1.808s1.762 0.809 1.762 1.808z"></path>
<path d="M305.544 11.626c0 0.998-0.789 1.808-1.762 1.808s-1.762-0.809-1.762-1.808c0-0.998 0.789-1.808 1.762-1.808s1.762 0.809 1.762 1.808z"></path>
<path d="M309.655 9.216c0 0.998-0.789 1.808-1.762 1.808s-1.762-0.809-1.762-1.808c0-0.998 0.789-1.808 1.762-1.808s1.762 0.809 1.762 1.808z"></path>
<path d="M278.819 8.010c0 0.998-0.789 1.808-1.762 1.808s-1.762-0.809-1.762-1.808c0-0.998 0.789-1.808 1.762-1.808s1.762 0.809 1.762 1.808z"></path>
<path d="M282.636 5.599c0 0.998-0.789 1.808-1.762 1.808s-1.762-0.809-1.762-1.808c0-0.998 0.789-1.808 1.762-1.808s1.762 0.809 1.762 1.808z"></path>
<path d="M287.042 2.888c0 0.998-0.789 1.808-1.762 1.808s-1.762-0.809-1.762-1.808c0-0.998 0.789-1.808 1.762-1.808s1.762 0.809 1.762 1.808z"></path>
<path d="M284.986 9.818c0.973 0 1.762-0.809 1.762-1.808s-0.789-1.808-1.762-1.808-1.762 0.809-1.762 1.808c0 0.998 0.789 1.808 1.762 1.808z"></path>
<path d="M3.524 28.466c0 0.998-0.789 1.808-1.762 1.808s-1.762-0.809-1.762-1.808c0-0.998 0.789-1.808 1.762-1.808s1.762 0.809 1.762 1.808z"></path>
<path d="M7.342 26.055c0 0.998-0.789 1.808-1.762 1.808s-1.762-0.809-1.762-1.808c0-0.998 0.789-1.808 1.762-1.808s1.762 0.809 1.762 1.808z"></path>
<path d="M11.747 23.343c0 0.998-0.789 1.808-1.762 1.808s-1.762-0.809-1.762-1.808c0-0.998 0.789-1.808 1.762-1.808s1.762 0.809 1.762 1.808z"></path>
<path d="M15.859 20.933c0 0.998-0.789 1.808-1.762 1.808s-1.762-0.809-1.762-1.808c0-0.998 0.789-1.808 1.762-1.808s1.762 0.809 1.762 1.808z"></path>
<path d="M25.845 29.37c0 0.998-0.789 1.808-1.762 1.808s-1.762-0.809-1.762-1.808c0-0.998 0.789-1.808 1.762-1.808s1.762 0.809 1.762 1.808z"></path>
<path d="M29.662 26.959c0 0.998-0.789 1.808-1.762 1.808s-1.762-0.809-1.762-1.808c0-0.998 0.789-1.808 1.762-1.808s1.762 0.809 1.762 1.808z"></path>
<path d="M34.068 24.247c0 0.998-0.789 1.808-1.762 1.808s-1.762-0.809-1.762-1.808c0-0.998 0.789-1.808 1.762-1.808s1.762 0.809 1.762 1.808z"></path>
<path d="M38.179 21.837c0 0.998-0.789 1.808-1.762 1.808s-1.762-0.809-1.762-1.808c0-0.998 0.789-1.808 1.762-1.808s1.762 0.809 1.762 1.808z"></path>
<path d="M34.949 28.164c0 0.998-0.789 1.808-1.762 1.808s-1.762-0.809-1.762-1.808c0-0.998 0.789-1.808 1.762-1.808s1.762 0.809 1.762 1.808z"></path>
<path d="M38.767 25.754c0 0.998-0.789 1.808-1.762 1.808s-1.762-0.809-1.762-1.808c0-0.998 0.789-1.808 1.762-1.808s1.762 0.809 1.762 1.808z"></path>
<path d="M43.172 23.042c0 0.998-0.789 1.808-1.762 1.808s-1.762-0.809-1.762-1.808c0-0.998 0.789-1.808 1.762-1.808s1.762 0.809 1.762 1.808z"></path>
<path d="M47.283 20.631c0 0.998-0.789 1.808-1.762 1.808s-1.762-0.809-1.762-1.808c0-0.998 0.789-1.808 1.762-1.808s1.762 0.809 1.762 1.808z"></path>
<path d="M51.689 17.015c0 0.998-0.789 1.808-1.762 1.808s-1.762-0.809-1.762-1.808c0-0.998 0.789-1.808 1.762-1.808s1.762 0.809 1.762 1.808z"></path>
<path d="M42.291 19.125c0 0.998-0.789 1.808-1.762 1.808s-1.762-0.809-1.762-1.808c0-0.998 0.789-1.808 1.762-1.808s1.762 0.809 1.762 1.808z"></path>
<path d="M17.621 29.069c0 0.998-0.789 1.808-1.762 1.808s-1.762-0.809-1.762-1.808c0-0.998 0.789-1.808 1.762-1.808s1.762 0.809 1.762 1.808z"></path>
<path d="M21.439 26.658c0 0.998-0.789 1.808-1.762 1.808s-1.762-0.809-1.762-1.808c0-0.998 0.789-1.808 1.762-1.808s1.762 0.809 1.762 1.808z"></path>
<path d="M25.845 23.946c0 0.998-0.789 1.808-1.762 1.808s-1.762-0.809-1.762-1.808c0-0.998 0.789-1.808 1.762-1.808s1.762 0.809 1.762 1.808z"></path>
<path d="M29.956 21.535c0 0.998-0.789 1.808-1.762 1.808s-1.762-0.809-1.762-1.808c0-0.998 0.789-1.808 1.762-1.808s1.762 0.809 1.762 1.808z"></path>
<path d="M10.279 28.767c0 0.998-0.789 1.808-1.762 1.808s-1.762-0.809-1.762-1.808c0-0.998 0.789-1.808 1.762-1.808s1.762 0.809 1.762 1.808z"></path>
<path d="M14.097 26.356c0 0.998-0.789 1.808-1.762 1.808s-1.762-0.809-1.762-1.808c0-0.998 0.789-1.808 1.762-1.808s1.762 0.809 1.762 1.808z"></path>
<path d="M18.502 23.644c0 0.998-0.789 1.808-1.762 1.808s-1.762-0.809-1.762-1.808c0-0.998 0.789-1.808 1.762-1.808s1.762 0.809 1.762 1.808z"></path>
<path d="M22.614 21.234c0 0.998-0.789 1.808-1.762 1.808s-1.762-0.809-1.762-1.808c0-0.998 0.789-1.808 1.762-1.808s1.762 0.809 1.762 1.808z"></path>
</symbol>
<symbol id="dots-background-480" viewBox="0 0 204 32">
<path d="M153.984 29.307c0 0.972-0.766 1.759-1.712 1.759s-1.712-0.788-1.712-1.759c0-0.972 0.766-1.759 1.712-1.759s1.712 0.788 1.712 1.759z"></path>
<path d="M157.693 26.961c0 0.972-0.766 1.759-1.712 1.759s-1.712-0.788-1.712-1.759c0-0.972 0.766-1.759 1.712-1.759s1.712 0.788 1.712 1.759z"></path>
<path d="M161.971 24.322c0 0.972-0.766 1.759-1.712 1.759s-1.712-0.788-1.712-1.759c0-0.972 0.766-1.759 1.712-1.759s1.712 0.788 1.712 1.759z"></path>
<path d="M165.966 21.976c0 0.972-0.766 1.759-1.712 1.759s-1.712-0.788-1.712-1.759c0-0.972 0.766-1.759 1.712-1.759s1.712 0.788 1.712 1.759z"></path>
<path d="M163.683 28.134c0 0.972-0.766 1.759-1.712 1.759s-1.712-0.788-1.712-1.759c0-0.972 0.766-1.759 1.712-1.759s1.712 0.788 1.712 1.759z"></path>
<path d="M167.392 25.789c0 0.972-0.766 1.759-1.712 1.759s-1.712-0.788-1.712-1.759c0-0.972 0.766-1.759 1.712-1.759s1.712 0.788 1.712 1.759z"></path>
<path d="M171.671 23.149c0 0.972-0.766 1.759-1.712 1.759s-1.712-0.788-1.712-1.759c0-0.972 0.766-1.759 1.712-1.759s1.712 0.788 1.712 1.759z"></path>
<path d="M175.665 20.804c0 0.972-0.766 1.759-1.712 1.759s-1.712-0.788-1.712-1.759c0-0.972 0.766-1.759 1.712-1.759s1.712 0.788 1.712 1.759z"></path>
<path d="M171.957 27.255c0 0.972-0.766 1.759-1.712 1.759s-1.712-0.788-1.712-1.759c0-0.972 0.766-1.759 1.712-1.759s1.712 0.788 1.712 1.759z"></path>
<path d="M175.666 24.909c0 0.972-0.766 1.759-1.712 1.759s-1.712-0.788-1.712-1.759c0-0.972 0.766-1.759 1.712-1.759s1.712 0.788 1.712 1.759z"></path>
<path d="M179.945 22.27c0 0.972-0.766 1.759-1.712 1.759s-1.712-0.788-1.712-1.759c0-0.972 0.766-1.759 1.712-1.759s1.712 0.788 1.712 1.759z"></path>
<path d="M183.938 19.924c0 0.972-0.766 1.759-1.712 1.759s-1.712-0.788-1.712-1.759c0-0.972 0.766-1.759 1.712-1.759s1.712 0.788 1.712 1.759z"></path>
<path d="M179.945 26.082c0 0.972-0.766 1.759-1.712 1.759s-1.712-0.788-1.712-1.759c0-0.972 0.766-1.759 1.712-1.759s1.712 0.788 1.712 1.759z"></path>
<path d="M183.653 23.736c0 0.972-0.766 1.759-1.712 1.759s-1.712-0.788-1.712-1.759c0-0.972 0.766-1.759 1.712-1.759s1.712 0.788 1.712 1.759z"></path>
<path d="M187.932 21.097c0 0.972-0.766 1.759-1.712 1.759s-1.712-0.788-1.712-1.759c0-0.972 0.766-1.759 1.712-1.759s1.712 0.788 1.712 1.759z"></path>
<path d="M191.927 18.751c0 0.972-0.766 1.759-1.712 1.759s-1.712-0.788-1.712-1.759c0-0.972 0.766-1.759 1.712-1.759s1.712 0.788 1.712 1.759z"></path>
<path d="M182.512 29.307c0 0.972-0.766 1.759-1.712 1.759s-1.712-0.788-1.712-1.759c0-0.972 0.766-1.759 1.712-1.759s1.712 0.788 1.712 1.759z"></path>
<path d="M186.222 26.961c0 0.972-0.766 1.759-1.712 1.759s-1.712-0.788-1.712-1.759c0-0.972 0.766-1.759 1.712-1.759s1.712 0.788 1.712 1.759z"></path>
<path d="M191.357 29.601c0 0.972-0.766 1.759-1.712 1.759s-1.712-0.788-1.712-1.759c0-0.972 0.766-1.759 1.712-1.759s1.712 0.788 1.712 1.759z"></path>
<path d="M190.501 24.322c0 0.972-0.766 1.759-1.712 1.759s-1.712-0.788-1.712-1.759c0-0.972 0.766-1.759 1.712-1.759s1.712 0.788 1.712 1.759z"></path>
<path d="M195.636 26.961c0 0.972-0.766 1.759-1.712 1.759s-1.712-0.788-1.712-1.759c0-0.972 0.766-1.759 1.712-1.759s1.712 0.788 1.712 1.759z"></path>
<path d="M199.63 29.601c0 0.972-0.766 1.759-1.712 1.759s-1.712-0.788-1.712-1.759c0-0.972 0.766-1.759 1.712-1.759s1.712 0.788 1.712 1.759z"></path>
<path d="M194.494 21.976c0 0.972-0.766 1.759-1.712 1.759s-1.712-0.788-1.712-1.759c0-0.972 0.766-1.759 1.712-1.759s1.712 0.788 1.712 1.759z"></path>
<path d="M199.63 24.615c0 0.972-0.766 1.759-1.712 1.759s-1.712-0.788-1.712-1.759c0-0.972 0.766-1.759 1.712-1.759s1.712 0.788 1.712 1.759z"></path>
<path d="M203.624 27.255c0 0.972-0.766 1.759-1.712 1.759s-1.712-0.788-1.712-1.759c0-0.972 0.766-1.759 1.712-1.759s1.712 0.788 1.712 1.759z"></path>
<path d="M136.582 9.954c0 0.972-0.766 1.759-1.712 1.759s-1.712-0.788-1.712-1.759c0-0.972 0.766-1.759 1.712-1.759s1.712 0.788 1.712 1.759z"></path>
<path d="M140.29 7.608c0 0.972-0.766 1.759-1.712 1.759s-1.712-0.788-1.712-1.759c0-0.972 0.766-1.759 1.712-1.759s1.712 0.788 1.712 1.759z"></path>
<path d="M144.571 4.969c0 0.972-0.766 1.759-1.712 1.759s-1.712-0.788-1.712-1.759c0-0.972 0.766-1.759 1.712-1.759s1.712 0.788 1.712 1.759z"></path>
<path d="M148.564 2.623c0 0.972-0.766 1.759-1.712 1.759s-1.712-0.788-1.712-1.759c0-0.972 0.766-1.759 1.712-1.759s1.712 0.788 1.712 1.759z"></path>
<path d="M129.449 9.66c0 0.972-0.766 1.759-1.712 1.759s-1.712-0.788-1.712-1.759c0-0.972 0.766-1.759 1.712-1.759s1.712 0.788 1.712 1.759z"></path>
<path d="M133.157 7.315c0 0.972-0.766 1.759-1.712 1.759s-1.712-0.788-1.712-1.759c0-0.972 0.766-1.759 1.712-1.759s1.712 0.788 1.712 1.759z"></path>
<path d="M137.437 4.676c0 0.972-0.766 1.759-1.712 1.759s-1.712-0.788-1.712-1.759c0-0.972 0.766-1.759 1.712-1.759s1.712 0.788 1.712 1.759z"></path>
<path d="M141.431 2.33c0 0.972-0.766 1.759-1.712 1.759s-1.712-0.788-1.712-1.759c0-0.972 0.766-1.759 1.712-1.759s1.712 0.788 1.712 1.759z"></path>
<path d="M145.425 29.307c0 0.972-0.766 1.759-1.712 1.759s-1.712-0.788-1.712-1.759c0-0.972 0.766-1.759 1.712-1.759s1.712 0.788 1.712 1.759z"></path>
<path d="M149.133 26.961c0 0.972-0.766 1.759-1.712 1.759s-1.712-0.788-1.712-1.759c0-0.972 0.766-1.759 1.712-1.759s1.712 0.788 1.712 1.759z"></path>
<path d="M153.412 24.322c0 0.972-0.766 1.759-1.712 1.759s-1.712-0.788-1.712-1.759c0-0.972 0.766-1.759 1.712-1.759s1.712 0.788 1.712 1.759z"></path>
<path d="M157.407 21.976c0 0.972-0.766 1.759-1.712 1.759s-1.712-0.788-1.712-1.759c0-0.972 0.766-1.759 1.712-1.759s1.712 0.788 1.712 1.759z"></path>
<path d="M140.861 27.548c0 0.972-0.766 1.759-1.712 1.759s-1.712-0.788-1.712-1.759c0-0.972 0.766-1.759 1.712-1.759s1.712 0.788 1.712 1.759z"></path>
<path d="M144.569 25.202c0 0.972-0.766 1.759-1.712 1.759s-1.712-0.788-1.712-1.759c0-0.972 0.766-1.759 1.712-1.759s1.712 0.788 1.712 1.759z"></path>
<path d="M148.848 22.563c0 0.972-0.766 1.759-1.712 1.759s-1.712-0.788-1.712-1.759c0-0.972 0.766-1.759 1.712-1.759s1.712 0.788 1.712 1.759z"></path>
<path d="M152.843 20.217c0 0.972-0.766 1.759-1.712 1.759s-1.712-0.788-1.712-1.759c0-0.972 0.766-1.759 1.712-1.759s1.712 0.788 1.712 1.759z"></path>
<path d="M142.572 21.39c0 0.972-0.766 1.759-1.712 1.759s-1.712-0.788-1.712-1.759c0-0.972 0.766-1.759 1.712-1.759s1.712 0.788 1.712 1.759z"></path>
<path d="M146.28 19.044c0 0.972-0.766 1.759-1.712 1.759s-1.712-0.788-1.712-1.759c0-0.972 0.766-1.759 1.712-1.759s1.712 0.788 1.712 1.759z"></path>
<path d="M150.561 16.405c0 0.972-0.766 1.759-1.712 1.759s-1.712-0.788-1.712-1.759c0-0.972 0.766-1.759 1.712-1.759s1.712 0.788 1.712 1.759z"></path>
<path d="M154.555 14.059c0 0.972-0.766 1.759-1.712 1.759s-1.712-0.788-1.712-1.759c0-0.972 0.766-1.759 1.712-1.759s1.712 0.788 1.712 1.759z"></path>
<path d="M142.572 11.127c0 0.972-0.766 1.759-1.712 1.759s-1.712-0.788-1.712-1.759c0-0.972 0.766-1.759 1.712-1.759s1.712 0.788 1.712 1.759z"></path>
<path d="M146.28 8.781c0 0.972-0.766 1.759-1.712 1.759s-1.712-0.788-1.712-1.759c0-0.972 0.766-1.759 1.712-1.759s1.712 0.788 1.712 1.759z"></path>
<path d="M150.561 6.142c0 0.972-0.766 1.759-1.712 1.759s-1.712-0.788-1.712-1.759c0-0.972 0.766-1.759 1.712-1.759s1.712 0.788 1.712 1.759z"></path>
<path d="M154.555 3.796c0 0.972-0.766 1.759-1.712 1.759s-1.712-0.788-1.712-1.759c0-0.972 0.766-1.759 1.712-1.759s1.712 0.788 1.712 1.759z"></path>
<path d="M141.717 16.699c0 0.972-0.766 1.759-1.712 1.759s-1.712-0.788-1.712-1.759c0-0.972 0.766-1.759 1.712-1.759s1.712 0.788 1.712 1.759z"></path>
<path d="M145.426 14.352c0 0.972-0.766 1.759-1.712 1.759s-1.712-0.788-1.712-1.759c0-0.972 0.766-1.759 1.712-1.759s1.712 0.788 1.712 1.759z"></path>
<path d="M149.705 11.713c0 0.972-0.766 1.759-1.712 1.759s-1.712-0.788-1.712-1.759c0-0.972 0.766-1.759 1.712-1.759s1.712 0.788 1.712 1.759z"></path>
<path d="M153.698 9.368c0 0.972-0.766 1.759-1.712 1.759s-1.712-0.788-1.712-1.759c0-0.972 0.766-1.759 1.712-1.759s1.712 0.788 1.712 1.759z"></path>
<path d="M123.744 8.194c0 0.972-0.766 1.759-1.712 1.759s-1.712-0.788-1.712-1.759c0-0.972 0.766-1.759 1.712-1.759s1.712 0.788 1.712 1.759z"></path>
<path d="M127.453 5.848c0 0.972-0.766 1.759-1.712 1.759s-1.712-0.788-1.712-1.759c0-0.972 0.766-1.759 1.712-1.759s1.712 0.788 1.712 1.759z"></path>
<path d="M131.732 3.209c0 0.972-0.766 1.759-1.712 1.759s-1.712-0.788-1.712-1.759c0-0.972 0.766-1.759 1.712-1.759s1.712 0.788 1.712 1.759z"></path>
<path d="M129.735 9.954c0.945 0 1.711-0.788 1.711-1.759s-0.766-1.759-1.711-1.759-1.712 0.788-1.712 1.759c0 0.972 0.767 1.759 1.712 1.759z"></path>
<path d="M51.023 21.253c0.145 0.975-0.505 1.886-1.454 2.035s-1.835-0.52-1.98-1.494c-0.145-0.975 0.505-1.886 1.454-2.035s1.835 0.52 1.98 1.494z"></path>
<path d="M54.392 18.313c0.145 0.975-0.505 1.886-1.454 2.035s-1.835-0.52-1.98-1.494c-0.145-0.975 0.505-1.886 1.454-2.035s1.835 0.52 1.98 1.494z"></path>
<path d="M58.29 14.989c0.145 0.975-0.505 1.886-1.454 2.035s-1.835-0.52-1.98-1.494c-0.145-0.975 0.505-1.886 1.454-2.035s1.835 0.52 1.98 1.494z"></path>
<path d="M61.946 12.005c0.145 0.975-0.505 1.886-1.454 2.035s-1.835-0.52-1.98-1.494c-0.145-0.975 0.505-1.886 1.454-2.035s1.835 0.52 1.98 1.494z"></path>
<path d="M0.197 18.87c0 0.986-0.778 1.785-1.737 1.785s-1.737-0.799-1.737-1.785c0-0.986 0.778-1.785 1.737-1.785s1.737 0.799 1.737 1.785z"></path>
<path d="M4.541 16.192c0 0.986-0.778 1.785-1.737 1.785s-1.737-0.799-1.737-1.785c0-0.986 0.778-1.785 1.737-1.785s1.737 0.799 1.737 1.785z"></path>
<path d="M8.594 13.811c0 0.986-0.778 1.785-1.737 1.785s-1.737-0.799-1.737-1.785c0-0.986 0.778-1.785 1.737-1.785s1.737 0.799 1.737 1.785z"></path>
<path d="M1.935 23.333c0 0.986-0.778 1.785-1.737 1.785s-1.737-0.799-1.737-1.785c0-0.986 0.778-1.785 1.737-1.785s1.737 0.799 1.737 1.785z"></path>
<path d="M6.279 20.655c0 0.986-0.778 1.785-1.737 1.785s-1.737-0.799-1.737-1.785c0-0.986 0.778-1.785 1.737-1.785s1.737 0.799 1.737 1.785z"></path>
<path d="M10.331 18.274c0 0.986-0.778 1.785-1.737 1.785s-1.737-0.799-1.737-1.785c0-0.986 0.778-1.785 1.737-1.785s1.737 0.799 1.737 1.785z"></path>
<path d="M2.514 28.094c0 0.986-0.778 1.785-1.737 1.785s-1.737-0.799-1.737-1.785c0-0.986 0.778-1.785 1.737-1.785s1.737 0.799 1.737 1.785z"></path>
<path d="M6.277 25.714c0 0.986-0.778 1.785-1.737 1.785s-1.737-0.799-1.737-1.785c0-0.986 0.778-1.785 1.737-1.785s1.737 0.799 1.737 1.785z"></path>
<path d="M10.62 23.036c0 0.986-0.778 1.785-1.737 1.785s-1.737-0.799-1.737-1.785c0-0.986 0.778-1.785 1.737-1.785s1.737 0.799 1.737 1.785z"></path>
<path d="M14.673 20.655c0 0.986-0.778 1.785-1.737 1.785s-1.737-0.799-1.737-1.785c0-0.986 0.778-1.785 1.737-1.785s1.737 0.799 1.737 1.785z"></path>
<path d="M7.434 29.583c0 0.986-0.778 1.785-1.737 1.785s-1.737-0.799-1.737-1.785c0-0.986 0.778-1.785 1.737-1.785s1.737 0.799 1.737 1.785z"></path>
<path d="M11.198 27.202c0 0.986-0.778 1.785-1.737 1.785s-1.737-0.799-1.737-1.785c0-0.986 0.778-1.785 1.737-1.785s1.737 0.799 1.737 1.785z"></path>
<path d="M15.542 24.524c0 0.986-0.778 1.785-1.737 1.785s-1.737-0.799-1.737-1.785c0-0.986 0.778-1.785 1.737-1.785s1.737 0.799 1.737 1.785z"></path>
<path d="M19.593 22.143c0 0.986-0.778 1.785-1.737 1.785s-1.737-0.799-1.737-1.785c0-0.986 0.778-1.785 1.737-1.785s1.737 0.799 1.737 1.785z"></path>
<path d="M13.805 29.88c0 0.986-0.778 1.785-1.737 1.785s-1.737-0.799-1.737-1.785c0-0.986 0.778-1.785 1.737-1.785s1.737 0.799 1.737 1.785z"></path>
<path d="M17.568 27.5c0 0.986-0.778 1.785-1.737 1.785s-1.737-0.799-1.737-1.785c0-0.986 0.778-1.785 1.737-1.785s1.737 0.799 1.737 1.785z"></path>
<path d="M21.912 24.821c0 0.986-0.778 1.785-1.737 1.785s-1.737-0.799-1.737-1.785c0-0.986 0.778-1.785 1.737-1.785s1.737 0.799 1.737 1.785z"></path>
<path d="M25.964 22.441c0 0.986-0.778 1.785-1.737 1.785s-1.737-0.799-1.737-1.785c0-0.986 0.778-1.785 1.737-1.785s1.737 0.799 1.737 1.785z"></path>
<path d="M21.332 29.88c0 0.986-0.778 1.785-1.737 1.785s-1.737-0.799-1.737-1.785c0-0.986 0.778-1.785 1.737-1.785s1.737 0.799 1.737 1.785z"></path>
<path d="M25.095 27.499c0 0.986-0.778 1.785-1.737 1.785s-1.737-0.799-1.737-1.785c0-0.986 0.778-1.785 1.737-1.785s1.737 0.799 1.737 1.785z"></path>
<path d="M29.438 24.821c0 0.986-0.778 1.785-1.737 1.785s-1.737-0.799-1.737-1.785c0-0.986 0.778-1.785 1.737-1.785s1.737 0.799 1.737 1.785z"></path>
<path d="M33.492 22.441c0 0.986-0.778 1.785-1.737 1.785s-1.737-0.799-1.737-1.785c0-0.986 0.778-1.785 1.737-1.785s1.737 0.799 1.737 1.785z"></path>
<path d="M27.7 29.582c0 0.986-0.778 1.785-1.737 1.785s-1.737-0.799-1.737-1.785c0-0.986 0.778-1.785 1.737-1.785s1.737 0.799 1.737 1.785z"></path>
<path d="M31.464 27.202c0 0.986-0.778 1.785-1.737 1.785s-1.737-0.799-1.737-1.785c0-0.986 0.778-1.785 1.737-1.785s1.737 0.799 1.737 1.785z"></path>
<path d="M35.807 24.524c0 0.986-0.778 1.785-1.737 1.785s-1.737-0.799-1.737-1.785c0-0.986 0.778-1.785 1.737-1.785s1.737 0.799 1.737 1.785z"></path>
<path d="M39.86 22.143c0 0.986-0.778 1.785-1.737 1.785s-1.737-0.799-1.737-1.785c0-0.986 0.778-1.785 1.737-1.785s1.737 0.799 1.737 1.785z"></path>
<path d="M34.938 29.285c0 0.986-0.778 1.785-1.737 1.785s-1.737-0.799-1.737-1.785c0-0.986 0.778-1.785 1.737-1.785s1.737 0.799 1.737 1.785z"></path>
<path d="M38.702 26.904c0 0.986-0.778 1.785-1.737 1.785s-1.737-0.799-1.737-1.785c0-0.986 0.778-1.785 1.737-1.785s1.737 0.799 1.737 1.785z"></path>
<path d="M43.045 24.226c0 0.986-0.778 1.785-1.737 1.785s-1.737-0.799-1.737-1.785c0-0.986 0.778-1.785 1.737-1.785s1.737 0.799 1.737 1.785z"></path>
<path d="M47.097 21.845c0 0.986-0.778 1.785-1.737 1.785s-1.737-0.799-1.737-1.785c0-0.986 0.778-1.785 1.737-1.785s1.737 0.799 1.737 1.785z"></path>
<path d="M41.597 21.548c0 0.986-0.778 1.785-1.737 1.785s-1.737-0.799-1.737-1.785c0-0.986 0.778-1.785 1.737-1.785s1.737 0.799 1.737 1.785z"></path>
<path d="M45.36 19.167c0 0.986-0.778 1.785-1.737 1.785s-1.737-0.799-1.737-1.785c0-0.986 0.778-1.785 1.737-1.785s1.737 0.799 1.737 1.785z"></path>
<path d="M49.703 16.489c0 0.986-0.778 1.785-1.737 1.785s-1.737-0.799-1.737-1.785c0-0.986 0.778-1.785 1.737-1.785s1.737 0.799 1.737 1.785z"></path>
<path d="M53.756 14.108c0 0.986-0.778 1.785-1.737 1.785s-1.737-0.799-1.737-1.785c0-0.986 0.778-1.785 1.737-1.785s1.737 0.799 1.737 1.785z"></path>
</symbol>
<symbol id="cow" viewBox="0 0 32 32">
<path d="M10.3 23.558c-2.008-2.017-2.458-4.525-2.242-7.225 0-0.017-0.008-0.025-0.025-0.025-0.725-0.075-1.392-0.133-2.050-0.225-0.9-0.125-1.775-0.325-2.583-0.75-0.317-0.167-0.625-0.383-0.875-0.633-0.55-0.542-0.533-1.275-0.017-1.842 0.392-0.425 0.892-0.675 1.417-0.875 0.992-0.367 2.017-0.55 3.067-0.633 0.15-0.008 0.308-0.033 0.475-0.050-0.017-0.050-0.025-0.083-0.042-0.1-1.617-1.958-1.817-4.142-0.967-6.467 0.208-0.567 0.525-1.1 0.8-1.65 0.125-0.242 0.317-0.392 0.6-0.333s0.392 0.267 0.433 0.542c0.283 1.608 0.792 3.133 1.817 4.45l0.075 0.1c0.408 0.575 0.892 0.85 1.683 0.833 2.725-0.075 5.45-0.058 8.175-0.008 0.675 0.017 1.075-0.233 1.467-0.7 0.992-1.183 1.558-2.558 1.892-4.050 0.050-0.233 0.092-0.467 0.133-0.7 0.050-0.233 0.167-0.408 0.408-0.458 0.25-0.050 0.442 0.042 0.583 0.267 0.975 1.592 1.558 3.292 1.308 5.2-0.133 1.008-0.517 1.917-1.125 2.733l-0.233 0.308c-0.008 0.017 0 0.042 0.017 0.042 0.35 0.042 0.675 0.067 0.983 0.108 0.983 0.125 1.95 0.308 2.842 0.758 0.367 0.183 0.725 0.425 1.008 0.708 0.533 0.533 0.508 1.258 0 1.817-0.45 0.492-1.042 0.742-1.65 0.958-1.15 0.4-2.342 0.533-3.55 0.608-0.075 0.008-0.15 0.008-0.258 0.017-0.017 0-0.025 0.008-0.025 0.025v1.725c0 1.925-0.633 3.617-1.858 5.1-0.133 0.158-0.283 0.317-0.383 0.425-0.008 0.008-0.008 0.017 0 0.025 0.325 0.417 0.5 0.908 0.542 1.358 0.092 0.975-0.125 1.758-0.775 2.442-0.9 0.958-2.067 1.45-3.325 1.708-2.167 0.45-4.283 0.317-6.275-0.725-0.517-0.267-1-0.65-1.4-1.075-0.992-1.058-1.033-2.35-0.2-3.525 0.042-0.050 0.075-0.108 0.125-0.175 0.017-0.008 0.017-0.025 0.008-0.033zM20.8 22.842c0.008 0.008 0.025 0 0.025 0 1.050-0.95 1.917-2.783 1.958-4.233 0.025-0.875 0.017-1.75 0.025-2.617 0-0.583 0.167-0.717 0.733-0.758 0.9-0.067 1.8-0.133 2.692-0.267 0.758-0.117 1.5-0.333 2.142-0.792 0.392-0.283 0.408-0.533 0-0.758-0.492-0.275-1.017-0.508-1.558-0.675-1.075-0.317-2.183-0.4-3.3-0.408-0.525-0.008-0.65-0.125-0.733-0.642-0.15-0.983-0.967-1.825-1.958-1.958-0.5-0.067-1.017-0.058-1.525-0.058-2.567-0.008-5.133-0.008-7.708 0-1.317 0-2.258 0.8-2.483 2.075-0.075 0.417-0.25 0.558-0.675 0.583-0.717 0.042-1.433 0.067-2.142 0.15-0.917 0.117-1.825 0.308-2.633 0.783-0.633 0.367-0.633 0.658 0 1.033 0.708 0.417 1.492 0.625 2.3 0.725 0.825 0.108 1.65 0.142 2.483 0.208 0.442 0.033 0.617 0.2 0.625 0.642 0 0.258-0.008 0.517 0 0.783 0.050 0.958 0.033 1.933 0.192 2.883 0.217 1.292 0.875 2.392 1.758 3.283 0.008 0.008 0.017 0.008 0.033 0.008 3.267-1.792 6.483-1.792 9.75 0.008zM15.883 28.333c0.683-0.017 1.358-0.092 2-0.275 1.025-0.217 1.992-0.6 2.733-1.392 0.767-0.825 0.75-1.842-0.1-2.575-0.442-0.375-0.95-0.708-1.483-0.933-1.558-0.667-3.2-0.725-4.85-0.433-1.025 0.183-1.983 0.567-2.8 1.258-0.925 0.783-0.992 1.892-0.142 2.742 0.208 0.208 0.45 0.4 0.708 0.558 1.2 0.733 2.533 0.983 3.933 1.050zM23.55 10.675c0.008 0.017 0.033 0.017 0.042 0.008 0.742-0.825 1.158-1.758 1.25-2.817 0.083-1.025-0.083-2.017-0.55-3.025-0.008-0.025-0.042-0.017-0.050 0-0.458 1.6-1.158 2.983-2.267 4.15-0.008 0.008-0.008 0.033 0.008 0.042 0.708 0.383 1.208 0.917 1.567 1.642zM9.858 9.008c-1.133-1.183-1.8-2.583-2.258-4.117-0.008-0.025-0.033-0.025-0.050-0.008-0.858 1.733-0.75 4.192 0.775 5.725 0.008 0.008 0.033 0.008 0.042-0.008 0.325-0.667 0.817-1.167 1.483-1.55 0.017-0.008 0.017-0.033 0.008-0.042z"></path>
<path d="M12.308 12.842c0.708 0 1.275 0.333 1.75 0.817 0.217 0.217 0.208 0.517 0.008 0.725-0.183 0.192-0.475 0.208-0.708 0.033-0.075-0.058-0.142-0.125-0.208-0.183-0.542-0.45-1.142-0.458-1.708-0.042-0.083 0.058-0.158 0.142-0.233 0.2-0.233 0.192-0.533 0.192-0.725-0.008-0.208-0.217-0.208-0.517 0.025-0.75 0.5-0.483 1.083-0.792 1.8-0.792zM19.575 12.842c0.725 0.008 1.3 0.333 1.775 0.842 0.183 0.2 0.175 0.483 0 0.683-0.183 0.2-0.475 0.225-0.7 0.050-0.058-0.042-0.108-0.092-0.167-0.142-0.625-0.525-1.242-0.525-1.875 0-0.108 0.092-0.225 0.2-0.358 0.233-0.225 0.067-0.442-0.008-0.567-0.225-0.125-0.225-0.108-0.442 0.075-0.625 0.5-0.5 1.092-0.817 1.817-0.817zM18.925 24.392c0.342 0 0.567 0.175 0.6 0.458s-0.167 0.533-0.5 0.558c-0.367 0.033-0.533 0.192-0.55 0.567-0.008 0.308-0.25 0.492-0.542 0.475s-0.492-0.258-0.492-0.575c0-0.842 0.65-1.483 1.483-1.483zM14.342 25.925c0 0.017-0.017 0.025-0.025 0.025h-0.592c-0.217 0-0.4 0.008-0.458-0.283-0.017-0.1-0.25-0.192-0.392-0.225-0.267-0.050-0.483-0.133-0.558-0.417s0.125-0.575 0.408-0.625c0.883-0.158 1.717 0.633 1.617 1.525z"></path>
</symbol>
<symbol id="kettlebell" viewBox="0 0 32 32">
<path d="M15.75 28.375c-1.475 0-2.95 0.017-4.417-0.008-0.292-0.008-0.633-0.1-0.875-0.267-3.092-2.117-4.6-5.067-4.45-8.817 0.083-1.992 0.8-3.792 2.033-5.367 0.15-0.192 0.308-0.333 0.125-0.625-1.683-2.608-0.9-5.542 1.3-7.4 2.192-1.85 4.775-2.425 7.575-2.125 2.133 0.225 4.033 1.033 5.55 2.592 1.917 1.967 2.233 4.525 0.833 6.883-0.183 0.308-0.075 0.458 0.092 0.683 3.475 4.525 2.45 10.908-2.283 14.083-0.3 0.2-0.708 0.317-1.067 0.325-1.475 0.033-2.95 0.017-4.417 0.017v0.025zM15.783 27.4v-0.017c1.35 0 2.7-0.025 4.050 0.008 0.517 0.017 0.9-0.15 1.292-0.45 4.083-3.167 4.692-8.867 1.342-12.808-0.342-0.4-0.342-0.7-0.033-1.1 0.583-0.775 0.925-1.658 0.917-2.633-0.008-1.775-0.883-3.1-2.267-4.117-3.033-2.233-7.667-2.2-10.683 0.067-2.242 1.683-2.967 4.475-1.167 6.825 0.292 0.383 0.133 0.65-0.133 0.967-3.4 3.892-2.658 10 1.575 12.958 0.267 0.183 0.633 0.292 0.958 0.3 1.383 0.025 2.767 0 4.15 0z"></path>
<path d="M15.75 5.608c1.758 0.058 3.35 0.483 4.717 1.592 1.567 1.275 2.033 3.25 1.158 4.892-0.35 0.65-0.525 0.683-1.142 0.325-3.117-1.833-6.242-1.833-9.358-0.025-0.675 0.392-0.825 0.375-1.183-0.308-0.825-1.558-0.475-3.383 0.925-4.675 1.383-1.275 3.075-1.733 4.883-1.8zM21.008 11.567c0.017-0.675 0.108-1.225 0.033-1.758-0.158-1.042-0.858-1.742-1.717-2.275-1.383-0.867-2.917-1.092-4.5-0.9-1.383 0.167-2.642 0.675-3.608 1.758-0.808 0.908-1.008 2.133-0.475 3.075 3.35-1.825 6.708-1.833 10.267 0.1zM16.967 13.817c2.808 0.058 5.367 2.708 5.35 5.525 0 0.325-0.083 0.617-0.483 0.617-0.392 0-0.458-0.283-0.483-0.617-0.142-2.275-1.575-4-3.742-4.483-0.217-0.050-0.45-0.058-0.675-0.075-0.358-0.033-0.758-0.042-0.725-0.542 0.033-0.467 0.417-0.433 0.758-0.425z"></path>
</symbol>
<symbol id="ice-cream" viewBox="0 0 32 32">
<path d="M9.584 13.773c-0.533-0.225-0.658-0.516-0.475-1.024 0.125-0.35 0.333-0.641 0.624-0.874 0.591-0.475 1.174-0.949 1.807-1.374-0.591-0.408-0.758-0.991-0.541-1.915 0.216-0.874 0.733-1.54 1.466-2.057 0.55-0.383 1.174-0.608 1.79-0.858 0.208-0.083 0.425-0.175 0.624-0.275 1.416-0.716 1.998-1.957 1.674-3.547-0.050-0.233-0.1-0.466-0.167-0.749 0.225 0.117 0.425 0.216 0.616 0.316 1.182 0.658 2.273 1.432 3.006 2.598 0.908 1.441 1.066 3.006 0.633 4.638-0.117 0.441-0.233 0.6-0.541 0.933 0.233 0.167 0.483 0.316 0.708 0.5 0.491 0.383 0.883 0.841 1.091 1.441 0.233 0.674 0.1 1.291-0.3 1.857-0.108 0.15-0.108 0.225 0.050 0.333 0.375 0.283 0.708 0.608 0.983 0.991 0.691 0.974 0.541 1.907-0.458 2.556-0.225 0.15-0.308 0.308-0.308 0.575-0.025 1.382-0.083 2.764-0.108 4.138-0.008 0.4-0.142 0.683-0.491 0.908-0.45 0.283-0.691 0.724-0.816 1.241-0.425 1.774-0.774 3.564-1.107 5.354-0.1 0.525-0.375 0.841-0.824 1.041-0.625 0.283-1.291 0.375-1.965 0.391-0.991 0.033-1.973 0.033-2.923-0.3-0.591-0.208-0.949-0.55-1.074-1.224-0.316-1.765-0.674-3.522-1.082-5.263-0.125-0.541-0.383-0.991-0.858-1.282-0.308-0.192-0.425-0.45-0.433-0.799-0.033-1.416-0.083-2.823-0.117-4.238-0.008-0.175-0.042-0.275-0.208-0.358-0.25-0.117-0.491-0.275-0.674-0.491-0.266-0.308-0.375-0.633-0.208-1.033 0.108-0.258 0.142-0.525 0.075-0.791-0.158-0.566 0.033-0.999 0.533-1.357zM10.642 16.537c0.949-0.008 1.89-0.042 2.831-0.142 1.973-0.208 3.839-0.741 5.554-1.765 0.708-0.425 1.366-0.899 1.857-1.582 0.508-0.699 0.458-1.324-0.142-1.957-0.3-0.308-0.658-0.533-1.033-0.733-0.241-0.133-0.458-0.117-0.691 0.050-2.173 1.491-4.53 2.573-7.111 3.139-0.641 0.142-1.291 0.3-1.882 0.616-0.458 0.241-0.55 0.433-0.45 0.924 0.042 0.208 0.042 0.408-0.050 0.575-0.216 0.4-0.133 0.658 0.333 0.949 0.483 0.3 1.016 0.458 1.565 0.583 2.864 0.633 5.737 0.666 8.627 0.175 0.633-0.108 1.266-0.241 1.799-0.633s0.625-0.916 0.266-1.466c-0.241-0.358-0.575-0.616-0.891-0.908-0.233-0.216-0.433-0.192-0.649 0-0.275 0.233-0.583 0.433-0.891 0.616-1.491 0.874-3.114 1.332-4.813 1.549-1.424 0.175-2.831 0.15-4.23 0.008zM14.122 9.343c0.017 0.017 0.025 0.042 0.042 0.058-0.075 0.058-0.15 0.125-0.225 0.183-0.924 0.691-1.849 1.374-2.764 2.073-0.433 0.325-0.933 0.55-1.324 0.924-0.133 0.125-0.283 0.266-0.216 0.483 0.067 0.225 0.25 0.316 0.466 0.358 0.408 0.075 0.808 0 1.199-0.1 1.774-0.458 3.422-1.232 5.038-2.082 0.916-0.483 1.832-0.966 2.598-1.69 0.5-0.475 0.891-1.016 1.008-1.707 0.308-1.857-0.716-4.005-2.357-4.979-0.083 0.658-0.316 1.266-0.649 1.824-0.566 0.966-1.466 1.49-2.481 1.857-0.583 0.208-1.174 0.416-1.682 0.783-0.624 0.45-0.991 1.049-1.082 1.815-0.067 0.566 0.225 0.874 0.791 0.841 0.391-0.025 0.741-0.183 1.082-0.358 0.183-0.092 0.366-0.192 0.558-0.283zM10.916 17.894c0.067 0.408 0.050 0.808 0.050 1.216-0.008 0.791-0.067 1.574 0.008 2.365 0.067 0.724 0.175 0.866 0.874 1.033 0.183 0.042 0.366 0.092 0.55 0.108 2.498 0.283 4.988 0.241 7.486-0.050 0.483-0.058 0.758-0.291 0.866-0.741 0.033-0.117 0.058-0.241 0.075-0.366 0.192-1.074 0.092-2.157 0.133-3.231 0.008-0.192-0.092-0.158-0.208-0.142-0.508 0.083-1.016 0.183-1.532 0.25-2.798 0.358-5.562 0.475-8.302-0.441zM19.701 23.298c-0.067 0.075-0.142 0.15-0.208 0.216-0.3 0.316-0.408 0.741-0.649 1.091-0.192 0.275-0.125 0.491 0.058 0.724 0.117 0.142 0.358 0.291 0.216 0.491-0.125 0.175-0.35 0.017-0.516-0.042-0.283-0.1-0.45-0.042-0.6 0.233-0.233 0.416-0.5 0.816-0.791 1.191-0.6 0.791-0.608 0.783 0.175 1.366 0.183 0.133 0.366 0.275 0.433 0.508 0.042 0.167 0.025 0.25-0.192 0.216-0.383-0.058-0.699-0.258-1.008-0.458-0.225-0.142-0.383-0.142-0.575 0.042-0.433 0.408-0.716 0.924-1.124 1.391 0.941 0.125 1.824 0.192 2.706-0.050 0.658-0.175 1.058-0.558 1.216-1.257 0.425-1.857 0.541-3.764 0.858-5.662zM13.789 25.955c0.716 0.441 1.407 0.891 2.065 1.391 0.092 0.067 0.142 0.083 0.216-0.025 0.433-0.658 0.883-1.307 1.316-1.957 0.050-0.067 0.108-0.125 0.008-0.208-0.583-0.516-1.116-1.082-1.799-1.474-0.233-0.133-0.4-0.1-0.533 0.142-0.408 0.716-0.841 1.416-1.274 2.132zM12.748 27.021c0.117 0.833 0.225 1.657 0.483 2.456 0.125 0.391 0.674 0.708 1.066 0.666 0.1-0.008 0.175-0.067 0.225-0.15 0.308-0.516 0.616-1.024 0.924-1.54 0.125-0.208 0.050-0.341-0.133-0.458-0.666-0.433-1.366-0.808-2.115-1.082-0.083-0.033-0.175-0.050-0.266-0.067-0.125-0.008-0.208 0.025-0.183 0.175zM12.182 23.298c0.1 0.633 0.2 1.241 0.3 1.849 0.042 0.25 0.283 0.283 0.466 0.358 0.175 0.067 0.216-0.117 0.275-0.225 0.225-0.425 0.483-0.824 0.783-1.191 0.142-0.167 0.283-0.341 0.458-0.55-0.799-0.042-1.54-0.15-2.282-0.241zM16.52 23.756c0.375 0.25 0.649 0.541 1.016 0.699 0.142 0.067 0.291 0.117 0.416-0.042 0.192-0.25 0.391-0.5 0.608-0.783-0.674 0.042-1.324 0.075-2.040 0.125z"></path>
</symbol>
<symbol id="github" viewBox="0 0 32 32">
<path d="M16 0c-8.789 0-16 7.211-16 16 0 7.499 5.262 14.312 12.25 16v-5.293c-0.276 0.070-0.593 0.109-0.919 0.109-0.398 0-0.781-0.059-1.143-0.169l0.028 0.007c-0.946-0.278-1.714-0.909-2.285-1.869-0.363-0.613-1.008-1.28-1.68-1.23l-0.165-1.867c1.454-0.125 2.71 0.886 3.456 2.139 0.333 0.558 0.715 0.885 1.205 1.029 0.472 0.141 0.981 0.074 1.573-0.136 0.149-1.186 0.693-1.629 1.104-2.256-4.168-0.621-5.829-2.832-6.488-4.576-0.874-2.318-0.405-5.213 1.139-7.043 0.030-0.035 0.085-0.128 0.064-0.192-0.709-2.141 0.154-3.91 0.186-4.098 0.818 0.24 0.95-0.243 3.552 1.336l0.448 0.27c0.189 0.112 0.128 0.048 0.317 0.032 1.003-0.282 2.157-0.452 3.349-0.469l0.010-0c1.136 0.014 2.272 0.176 3.403 0.483l0.146 0.016c-0.013-0.003 0.040-0.010 0.128-0.062 3.248-1.968 3.131-1.325 4.003-1.608 0.032 0.189 0.882 1.987 0.182 4.099-0.096 0.291 2.816 2.957 1.202 7.235-0.659 1.744-2.32 3.957-6.486 4.578 0.534 0.816 1.176 1.248 1.173 2.928v6.606c6.986-1.688 12.25-8.501 12.25-16 0-8.789-7.211-16-16-16z"></path>
</symbol>
<symbol id="telegram" viewBox="0 0 44 32">
<path d="M17.342 21.048l-0.674 8.86c0.966 0 1.384-0.388 1.886-0.852l4.526-4.040 9.38 6.414c1.72 0.894 2.934 0.422 3.398-1.478l6.158-26.932c0.546-2.374-0.92-3.302-2.594-2.72l-36.196 12.934c-2.47 0.896-2.432 2.18-0.418 2.766l9.252 2.684 21.494-12.552c1.012-0.626 1.932-0.28 1.174 0.346l-17.386 14.57z"></path>
</symbol>
<symbol id="facebook" viewBox="0 0 16 32">
<path d="M14.143 15.971h-4.033v14.865h-6.112v-14.865h-2.906v-5.222h2.906v-3.382c0-2.417 1.142-6.204 6.167-6.204l4.527 0.019v5.072h-3.284c-0.538 0-1.297 0.272-1.297 1.425v3.073h4.567l-0.534 5.219z"></path>
</symbol>
</defs>
</svg>
