<svg aria-hidden="true" style="position: absolute; width: 0; height: 0; overflow: hidden;" version="1.1" xmlns="http://www.w3.org/2000/svg" xmlns:xlink="http://www.w3.org/1999/xlink">
<defs>
<symbol id="logo" viewBox="0 0 30 32">
<path  fill="#f8d24e" d="M15.212 17.083c1.428-3.791-1.526-5.858-3.446-7.237-0.394-0.295-0.738-0.542-1.034-0.788-0.542-0.443-0.935-1.034-1.132-1.723-0.197-0.64-0.197-1.378-0.049-2.018v-0.197c0-0.049-0.049-0.148-0.098-0.197s-0.098-0.098-0.197-0.098h-0.197c-0.64 0.246-1.28 0.591-1.822 1.034-0.542 0.394-0.935 0.886-1.231 1.477s-0.443 1.231-0.443 1.871c-0.345 0.295-0.689 0.64-0.985 0.985-0.492 0.689-0.738 1.477-0.689 2.314-0.591 0.542-1.034 1.231-1.28 1.969s-0.295 1.674-0.148 2.412c-0.246 0.148-0.443 0.345-0.542 0.591s-0.098 0.542-0.049 0.788 0.246 0.492 0.443 0.64c0.197 0.148 0.492 0.246 0.788 0.246h0.049v2.166c0 0.197 0.098 0.443 0.246 0.591s0.345 0.246 0.591 0.246h0.64l1.034 9.058c0 0.197 0.098 0.394 0.295 0.542 0.148 0.148 0.345 0.197 0.542 0.197h4.382c0.197 0 0.394-0.098 0.542-0.197s0.246-0.345 0.295-0.542l1.034-9.058h0.64c0.246 0 0.443-0.098 0.591-0.246s0.246-0.345 0.246-0.591v-2.117h0.049c0.345 0 0.64-0.148 0.886-0.345s0.394-0.542 0.394-0.886c0-0.148-0.049-0.345-0.098-0.492 0-0.148-0.098-0.295-0.246-0.394zM5.711 10.24c0.542 1.969 2.609 2.757 4.48 3.446 0.049 0.049 0.098 0.049 0.148 0.049h0.197c0.049 0 0.098-0.049 0.148-0.098s0.098-0.098 0.098-0.148c0-0.049 0.049-0.098 0.049-0.148s0-0.098-0.049-0.148c-0.049-0.049-0.049-0.098-0.098-0.148s-0.098-0.049-0.148-0.049c-2.018-0.738-3.938-1.477-4.086-3.495-0.049-0.542 0.049-1.132 0.295-1.625s0.591-0.935 1.034-1.28c0.295-0.246 0.591-0.443 0.886-0.591v0.738c0.049 0.591 0.197 1.132 0.492 1.674 0.246 0.542 0.64 0.985 1.083 1.329 0.295 0.246 0.689 0.542 1.132 0.837 0.985 0.689 2.068 1.477 2.806 2.511 0.394 0.542 0.591 1.182 0.689 1.822 0.049 0.64 0 1.329-0.295 1.92h-1.625c-3.397 0-7.286-0.935-8.025-3.495-0.148-0.542-0.148-1.083 0-1.625 0.049-0.64 0.394-1.132 0.788-1.477zM8.763 22.695l1.231 1.231-1.231 1.231-1.231-1.231 1.231-1.231zM11.569 25.895l-1.034 1.034-1.231-1.231 1.231-1.231 1.083 1.034-0.049 0.394zM8.763 28.702l-1.231-1.231 1.231-1.231 1.231 1.231-1.231 1.231zM8.172 25.698l-1.231 1.231-1.034-1.034-0.049-0.345 1.083-1.034 1.231 1.182zM6.351 27.471l-0.246 0.246-0.049-0.542 0.295 0.295zM6.252 28.751l0.689-0.689 1.378 1.378c0 0.049 0 0.049 0.049 0.098h-2.018l-0.098-0.788zM10.535 28.062l0.689 0.689-0.098 0.738h-2.068l1.477-1.428zM11.372 27.717l-0.246-0.246 0.295-0.295-0.049 0.542zM11.717 24.517l-0.64-0.64 0.788-0.788-0.148 1.428zM10.535 23.335l-1.182-1.132h2.363l-1.182 1.132zM6.942 23.335l-1.182-1.132h2.363l-1.182 1.132zM10.929 31.163h-4.382l-0.148-0.886h4.677l-0.148 0.886c0.049 0 0.049 0 0 0 0.049 0 0 0 0 0zM14.326 18.412h-1.428c-0.049 0-0.098 0.049-0.148 0.098s-0.098 0.098-0.098 0.148c0 0.049-0.049 0.098-0.049 0.148s0 0.098 0.049 0.148c0 0.049 0.049 0.098 0.098 0.148s0.098 0.049 0.148 0.098h0.591v2.166h-9.502v-2.166h7.335c0.098 0 0.197-0.049 0.246-0.148 0.049-0.049 0.098-0.148 0.098-0.246s-0.049-0.197-0.098-0.246c-0.049-0.049-0.148-0.098-0.246-0.148h-8.369c-0.049 0-0.098-0.049-0.148-0.098s-0.098-0.098-0.098-0.148c-0.049-0.049-0.049-0.098-0.049-0.197 0-0.049 0-0.148 0.049-0.197s0.049-0.098 0.098-0.148c0.049-0.049 0.098-0.098 0.148-0.098s0.148-0.049 0.197 0h0.837c0.098 0 0.197-0.049 0.246-0.148 0.049-0.049 0.098-0.148 0.098-0.246s-0.049-0.197-0.098-0.246c-0.049-0.098-0.148-0.148-0.246-0.148h-0.738c-0.098-0.542-0.098-1.132 0.049-1.674s0.394-1.083 0.738-1.526c0.246 0.788 0.935 1.871 2.609 2.757 1.575 0.788 3.643 1.231 6.154 1.231h1.674c0.049 0 0.098 0.049 0.148 0.098s0.098 0.098 0.098 0.148c0.049 0.049 0.049 0.098 0.049 0.197 0 0.049 0 0.148-0.049 0.197s-0.049 0.098-0.098 0.148c-0.049 0.049-0.098 0.098-0.148 0.098h-0.148z"></path>
<path fill="none" stroke="#f8d24e" stroke-width="0.4923" d="M18.855 27.274c-1.575 0-2.363 0.345-2.363 1.034 0 0.394 0.148 0.64 0.492 0.837 0.295 0.197 0.788 0.295 1.378 0.295s1.182-0.049 1.772-0.148l0.049 1.625c-0.64 0.197-1.378 0.246-2.166 0.246s-1.428-0.049-1.969-0.197c-0.542-0.098-0.935-0.246-1.231-0.394s-0.542-0.295-0.788-0.492c-0.492-0.443-0.738-0.985-0.738-1.674 0-0.443 0.098-0.837 0.246-1.182 0.295-0.64 0.837-1.083 1.625-1.428s1.625-0.443 2.56-0.443c0.935 0 1.822 0.098 2.658 0.295l-0.148 1.674c-0.492 0-0.985-0.049-1.378-0.049z"></path>
<path fill="none" stroke="#f8d24e" stroke-width="0.4923" d="M26.535 31.262c-0.591 0.148-1.182 0.197-1.772 0.197-0.542 0-1.034-0.049-1.428-0.098s-0.788-0.148-1.182-0.295c-0.394-0.148-0.738-0.295-0.985-0.542-0.295-0.197-0.492-0.492-0.689-0.837-0.148-0.345-0.246-0.738-0.246-1.231s0.098-0.935 0.246-1.329c0.197-0.394 0.394-0.738 0.689-0.985 0.788-0.689 1.871-1.034 3.348-1.034 0.689 0 1.329 0.148 1.969 0.394 0.64 0.295 1.083 0.689 1.329 1.231 0.148 0.295 0.246 0.64 0.246 1.034l-0.049 0.935h-4.628c0.098 0.345 0.295 0.64 0.64 0.837s0.837 0.295 1.428 0.295 1.28-0.148 2.117-0.492h0.295l-0.098 1.428c-0.197 0.197-0.64 0.345-1.231 0.492zM25.551 27.717c0-0.345-0.098-0.591-0.246-0.738s-0.394-0.197-0.689-0.197-0.542 0.098-0.738 0.295c-0.197 0.197-0.295 0.394-0.345 0.689l2.018-0.049z"></path>
</symbol>
<symbol id="arrow" viewBox="0 0 82 32">
<path d="M81.414 17.414c0.781-0.781 0.781-2.047 0-2.828l-12.728-12.728c-0.781-0.781-2.047-0.781-2.828 0s-0.781 2.047 0 2.828l11.314 11.314-11.314 11.314c-0.781 0.781-0.781 2.047 0 2.828s2.047 0.781 2.828 0l12.728-12.728zM0 18h80v-4h-80v4z"></path>
</symbol>
<symbol id="dots-background-768" viewBox="0 0 361 32">
<path d="M309.949 29.706c0 0.998-0.789 1.808-1.762 1.808s-1.762-0.809-1.762-1.808c0-0.998 0.789-1.808 1.762-1.808s1.762 0.809 1.762 1.808z"></path>
<path d="M313.767 27.295c0 0.998-0.789 1.808-1.762 1.808s-1.762-0.809-1.762-1.808c0-0.998 0.789-1.808 1.762-1.808s1.762 0.809 1.762 1.808z"></path>
<path d="M318.172 24.583c0 0.998-0.789 1.808-1.762 1.808s-1.762-0.809-1.762-1.808c0-0.998 0.789-1.808 1.762-1.808s1.762 0.809 1.762 1.808z"></path>
<path d="M322.284 22.172c0 0.998-0.789 1.808-1.762 1.808s-1.762-0.809-1.762-1.808c0-0.998 0.789-1.808 1.762-1.808s1.762 0.809 1.762 1.808z"></path>
<path d="M319.934 28.5c0 0.998-0.789 1.808-1.762 1.808s-1.762-0.809-1.762-1.808c0-0.998 0.789-1.808 1.762-1.808s1.762 0.809 1.762 1.808z"></path>
<path d="M323.752 26.090c0 0.998-0.789 1.808-1.762 1.808s-1.762-0.809-1.762-1.808c0-0.998 0.789-1.808 1.762-1.808s1.762 0.809 1.762 1.808z"></path>
<path d="M328.158 23.378c0 0.998-0.789 1.808-1.762 1.808s-1.762-0.809-1.762-1.808c0-0.998 0.789-1.808 1.762-1.808s1.762 0.809 1.762 1.808z"></path>
<path d="M332.269 20.967c0 0.998-0.789 1.808-1.762 1.808s-1.762-0.809-1.762-1.808c0-0.998 0.789-1.808 1.762-1.808s1.762 0.809 1.762 1.808z"></path>
<path d="M328.452 27.596c0 0.998-0.789 1.808-1.762 1.808s-1.762-0.809-1.762-1.808c0-0.998 0.789-1.808 1.762-1.808s1.762 0.809 1.762 1.808z"></path>
<path d="M332.269 25.185c0 0.998-0.789 1.808-1.762 1.808s-1.762-0.809-1.762-1.808c0-0.998 0.789-1.808 1.762-1.808s1.762 0.809 1.762 1.808z"></path>
<path d="M336.675 22.474c0 0.998-0.789 1.808-1.762 1.808s-1.762-0.809-1.762-1.808c0-0.998 0.789-1.808 1.762-1.808s1.762 0.809 1.762 1.808z"></path>
<path d="M340.786 20.063c0 0.998-0.789 1.808-1.762 1.808s-1.762-0.809-1.762-1.808c0-0.998 0.789-1.808 1.762-1.808s1.762 0.809 1.762 1.808z"></path>
<path d="M336.675 26.391c0 0.998-0.789 1.808-1.762 1.808s-1.762-0.809-1.762-1.808c0-0.998 0.789-1.808 1.762-1.808s1.762 0.809 1.762 1.808z"></path>
<path d="M340.492 23.98c0 0.998-0.789 1.808-1.762 1.808s-1.762-0.809-1.762-1.808c0-0.998 0.789-1.808 1.762-1.808s1.762 0.809 1.762 1.808z"></path>
<path d="M344.898 21.268c0 0.998-0.789 1.808-1.762 1.808s-1.762-0.809-1.762-1.808c0-0.998 0.789-1.808 1.762-1.808s1.762 0.809 1.762 1.808z"></path>
<path d="M349.010 18.858c0 0.998-0.789 1.808-1.762 1.808s-1.762-0.809-1.762-1.808c0-0.998 0.789-1.808 1.762-1.808s1.762 0.809 1.762 1.808z"></path>
<path d="M339.318 29.706c0 0.998-0.789 1.808-1.762 1.808s-1.762-0.809-1.762-1.808c0-0.998 0.789-1.808 1.762-1.808s1.762 0.809 1.762 1.808z"></path>
<path d="M343.136 27.295c0 0.998-0.789 1.808-1.762 1.808s-1.762-0.809-1.762-1.808c0-0.998 0.789-1.808 1.762-1.808s1.762 0.809 1.762 1.808z"></path>
<path d="M348.422 30.007c0 0.998-0.789 1.808-1.762 1.808s-1.762-0.809-1.762-1.808c0-0.998 0.789-1.808 1.762-1.808s1.762 0.809 1.762 1.808z"></path>
<path d="M347.541 24.583c0 0.998-0.789 1.808-1.762 1.808s-1.762-0.809-1.762-1.808c0-0.998 0.789-1.808 1.762-1.808s1.762 0.809 1.762 1.808z"></path>
<path d="M352.828 27.295c0 0.998-0.789 1.808-1.762 1.808s-1.762-0.809-1.762-1.808c0-0.998 0.789-1.808 1.762-1.808s1.762 0.809 1.762 1.808z"></path>
<path d="M356.939 30.007c0 0.998-0.789 1.808-1.762 1.808s-1.762-0.809-1.762-1.808c0-0.998 0.789-1.808 1.762-1.808s1.762 0.809 1.762 1.808z"></path>
<path d="M351.652 22.172c0 0.998-0.789 1.808-1.762 1.808s-1.762-0.809-1.762-1.808c0-0.998 0.789-1.808 1.762-1.808s1.762 0.809 1.762 1.808z"></path>
<path d="M356.939 24.884c0 0.998-0.789 1.808-1.762 1.808s-1.762-0.809-1.762-1.808c0-0.998 0.789-1.808 1.762-1.808s1.762 0.809 1.762 1.808z"></path>
<path d="M361.051 27.596c0 0.998-0.789 1.808-1.762 1.808s-1.762-0.809-1.762-1.808c0-0.998 0.789-1.808 1.762-1.808s1.762 0.809 1.762 1.808z"></path>
<path d="M292.034 9.818c0 0.998-0.789 1.808-1.762 1.808s-1.762-0.809-1.762-1.808c0-0.998 0.789-1.808 1.762-1.808s1.762 0.809 1.762 1.808z"></path>
<path d="M295.852 7.407c0 0.998-0.789 1.808-1.762 1.808s-1.762-0.809-1.762-1.808c0-0.998 0.789-1.808 1.762-1.808s1.762 0.809 1.762 1.808z"></path>
<path d="M300.258 4.696c0 0.998-0.789 1.808-1.762 1.808s-1.762-0.809-1.762-1.808c0-0.998 0.789-1.808 1.762-1.808s1.762 0.809 1.762 1.808z"></path>
<path d="M304.368 2.285c0 0.998-0.789 1.808-1.762 1.808s-1.762-0.809-1.762-1.808c0-0.998 0.789-1.808 1.762-1.808s1.762 0.809 1.762 1.808z"></path>
<path d="M284.692 9.516c0 0.998-0.789 1.808-1.762 1.808s-1.762-0.809-1.762-1.808c0-0.998 0.789-1.808 1.762-1.808s1.762 0.809 1.762 1.808z"></path>
<path d="M288.51 7.106c0 0.999-0.789 1.808-1.762 1.808s-1.762-0.809-1.762-1.808c0-0.998 0.789-1.808 1.762-1.808s1.762 0.809 1.762 1.808z"></path>
<path d="M292.915 4.394c0 0.998-0.789 1.808-1.762 1.808s-1.762-0.809-1.762-1.808c0-0.998 0.789-1.808 1.762-1.808s1.762 0.809 1.762 1.808z"></path>
<path d="M297.027 1.984c0 0.998-0.789 1.808-1.762 1.808s-1.762-0.809-1.762-1.808c0-0.999 0.789-1.808 1.762-1.808s1.762 0.809 1.762 1.808z"></path>
<path d="M301.139 29.706c0 0.998-0.789 1.808-1.762 1.808s-1.762-0.809-1.762-1.808c0-0.998 0.789-1.808 1.762-1.808s1.762 0.809 1.762 1.808z"></path>
<path d="M304.956 27.295c0 0.998-0.789 1.808-1.762 1.808s-1.762-0.809-1.762-1.808c0-0.998 0.789-1.808 1.762-1.808s1.762 0.809 1.762 1.808z"></path>
<path d="M309.362 24.583c0 0.998-0.789 1.808-1.762 1.808s-1.762-0.809-1.762-1.808c0-0.998 0.789-1.808 1.762-1.808s1.762 0.809 1.762 1.808z"></path>
<path d="M313.474 22.172c0 0.998-0.789 1.808-1.762 1.808s-1.762-0.809-1.762-1.808c0-0.998 0.789-1.808 1.762-1.808s1.762 0.809 1.762 1.808z"></path>
<path d="M296.44 27.898c0 0.998-0.789 1.808-1.762 1.808s-1.762-0.809-1.762-1.808c0-0.998 0.789-1.808 1.762-1.808s1.762 0.809 1.762 1.808z"></path>
<path d="M300.258 25.487c0 0.998-0.789 1.808-1.762 1.808s-1.762-0.809-1.762-1.808c0-0.998 0.789-1.808 1.762-1.808s1.762 0.809 1.762 1.808z"></path>
<path d="M304.663 22.775c0 0.998-0.789 1.808-1.762 1.808s-1.762-0.809-1.762-1.808c0-0.998 0.789-1.808 1.762-1.808s1.762 0.809 1.762 1.808z"></path>
<path d="M308.774 20.365c0 0.998-0.789 1.808-1.762 1.808s-1.762-0.809-1.762-1.808c0-0.998 0.789-1.808 1.762-1.808s1.762 0.809 1.762 1.808z"></path>
<path d="M298.201 21.57c0 0.998-0.789 1.808-1.762 1.808s-1.762-0.809-1.762-1.808c0-0.998 0.789-1.808 1.762-1.808s1.762 0.809 1.762 1.808z"></path>
<path d="M302.019 19.159c0 0.998-0.789 1.808-1.762 1.808s-1.762-0.809-1.762-1.808c0-0.998 0.789-1.808 1.762-1.808s1.762 0.809 1.762 1.808z"></path>
<path d="M306.425 16.447c0 0.998-0.789 1.808-1.762 1.808s-1.762-0.809-1.762-1.808c0-0.998 0.789-1.808 1.762-1.808s1.762 0.809 1.762 1.808z"></path>
<path d="M310.536 14.037c0 0.998-0.789 1.808-1.762 1.808s-1.762-0.809-1.762-1.808c0-0.998 0.789-1.808 1.762-1.808s1.762 0.809 1.762 1.808z"></path>
<path d="M298.201 11.024c0 0.998-0.789 1.808-1.762 1.808s-1.762-0.809-1.762-1.808c0-0.998 0.789-1.808 1.762-1.808s1.762 0.809 1.762 1.808z"></path>
<path d="M302.019 8.613c0 0.998-0.789 1.808-1.762 1.808s-1.762-0.809-1.762-1.808c0-0.998 0.789-1.808 1.762-1.808s1.762 0.809 1.762 1.808z"></path>
<path d="M306.425 5.901c0 0.998-0.789 1.808-1.762 1.808s-1.762-0.809-1.762-1.808c0-0.998 0.789-1.808 1.762-1.808s1.762 0.809 1.762 1.808z"></path>
<path d="M310.536 3.49c0 0.998-0.789 1.808-1.762 1.808s-1.762-0.809-1.762-1.808c0-0.998 0.789-1.808 1.762-1.808s1.762 0.809 1.762 1.808z"></path>
<path d="M297.321 16.749c0 0.998-0.789 1.808-1.762 1.808s-1.762-0.809-1.762-1.808c0-0.998 0.789-1.808 1.762-1.808s1.762 0.809 1.762 1.808z"></path>
<path d="M301.139 14.338c0 0.998-0.789 1.808-1.762 1.808s-1.762-0.809-1.762-1.808c0-0.998 0.789-1.808 1.762-1.808s1.762 0.809 1.762 1.808z"></path>
<path d="M305.544 11.626c0 0.998-0.789 1.808-1.762 1.808s-1.762-0.809-1.762-1.808c0-0.998 0.789-1.808 1.762-1.808s1.762 0.809 1.762 1.808z"></path>
<path d="M309.655 9.216c0 0.998-0.789 1.808-1.762 1.808s-1.762-0.809-1.762-1.808c0-0.998 0.789-1.808 1.762-1.808s1.762 0.809 1.762 1.808z"></path>
<path d="M278.819 8.010c0 0.998-0.789 1.808-1.762 1.808s-1.762-0.809-1.762-1.808c0-0.998 0.789-1.808 1.762-1.808s1.762 0.809 1.762 1.808z"></path>
<path d="M282.636 5.599c0 0.998-0.789 1.808-1.762 1.808s-1.762-0.809-1.762-1.808c0-0.998 0.789-1.808 1.762-1.808s1.762 0.809 1.762 1.808z"></path>
<path d="M287.042 2.888c0 0.998-0.789 1.808-1.762 1.808s-1.762-0.809-1.762-1.808c0-0.998 0.789-1.808 1.762-1.808s1.762 0.809 1.762 1.808z"></path>
<path d="M284.986 9.818c0.973 0 1.762-0.809 1.762-1.808s-0.789-1.808-1.762-1.808-1.762 0.809-1.762 1.808c0 0.998 0.789 1.808 1.762 1.808z"></path>
<path d="M3.524 28.466c0 0.998-0.789 1.808-1.762 1.808s-1.762-0.809-1.762-1.808c0-0.998 0.789-1.808 1.762-1.808s1.762 0.809 1.762 1.808z"></path>
<path d="M7.342 26.055c0 0.998-0.789 1.808-1.762 1.808s-1.762-0.809-1.762-1.808c0-0.998 0.789-1.808 1.762-1.808s1.762 0.809 1.762 1.808z"></path>
<path d="M11.747 23.343c0 0.998-0.789 1.808-1.762 1.808s-1.762-0.809-1.762-1.808c0-0.998 0.789-1.808 1.762-1.808s1.762 0.809 1.762 1.808z"></path>
<path d="M15.859 20.933c0 0.998-0.789 1.808-1.762 1.808s-1.762-0.809-1.762-1.808c0-0.998 0.789-1.808 1.762-1.808s1.762 0.809 1.762 1.808z"></path>
<path d="M25.845 29.37c0 0.998-0.789 1.808-1.762 1.808s-1.762-0.809-1.762-1.808c0-0.998 0.789-1.808 1.762-1.808s1.762 0.809 1.762 1.808z"></path>
<path d="M29.662 26.959c0 0.998-0.789 1.808-1.762 1.808s-1.762-0.809-1.762-1.808c0-0.998 0.789-1.808 1.762-1.808s1.762 0.809 1.762 1.808z"></path>
<path d="M34.068 24.247c0 0.998-0.789 1.808-1.762 1.808s-1.762-0.809-1.762-1.808c0-0.998 0.789-1.808 1.762-1.808s1.762 0.809 1.762 1.808z"></path>
<path d="M38.179 21.837c0 0.998-0.789 1.808-1.762 1.808s-1.762-0.809-1.762-1.808c0-0.998 0.789-1.808 1.762-1.808s1.762 0.809 1.762 1.808z"></path>
<path d="M34.949 28.164c0 0.998-0.789 1.808-1.762 1.808s-1.762-0.809-1.762-1.808c0-0.998 0.789-1.808 1.762-1.808s1.762 0.809 1.762 1.808z"></path>
<path d="M38.767 25.754c0 0.998-0.789 1.808-1.762 1.808s-1.762-0.809-1.762-1.808c0-0.998 0.789-1.808 1.762-1.808s1.762 0.809 1.762 1.808z"></path>
<path d="M43.172 23.042c0 0.998-0.789 1.808-1.762 1.808s-1.762-0.809-1.762-1.808c0-0.998 0.789-1.808 1.762-1.808s1.762 0.809 1.762 1.808z"></path>
<path d="M47.283 20.631c0 0.998-0.789 1.808-1.762 1.808s-1.762-0.809-1.762-1.808c0-0.998 0.789-1.808 1.762-1.808s1.762 0.809 1.762 1.808z"></path>
<path d="M51.689 17.015c0 0.998-0.789 1.808-1.762 1.808s-1.762-0.809-1.762-1.808c0-0.998 0.789-1.808 1.762-1.808s1.762 0.809 1.762 1.808z"></path>
<path d="M42.291 19.125c0 0.998-0.789 1.808-1.762 1.808s-1.762-0.809-1.762-1.808c0-0.998 0.789-1.808 1.762-1.808s1.762 0.809 1.762 1.808z"></path>
<path d="M17.621 29.069c0 0.998-0.789 1.808-1.762 1.808s-1.762-0.809-1.762-1.808c0-0.998 0.789-1.808 1.762-1.808s1.762 0.809 1.762 1.808z"></path>
<path d="M21.439 26.658c0 0.998-0.789 1.808-1.762 1.808s-1.762-0.809-1.762-1.808c0-0.998 0.789-1.808 1.762-1.808s1.762 0.809 1.762 1.808z"></path>
<path d="M25.845 23.946c0 0.998-0.789 1.808-1.762 1.808s-1.762-0.809-1.762-1.808c0-0.998 0.789-1.808 1.762-1.808s1.762 0.809 1.762 1.808z"></path>
<path d="M29.956 21.535c0 0.998-0.789 1.808-1.762 1.808s-1.762-0.809-1.762-1.808c0-0.998 0.789-1.808 1.762-1.808s1.762 0.809 1.762 1.808z"></path>
<path d="M10.279 28.767c0 0.998-0.789 1.808-1.762 1.808s-1.762-0.809-1.762-1.808c0-0.998 0.789-1.808 1.762-1.808s1.762 0.809 1.762 1.808z"></path>
<path d="M14.097 26.356c0 0.998-0.789 1.808-1.762 1.808s-1.762-0.809-1.762-1.808c0-0.998 0.789-1.808 1.762-1.808s1.762 0.809 1.762 1.808z"></path>
<path d="M18.502 23.644c0 0.998-0.789 1.808-1.762 1.808s-1.762-0.809-1.762-1.808c0-0.998 0.789-1.808 1.762-1.808s1.762 0.809 1.762 1.808z"></path>
<path d="M22.614 21.234c0 0.998-0.789 1.808-1.762 1.808s-1.762-0.809-1.762-1.808c0-0.998 0.789-1.808 1.762-1.808s1.762 0.809 1.762 1.808z"></path>
</symbol>
<symbol id="dots-background-480" viewBox="0 0 204 32">
<path d="M153.984 29.307c0 0.972-0.766 1.759-1.712 1.759s-1.712-0.788-1.712-1.759c0-0.972 0.766-1.759 1.712-1.759s1.712 0.788 1.712 1.759z"></path>
<path d="M157.693 26.961c0 0.972-0.766 1.759-1.712 1.759s-1.712-0.788-1.712-1.759c0-0.972 0.766-1.759 1.712-1.759s1.712 0.788 1.712 1.759z"></path>
<path d="M161.971 24.322c0 0.972-0.766 1.759-1.712 1.759s-1.712-0.788-1.712-1.759c0-0.972 0.766-1.759 1.712-1.759s1.712 0.788 1.712 1.759z"></path>
<path d="M165.966 21.976c0 0.972-0.766 1.759-1.712 1.759s-1.712-0.788-1.712-1.759c0-0.972 0.766-1.759 1.712-1.759s1.712 0.788 1.712 1.759z"></path>
<path d="M163.683 28.134c0 0.972-0.766 1.759-1.712 1.759s-1.712-0.788-1.712-1.759c0-0.972 0.766-1.759 1.712-1.759s1.712 0.788 1.712 1.759z"></path>
<path d="M167.392 25.789c0 0.972-0.766 1.759-1.712 1.759s-1.712-0.788-1.712-1.759c0-0.972 0.766-1.759 1.712-1.759s1.712 0.788 1.712 1.759z"></path>
<path d="M171.671 23.149c0 0.972-0.766 1.759-1.712 1.759s-1.712-0.788-1.712-1.759c0-0.972 0.766-1.759 1.712-1.759s1.712 0.788 1.712 1.759z"></path>
<path d="M175.665 20.804c0 0.972-0.766 1.759-1.712 1.759s-1.712-0.788-1.712-1.759c0-0.972 0.766-1.759 1.712-1.759s1.712 0.788 1.712 1.759z"></path>
<path d="M171.957 27.255c0 0.972-0.766 1.759-1.712 1.759s-1.712-0.788-1.712-1.759c0-0.972 0.766-1.759 1.712-1.759s1.712 0.788 1.712 1.759z"></path>
<path d="M175.666 24.909c0 0.972-0.766 1.759-1.712 1.759s-1.712-0.788-1.712-1.759c0-0.972 0.766-1.759 1.712-1.759s1.712 0.788 1.712 1.759z"></path>
<path d="M179.945 22.27c0 0.972-0.766 1.759-1.712 1.759s-1.712-0.788-1.712-1.759c0-0.972 0.766-1.759 1.712-1.759s1.712 0.788 1.712 1.759z"></path>
<path d="M183.938 19.924c0 0.972-0.766 1.759-1.712 1.759s-1.712-0.788-1.712-1.759c0-0.972 0.766-1.759 1.712-1.759s1.712 0.788 1.712 1.759z"></path>
<path d="M179.945 26.082c0 0.972-0.766 1.759-1.712 1.759s-1.712-0.788-1.712-1.759c0-0.972 0.766-1.759 1.712-1.759s1.712 0.788 1.712 1.759z"></path>
<path d="M183.653 23.736c0 0.972-0.766 1.759-1.712 1.759s-1.712-0.788-1.712-1.759c0-0.972 0.766-1.759 1.712-1.759s1.712 0.788 1.712 1.759z"></path>
<path d="M187.932 21.097c0 0.972-0.766 1.759-1.712 1.759s-1.712-0.788-1.712-1.759c0-0.972 0.766-1.759 1.712-1.759s1.712 0.788 1.712 1.759z"></path>
<path d="M191.927 18.751c0 0.972-0.766 1.759-1.712 1.759s-1.712-0.788-1.712-1.759c0-0.972 0.766-1.759 1.712-1.759s1.712 0.788 1.712 1.759z"></path>
<path d="M182.512 29.307c0 0.972-0.766 1.759-1.712 1.759s-1.712-0.788-1.712-1.759c0-0.972 0.766-1.759 1.712-1.759s1.712 0.788 1.712 1.759z"></path>
<path d="M186.222 26.961c0 0.972-0.766 1.759-1.712 1.759s-1.712-0.788-1.712-1.759c0-0.972 0.766-1.759 1.712-1.759s1.712 0.788 1.712 1.759z"></path>
<path d="M191.357 29.601c0 0.972-0.766 1.759-1.712 1.759s-1.712-0.788-1.712-1.759c0-0.972 0.766-1.759 1.712-1.759s1.712 0.788 1.712 1.759z"></path>
<path d="M190.501 24.322c0 0.972-0.766 1.759-1.712 1.759s-1.712-0.788-1.712-1.759c0-0.972 0.766-1.759 1.712-1.759s1.712 0.788 1.712 1.759z"></path>
<path d="M195.636 26.961c0 0.972-0.766 1.759-1.712 1.759s-1.712-0.788-1.712-1.759c0-0.972 0.766-1.759 1.712-1.759s1.712 0.788 1.712 1.759z"></path>
<path d="M199.63 29.601c0 0.972-0.766 1.759-1.712 1.759s-1.712-0.788-1.712-1.759c0-0.972 0.766-1.759 1.712-1.759s1.712 0.788 1.712 1.759z"></path>
<path d="M194.494 21.976c0 0.972-0.766 1.759-1.712 1.759s-1.712-0.788-1.712-1.759c0-0.972 0.766-1.759 1.712-1.759s1.712 0.788 1.712 1.759z"></path>
<path d="M199.63 24.615c0 0.972-0.766 1.759-1.712 1.759s-1.712-0.788-1.712-1.759c0-0.972 0.766-1.759 1.712-1.759s1.712 0.788 1.712 1.759z"></path>
<path d="M203.624 27.255c0 0.972-0.766 1.759-1.712 1.759s-1.712-0.788-1.712-1.759c0-0.972 0.766-1.759 1.712-1.759s1.712 0.788 1.712 1.759z"></path>
<path d="M136.582 9.954c0 0.972-0.766 1.759-1.712 1.759s-1.712-0.788-1.712-1.759c0-0.972 0.766-1.759 1.712-1.759s1.712 0.788 1.712 1.759z"></path>
<path d="M140.29 7.608c0 0.972-0.766 1.759-1.712 1.759s-1.712-0.788-1.712-1.759c0-0.972 0.766-1.759 1.712-1.759s1.712 0.788 1.712 1.759z"></path>
<path d="M144.571 4.969c0 0.972-0.766 1.759-1.712 1.759s-1.712-0.788-1.712-1.759c0-0.972 0.766-1.759 1.712-1.759s1.712 0.788 1.712 1.759z"></path>
<path d="M148.564 2.623c0 0.972-0.766 1.759-1.712 1.759s-1.712-0.788-1.712-1.759c0-0.972 0.766-1.759 1.712-1.759s1.712 0.788 1.712 1.759z"></path>
<path d="M129.449 9.66c0 0.972-0.766 1.759-1.712 1.759s-1.712-0.788-1.712-1.759c0-0.972 0.766-1.759 1.712-1.759s1.712 0.788 1.712 1.759z"></path>
<path d="M133.157 7.315c0 0.972-0.766 1.759-1.712 1.759s-1.712-0.788-1.712-1.759c0-0.972 0.766-1.759 1.712-1.759s1.712 0.788 1.712 1.759z"></path>
<path d="M137.437 4.676c0 0.972-0.766 1.759-1.712 1.759s-1.712-0.788-1.712-1.759c0-0.972 0.766-1.759 1.712-1.759s1.712 0.788 1.712 1.759z"></path>
<path d="M141.431 2.33c0 0.972-0.766 1.759-1.712 1.759s-1.712-0.788-1.712-1.759c0-0.972 0.766-1.759 1.712-1.759s1.712 0.788 1.712 1.759z"></path>
<path d="M145.425 29.307c0 0.972-0.766 1.759-1.712 1.759s-1.712-0.788-1.712-1.759c0-0.972 0.766-1.759 1.712-1.759s1.712 0.788 1.712 1.759z"></path>
<path d="M149.133 26.961c0 0.972-0.766 1.759-1.712 1.759s-1.712-0.788-1.712-1.759c0-0.972 0.766-1.759 1.712-1.759s1.712 0.788 1.712 1.759z"></path>
<path d="M153.412 24.322c0 0.972-0.766 1.759-1.712 1.759s-1.712-0.788-1.712-1.759c0-0.972 0.766-1.759 1.712-1.759s1.712 0.788 1.712 1.759z"></path>
<path d="M157.407 21.976c0 0.972-0.766 1.759-1.712 1.759s-1.712-0.788-1.712-1.759c0-0.972 0.766-1.759 1.712-1.759s1.712 0.788 1.712 1.759z"></path>
<path d="M140.861 27.548c0 0.972-0.766 1.759-1.712 1.759s-1.712-0.788-1.712-1.759c0-0.972 0.766-1.759 1.712-1.759s1.712 0.788 1.712 1.759z"></path>
<path d="M144.569 25.202c0 0.972-0.766 1.759-1.712 1.759s-1.712-0.788-1.712-1.759c0-0.972 0.766-1.759 1.712-1.759s1.712 0.788 1.712 1.759z"></path>
<path d="M148.848 22.563c0 0.972-0.766 1.759-1.712 1.759s-1.712-0.788-1.712-1.759c0-0.972 0.766-1.759 1.712-1.759s1.712 0.788 1.712 1.759z"></path>
<path d="M152.843 20.217c0 0.972-0.766 1.759-1.712 1.759s-1.712-0.788-1.712-1.759c0-0.972 0.766-1.759 1.712-1.759s1.712 0.788 1.712 1.759z"></path>
<path d="M142.572 21.39c0 0.972-0.766 1.759-1.712 1.759s-1.712-0.788-1.712-1.759c0-0.972 0.766-1.759 1.712-1.759s1.712 0.788 1.712 1.759z"></path>
<path d="M146.28 19.044c0 0.972-0.766 1.759-1.712 1.759s-1.712-0.788-1.712-1.759c0-0.972 0.766-1.759 1.712-1.759s1.712 0.788 1.712 1.759z"></path>
<path d="M150.561 16.405c0 0.972-0.766 1.759-1.712 1.759s-1.712-0.788-1.712-1.759c0-0.972 0.766-1.759 1.712-1.759s1.712 0.788 1.712 1.759z"></path>
<path d="M154.555 14.059c0 0.972-0.766 1.759-1.712 1.759s-1.712-0.788-1.712-1.759c0-0.972 0.766-1.759 1.712-1.759s1.712 0.788 1.712 1.759z"></path>
<path d="M142.572 11.127c0 0.972-0.766 1.759-1.712 1.759s-1.712-0.788-1.712-1.759c0-0.972 0.766-1.759 1.712-1.759s1.712 0.788 1.712 1.759z"></path>
<path d="M146.28 8.781c0 0.972-0.766 1.759-1.712 1.759s-1.712-0.788-1.712-1.759c0-0.972 0.766-1.759 1.712-1.759s1.712 0.788 1.712 1.759z"></path>
<path d="M150.561 6.142c0 0.972-0.766 1.759-1.712 1.759s-1.712-0.788-1.712-1.759c0-0.972 0.766-1.759 1.712-1.759s1.712 0.788 1.712 1.759z"></path>
<path d="M154.555 3.796c0 0.972-0.766 1.759-1.712 1.759s-1.712-0.788-1.712-1.759c0-0.972 0.766-1.759 1.712-1.759s1.712 0.788 1.712 1.759z"></path>
<path d="M141.717 16.699c0 0.972-0.766 1.759-1.712 1.759s-1.712-0.788-1.712-1.759c0-0.972 0.766-1.759 1.712-1.759s1.712 0.788 1.712 1.759z"></path>
<path d="M145.426 14.352c0 0.972-0.766 1.759-1.712 1.759s-1.712-0.788-1.712-1.759c0-0.972 0.766-1.759 1.712-1.759s1.712 0.788 1.712 1.759z"></path>
<path d="M149.705 11.713c0 0.972-0.766 1.759-1.712 1.759s-1.712-0.788-1.712-1.759c0-0.972 0.766-1.759 1.712-1.759s1.712 0.788 1.712 1.759z"></path>
<path d="M153.698 9.368c0 0.972-0.766 1.759-1.712 1.759s-1.712-0.788-1.712-1.759c0-0.972 0.766-1.759 1.712-1.759s1.712 0.788 1.712 1.759z"></path>
<path d="M123.744 8.194c0 0.972-0.766 1.759-1.712 1.759s-1.712-0.788-1.712-1.759c0-0.972 0.766-1.759 1.712-1.759s1.712 0.788 1.712 1.759z"></path>
<path d="M127.453 5.848c0 0.972-0.766 1.759-1.712 1.759s-1.712-0.788-1.712-1.759c0-0.972 0.766-1.759 1.712-1.759s1.712 0.788 1.712 1.759z"></path>
<path d="M131.732 3.209c0 0.972-0.766 1.759-1.712 1.759s-1.712-0.788-1.712-1.759c0-0.972 0.766-1.759 1.712-1.759s1.712 0.788 1.712 1.759z"></path>
<path d="M129.735 9.954c0.945 0 1.711-0.788 1.711-1.759s-0.766-1.759-1.711-1.759-1.712 0.788-1.712 1.759c0 0.972 0.767 1.759 1.712 1.759z"></path>
<path d="M51.023 21.253c0.145 0.975-0.505 1.886-1.454 2.035s-1.835-0.52-1.98-1.494c-0.145-0.975 0.505-1.886 1.454-2.035s1.835 0.52 1.98 1.494z"></path>
<path d="M54.392 18.313c0.145 0.975-0.505 1.886-1.454 2.035s-1.835-0.52-1.98-1.494c-0.145-0.975 0.505-1.886 1.454-2.035s1.835 0.52 1.98 1.494z"></path>
<path d="M58.29 14.989c0.145 0.975-0.505 1.886-1.454 2.035s-1.835-0.52-1.98-1.494c-0.145-0.975 0.505-1.886 1.454-2.035s1.835 0.52 1.98 1.494z"></path>
<path d="M61.946 12.005c0.145 0.975-0.505 1.886-1.454 2.035s-1.835-0.52-1.98-1.494c-0.145-0.975 0.505-1.886 1.454-2.035s1.835 0.52 1.98 1.494z"></path>
<path d="M0.197 18.87c0 0.986-0.778 1.785-1.737 1.785s-1.737-0.799-1.737-1.785c0-0.986 0.778-1.785 1.737-1.785s1.737 0.799 1.737 1.785z"></path>
<path d="M4.541 16.192c0 0.986-0.778 1.785-1.737 1.785s-1.737-0.799-1.737-1.785c0-0.986 0.778-1.785 1.737-1.785s1.737 0.799 1.737 1.785z"></path>
<path d="M8.594 13.811c0 0.986-0.778 1.785-1.737 1.785s-1.737-0.799-1.737-1.785c0-0.986 0.778-1.785 1.737-1.785s1.737 0.799 1.737 1.785z"></path>
<path d="M1.935 23.333c0 0.986-0.778 1.785-1.737 1.785s-1.737-0.799-1.737-1.785c0-0.986 0.778-1.785 1.737-1.785s1.737 0.799 1.737 1.785z"></path>
<path d="M6.279 20.655c0 0.986-0.778 1.785-1.737 1.785s-1.737-0.799-1.737-1.785c0-0.986 0.778-1.785 1.737-1.785s1.737 0.799 1.737 1.785z"></path>
<path d="M10.331 18.274c0 0.986-0.778 1.785-1.737 1.785s-1.737-0.799-1.737-1.785c0-0.986 0.778-1.785 1.737-1.785s1.737 0.799 1.737 1.785z"></path>
<path d="M2.514 28.094c0 0.986-0.778 1.785-1.737 1.785s-1.737-0.799-1.737-1.785c0-0.986 0.778-1.785 1.737-1.785s1.737 0.799 1.737 1.785z"></path>
<path d="M6.277 25.714c0 0.986-0.778 1.785-1.737 1.785s-1.737-0.799-1.737-1.785c0-0.986 0.778-1.785 1.737-1.785s1.737 0.799 1.737 1.785z"></path>
<path d="M10.62 23.036c0 0.986-0.778 1.785-1.737 1.785s-1.737-0.799-1.737-1.785c0-0.986 0.778-1.785 1.737-1.785s1.737 0.799 1.737 1.785z"></path>
<path d="M14.673 20.655c0 0.986-0.778 1.785-1.737 1.785s-1.737-0.799-1.737-1.785c0-0.986 0.778-1.785 1.737-1.785s1.737 0.799 1.737 1.785z"></path>
<path d="M7.434 29.583c0 0.986-0.778 1.785-1.737 1.785s-1.737-0.799-1.737-1.785c0-0.986 0.778-1.785 1.737-1.785s1.737 0.799 1.737 1.785z"></path>
<path d="M11.198 27.202c0 0.986-0.778 1.785-1.737 1.785s-1.737-0.799-1.737-1.785c0-0.986 0.778-1.785 1.737-1.785s1.737 0.799 1.737 1.785z"></path>
<path d="M15.542 24.524c0 0.986-0.778 1.785-1.737 1.785s-1.737-0.799-1.737-1.785c0-0.986 0.778-1.785 1.737-1.785s1.737 0.799 1.737 1.785z"></path>
<path d="M19.593 22.143c0 0.986-0.778 1.785-1.737 1.785s-1.737-0.799-1.737-1.785c0-0.986 0.778-1.785 1.737-1.785s1.737 0.799 1.737 1.785z"></path>
<path d="M13.805 29.88c0 0.986-0.778 1.785-1.737 1.785s-1.737-0.799-1.737-1.785c0-0.986 0.778-1.785 1.737-1.785s1.737 0.799 1.737 1.785z"></path>
<path d="M17.568 27.5c0 0.986-0.778 1.785-1.737 1.785s-1.737-0.799-1.737-1.785c0-0.986 0.778-1.785 1.737-1.785s1.737 0.799 1.737 1.785z"></path>
<path d="M21.912 24.821c0 0.986-0.778 1.785-1.737 1.785s-1.737-0.799-1.737-1.785c0-0.986 0.778-1.785 1.737-1.785s1.737 0.799 1.737 1.785z"></path>
<path d="M25.964 22.441c0 0.986-0.778 1.785-1.737 1.785s-1.737-0.799-1.737-1.785c0-0.986 0.778-1.785 1.737-1.785s1.737 0.799 1.737 1.785z"></path>
<path d="M21.332 29.88c0 0.986-0.778 1.785-1.737 1.785s-1.737-0.799-1.737-1.785c0-0.986 0.778-1.785 1.737-1.785s1.737 0.799 1.737 1.785z"></path>
<path d="M25.095 27.499c0 0.986-0.778 1.785-1.737 1.785s-1.737-0.799-1.737-1.785c0-0.986 0.778-1.785 1.737-1.785s1.737 0.799 1.737 1.785z"></path>
<path d="M29.438 24.821c0 0.986-0.778 1.785-1.737 1.785s-1.737-0.799-1.737-1.785c0-0.986 0.778-1.785 1.737-1.785s1.737 0.799 1.737 1.785z"></path>
<path d="M33.492 22.441c0 0.986-0.778 1.785-1.737 1.785s-1.737-0.799-1.737-1.785c0-0.986 0.778-1.785 1.737-1.785s1.737 0.799 1.737 1.785z"></path>
<path d="M27.7 29.582c0 0.986-0.778 1.785-1.737 1.785s-1.737-0.799-1.737-1.785c0-0.986 0.778-1.785 1.737-1.785s1.737 0.799 1.737 1.785z"></path>
<path d="M31.464 27.202c0 0.986-0.778 1.785-1.737 1.785s-1.737-0.799-1.737-1.785c0-0.986 0.778-1.785 1.737-1.785s1.737 0.799 1.737 1.785z"></path>
<path d="M35.807 24.524c0 0.986-0.778 1.785-1.737 1.785s-1.737-0.799-1.737-1.785c0-0.986 0.778-1.785 1.737-1.785s1.737 0.799 1.737 1.785z"></path>
<path d="M39.86 22.143c0 0.986-0.778 1.785-1.737 1.785s-1.737-0.799-1.737-1.785c0-0.986 0.778-1.785 1.737-1.785s1.737 0.799 1.737 1.785z"></path>
<path d="M34.938 29.285c0 0.986-0.778 1.785-1.737 1.785s-1.737-0.799-1.737-1.785c0-0.986 0.778-1.785 1.737-1.785s1.737 0.799 1.737 1.785z"></path>
<path d="M38.702 26.904c0 0.986-0.778 1.785-1.737 1.785s-1.737-0.799-1.737-1.785c0-0.986 0.778-1.785 1.737-1.785s1.737 0.799 1.737 1.785z"></path>
<path d="M43.045 24.226c0 0.986-0.778 1.785-1.737 1.785s-1.737-0.799-1.737-1.785c0-0.986 0.778-1.785 1.737-1.785s1.737 0.799 1.737 1.785z"></path>
<path d="M47.097 21.845c0 0.986-0.778 1.785-1.737 1.785s-1.737-0.799-1.737-1.785c0-0.986 0.778-1.785 1.737-1.785s1.737 0.799 1.737 1.785z"></path>
<path d="M41.597 21.548c0 0.986-0.778 1.785-1.737 1.785s-1.737-0.799-1.737-1.785c0-0.986 0.778-1.785 1.737-1.785s1.737 0.799 1.737 1.785z"></path>
<path d="M45.36 19.167c0 0.986-0.778 1.785-1.737 1.785s-1.737-0.799-1.737-1.785c0-0.986 0.778-1.785 1.737-1.785s1.737 0.799 1.737 1.785z"></path>
<path d="M49.703 16.489c0 0.986-0.778 1.785-1.737 1.785s-1.737-0.799-1.737-1.785c0-0.986 0.778-1.785 1.737-1.785s1.737 0.799 1.737 1.785z"></path>
<path d="M53.756 14.108c0 0.986-0.778 1.785-1.737 1.785s-1.737-0.799-1.737-1.785c0-0.986 0.778-1.785 1.737-1.785s1.737 0.799 1.737 1.785z"></path>
</symbol>
<symbol id="close-button" viewBox="0 0 32 32">
<path d="M17.253 16l7.369-7.369c0.146-0.17 0.222-0.389 0.213-0.613s-0.101-0.436-0.26-0.594c-0.158-0.158-0.37-0.251-0.594-0.26s-0.442 0.067-0.612 0.213l-7.369 7.369-7.369-7.378c-0.167-0.167-0.394-0.261-0.631-0.261s-0.464 0.094-0.631 0.261c-0.167 0.167-0.261 0.394-0.261 0.631s0.094 0.464 0.261 0.631l7.378 7.369-7.378 7.369c-0.093 0.080-0.169 0.178-0.222 0.288s-0.083 0.23-0.088 0.353c-0.005 0.123 0.016 0.245 0.061 0.359s0.112 0.218 0.199 0.304c0.087 0.087 0.19 0.154 0.304 0.199s0.236 0.065 0.359 0.060c0.122-0.005 0.243-0.035 0.353-0.088s0.208-0.129 0.288-0.222l7.378-7.369 7.369 7.369c0.17 0.146 0.389 0.222 0.612 0.213s0.436-0.101 0.594-0.26c0.158-0.158 0.251-0.37 0.26-0.594s-0.067-0.442-0.213-0.612l-7.369-7.369z"></path>
</symbol>
<symbol id="cow" viewBox="0 0 32 32">
<path d="M10.3 23.558c-2.008-2.017-2.458-4.525-2.242-7.225 0-0.017-0.008-0.025-0.025-0.025-0.725-0.075-1.392-0.133-2.050-0.225-0.9-0.125-1.775-0.325-2.583-0.75-0.317-0.167-0.625-0.383-0.875-0.633-0.55-0.542-0.533-1.275-0.017-1.842 0.392-0.425 0.892-0.675 1.417-0.875 0.992-0.367 2.017-0.55 3.067-0.633 0.15-0.008 0.308-0.033 0.475-0.050-0.017-0.050-0.025-0.083-0.042-0.1-1.617-1.958-1.817-4.142-0.967-6.467 0.208-0.567 0.525-1.1 0.8-1.65 0.125-0.242 0.317-0.392 0.6-0.333s0.392 0.267 0.433 0.542c0.283 1.608 0.792 3.133 1.817 4.45l0.075 0.1c0.408 0.575 0.892 0.85 1.683 0.833 2.725-0.075 5.45-0.058 8.175-0.008 0.675 0.017 1.075-0.233 1.467-0.7 0.992-1.183 1.558-2.558 1.892-4.050 0.050-0.233 0.092-0.467 0.133-0.7 0.050-0.233 0.167-0.408 0.408-0.458 0.25-0.050 0.442 0.042 0.583 0.267 0.975 1.592 1.558 3.292 1.308 5.2-0.133 1.008-0.517 1.917-1.125 2.733l-0.233 0.308c-0.008 0.017 0 0.042 0.017 0.042 0.35 0.042 0.675 0.067 0.983 0.108 0.983 0.125 1.95 0.308 2.842 0.758 0.367 0.183 0.725 0.425 1.008 0.708 0.533 0.533 0.508 1.258 0 1.817-0.45 0.492-1.042 0.742-1.65 0.958-1.15 0.4-2.342 0.533-3.55 0.608-0.075 0.008-0.15 0.008-0.258 0.017-0.017 0-0.025 0.008-0.025 0.025v1.725c0 1.925-0.633 3.617-1.858 5.1-0.133 0.158-0.283 0.317-0.383 0.425-0.008 0.008-0.008 0.017 0 0.025 0.325 0.417 0.5 0.908 0.542 1.358 0.092 0.975-0.125 1.758-0.775 2.442-0.9 0.958-2.067 1.45-3.325 1.708-2.167 0.45-4.283 0.317-6.275-0.725-0.517-0.267-1-0.65-1.4-1.075-0.992-1.058-1.033-2.35-0.2-3.525 0.042-0.050 0.075-0.108 0.125-0.175 0.017-0.008 0.017-0.025 0.008-0.033zM20.8 22.842c0.008 0.008 0.025 0 0.025 0 1.050-0.95 1.917-2.783 1.958-4.233 0.025-0.875 0.017-1.75 0.025-2.617 0-0.583 0.167-0.717 0.733-0.758 0.9-0.067 1.8-0.133 2.692-0.267 0.758-0.117 1.5-0.333 2.142-0.792 0.392-0.283 0.408-0.533 0-0.758-0.492-0.275-1.017-0.508-1.558-0.675-1.075-0.317-2.183-0.4-3.3-0.408-0.525-0.008-0.65-0.125-0.733-0.642-0.15-0.983-0.967-1.825-1.958-1.958-0.5-0.067-1.017-0.058-1.525-0.058-2.567-0.008-5.133-0.008-7.708 0-1.317 0-2.258 0.8-2.483 2.075-0.075 0.417-0.25 0.558-0.675 0.583-0.717 0.042-1.433 0.067-2.142 0.15-0.917 0.117-1.825 0.308-2.633 0.783-0.633 0.367-0.633 0.658 0 1.033 0.708 0.417 1.492 0.625 2.3 0.725 0.825 0.108 1.65 0.142 2.483 0.208 0.442 0.033 0.617 0.2 0.625 0.642 0 0.258-0.008 0.517 0 0.783 0.050 0.958 0.033 1.933 0.192 2.883 0.217 1.292 0.875 2.392 1.758 3.283 0.008 0.008 0.017 0.008 0.033 0.008 3.267-1.792 6.483-1.792 9.75 0.008zM15.883 28.333c0.683-0.017 1.358-0.092 2-0.275 1.025-0.217 1.992-0.6 2.733-1.392 0.767-0.825 0.75-1.842-0.1-2.575-0.442-0.375-0.95-0.708-1.483-0.933-1.558-0.667-3.2-0.725-4.85-0.433-1.025 0.183-1.983 0.567-2.8 1.258-0.925 0.783-0.992 1.892-0.142 2.742 0.208 0.208 0.45 0.4 0.708 0.558 1.2 0.733 2.533 0.983 3.933 1.050zM23.55 10.675c0.008 0.017 0.033 0.017 0.042 0.008 0.742-0.825 1.158-1.758 1.25-2.817 0.083-1.025-0.083-2.017-0.55-3.025-0.008-0.025-0.042-0.017-0.050 0-0.458 1.6-1.158 2.983-2.267 4.15-0.008 0.008-0.008 0.033 0.008 0.042 0.708 0.383 1.208 0.917 1.567 1.642zM9.858 9.008c-1.133-1.183-1.8-2.583-2.258-4.117-0.008-0.025-0.033-0.025-0.050-0.008-0.858 1.733-0.75 4.192 0.775 5.725 0.008 0.008 0.033 0.008 0.042-0.008 0.325-0.667 0.817-1.167 1.483-1.55 0.017-0.008 0.017-0.033 0.008-0.042z"></path>
<path d="M12.308 12.842c0.708 0 1.275 0.333 1.75 0.817 0.217 0.217 0.208 0.517 0.008 0.725-0.183 0.192-0.475 0.208-0.708 0.033-0.075-0.058-0.142-0.125-0.208-0.183-0.542-0.45-1.142-0.458-1.708-0.042-0.083 0.058-0.158 0.142-0.233 0.2-0.233 0.192-0.533 0.192-0.725-0.008-0.208-0.217-0.208-0.517 0.025-0.75 0.5-0.483 1.083-0.792 1.8-0.792zM19.575 12.842c0.725 0.008 1.3 0.333 1.775 0.842 0.183 0.2 0.175 0.483 0 0.683-0.183 0.2-0.475 0.225-0.7 0.050-0.058-0.042-0.108-0.092-0.167-0.142-0.625-0.525-1.242-0.525-1.875 0-0.108 0.092-0.225 0.2-0.358 0.233-0.225 0.067-0.442-0.008-0.567-0.225-0.125-0.225-0.108-0.442 0.075-0.625 0.5-0.5 1.092-0.817 1.817-0.817zM18.925 24.392c0.342 0 0.567 0.175 0.6 0.458s-0.167 0.533-0.5 0.558c-0.367 0.033-0.533 0.192-0.55 0.567-0.008 0.308-0.25 0.492-0.542 0.475s-0.492-0.258-0.492-0.575c0-0.842 0.65-1.483 1.483-1.483zM14.342 25.925c0 0.017-0.017 0.025-0.025 0.025h-0.592c-0.217 0-0.4 0.008-0.458-0.283-0.017-0.1-0.25-0.192-0.392-0.225-0.267-0.050-0.483-0.133-0.558-0.417s0.125-0.575 0.408-0.625c0.883-0.158 1.717 0.633 1.617 1.525z"></path>
</symbol>
<symbol id="kettlebell" viewBox="0 0 32 32">
<path d="M15.75 28.375c-1.475 0-2.95 0.017-4.417-0.008-0.292-0.008-0.633-0.1-0.875-0.267-3.092-2.117-4.6-5.067-4.45-8.817 0.083-1.992 0.8-3.792 2.033-5.367 0.15-0.192 0.308-0.333 0.125-0.625-1.683-2.608-0.9-5.542 1.3-7.4 2.192-1.85 4.775-2.425 7.575-2.125 2.133 0.225 4.033 1.033 5.55 2.592 1.917 1.967 2.233 4.525 0.833 6.883-0.183 0.308-0.075 0.458 0.092 0.683 3.475 4.525 2.45 10.908-2.283 14.083-0.3 0.2-0.708 0.317-1.067 0.325-1.475 0.033-2.95 0.017-4.417 0.017v0.025zM15.783 27.4v-0.017c1.35 0 2.7-0.025 4.050 0.008 0.517 0.017 0.9-0.15 1.292-0.45 4.083-3.167 4.692-8.867 1.342-12.808-0.342-0.4-0.342-0.7-0.033-1.1 0.583-0.775 0.925-1.658 0.917-2.633-0.008-1.775-0.883-3.1-2.267-4.117-3.033-2.233-7.667-2.2-10.683 0.067-2.242 1.683-2.967 4.475-1.167 6.825 0.292 0.383 0.133 0.65-0.133 0.967-3.4 3.892-2.658 10 1.575 12.958 0.267 0.183 0.633 0.292 0.958 0.3 1.383 0.025 2.767 0 4.15 0z"></path>
<path d="M15.75 5.608c1.758 0.058 3.35 0.483 4.717 1.592 1.567 1.275 2.033 3.25 1.158 4.892-0.35 0.65-0.525 0.683-1.142 0.325-3.117-1.833-6.242-1.833-9.358-0.025-0.675 0.392-0.825 0.375-1.183-0.308-0.825-1.558-0.475-3.383 0.925-4.675 1.383-1.275 3.075-1.733 4.883-1.8zM21.008 11.567c0.017-0.675 0.108-1.225 0.033-1.758-0.158-1.042-0.858-1.742-1.717-2.275-1.383-0.867-2.917-1.092-4.5-0.9-1.383 0.167-2.642 0.675-3.608 1.758-0.808 0.908-1.008 2.133-0.475 3.075 3.35-1.825 6.708-1.833 10.267 0.1zM16.967 13.817c2.808 0.058 5.367 2.708 5.35 5.525 0 0.325-0.083 0.617-0.483 0.617-0.392 0-0.458-0.283-0.483-0.617-0.142-2.275-1.575-4-3.742-4.483-0.217-0.050-0.45-0.058-0.675-0.075-0.358-0.033-0.758-0.042-0.725-0.542 0.033-0.467 0.417-0.433 0.758-0.425z"></path>
</symbol>
<symbol id="ice-cream" viewBox="0 0 32 32">
<path d="M9.584 13.773c-0.533-0.225-0.658-0.516-0.475-1.024 0.125-0.35 0.333-0.641 0.624-0.874 0.591-0.475 1.174-0.949 1.807-1.374-0.591-0.408-0.758-0.991-0.541-1.915 0.216-0.874 0.733-1.54 1.466-2.057 0.55-0.383 1.174-0.608 1.79-0.858 0.208-0.083 0.425-0.175 0.624-0.275 1.416-0.716 1.998-1.957 1.674-3.547-0.050-0.233-0.1-0.466-0.167-0.749 0.225 0.117 0.425 0.216 0.616 0.316 1.182 0.658 2.273 1.432 3.006 2.598 0.908 1.441 1.066 3.006 0.633 4.638-0.117 0.441-0.233 0.6-0.541 0.933 0.233 0.167 0.483 0.316 0.708 0.5 0.491 0.383 0.883 0.841 1.091 1.441 0.233 0.674 0.1 1.291-0.3 1.857-0.108 0.15-0.108 0.225 0.050 0.333 0.375 0.283 0.708 0.608 0.983 0.991 0.691 0.974 0.541 1.907-0.458 2.556-0.225 0.15-0.308 0.308-0.308 0.575-0.025 1.382-0.083 2.764-0.108 4.138-0.008 0.4-0.142 0.683-0.491 0.908-0.45 0.283-0.691 0.724-0.816 1.241-0.425 1.774-0.774 3.564-1.107 5.354-0.1 0.525-0.375 0.841-0.824 1.041-0.625 0.283-1.291 0.375-1.965 0.391-0.991 0.033-1.973 0.033-2.923-0.3-0.591-0.208-0.949-0.55-1.074-1.224-0.316-1.765-0.674-3.522-1.082-5.263-0.125-0.541-0.383-0.991-0.858-1.282-0.308-0.192-0.425-0.45-0.433-0.799-0.033-1.416-0.083-2.823-0.117-4.238-0.008-0.175-0.042-0.275-0.208-0.358-0.25-0.117-0.491-0.275-0.674-0.491-0.266-0.308-0.375-0.633-0.208-1.033 0.108-0.258 0.142-0.525 0.075-0.791-0.158-0.566 0.033-0.999 0.533-1.357zM10.642 16.537c0.949-0.008 1.89-0.042 2.831-0.142 1.973-0.208 3.839-0.741 5.554-1.765 0.708-0.425 1.366-0.899 1.857-1.582 0.508-0.699 0.458-1.324-0.142-1.957-0.3-0.308-0.658-0.533-1.033-0.733-0.241-0.133-0.458-0.117-0.691 0.050-2.173 1.491-4.53 2.573-7.111 3.139-0.641 0.142-1.291 0.3-1.882 0.616-0.458 0.241-0.55 0.433-0.45 0.924 0.042 0.208 0.042 0.408-0.050 0.575-0.216 0.4-0.133 0.658 0.333 0.949 0.483 0.3 1.016 0.458 1.565 0.583 2.864 0.633 5.737 0.666 8.627 0.175 0.633-0.108 1.266-0.241 1.799-0.633s0.625-0.916 0.266-1.466c-0.241-0.358-0.575-0.616-0.891-0.908-0.233-0.216-0.433-0.192-0.649 0-0.275 0.233-0.583 0.433-0.891 0.616-1.491 0.874-3.114 1.332-4.813 1.549-1.424 0.175-2.831 0.15-4.23 0.008zM14.122 9.343c0.017 0.017 0.025 0.042 0.042 0.058-0.075 0.058-0.15 0.125-0.225 0.183-0.924 0.691-1.849 1.374-2.764 2.073-0.433 0.325-0.933 0.55-1.324 0.924-0.133 0.125-0.283 0.266-0.216 0.483 0.067 0.225 0.25 0.316 0.466 0.358 0.408 0.075 0.808 0 1.199-0.1 1.774-0.458 3.422-1.232 5.038-2.082 0.916-0.483 1.832-0.966 2.598-1.69 0.5-0.475 0.891-1.016 1.008-1.707 0.308-1.857-0.716-4.005-2.357-4.979-0.083 0.658-0.316 1.266-0.649 1.824-0.566 0.966-1.466 1.49-2.481 1.857-0.583 0.208-1.174 0.416-1.682 0.783-0.624 0.45-0.991 1.049-1.082 1.815-0.067 0.566 0.225 0.874 0.791 0.841 0.391-0.025 0.741-0.183 1.082-0.358 0.183-0.092 0.366-0.192 0.558-0.283zM10.916 17.894c0.067 0.408 0.050 0.808 0.050 1.216-0.008 0.791-0.067 1.574 0.008 2.365 0.067 0.724 0.175 0.866 0.874 1.033 0.183 0.042 0.366 0.092 0.55 0.108 2.498 0.283 4.988 0.241 7.486-0.050 0.483-0.058 0.758-0.291 0.866-0.741 0.033-0.117 0.058-0.241 0.075-0.366 0.192-1.074 0.092-2.157 0.133-3.231 0.008-0.192-0.092-0.158-0.208-0.142-0.508 0.083-1.016 0.183-1.532 0.25-2.798 0.358-5.562 0.475-8.302-0.441zM19.701 23.298c-0.067 0.075-0.142 0.15-0.208 0.216-0.3 0.316-0.408 0.741-0.649 1.091-0.192 0.275-0.125 0.491 0.058 0.724 0.117 0.142 0.358 0.291 0.216 0.491-0.125 0.175-0.35 0.017-0.516-0.042-0.283-0.1-0.45-0.042-0.6 0.233-0.233 0.416-0.5 0.816-0.791 1.191-0.6 0.791-0.608 0.783 0.175 1.366 0.183 0.133 0.366 0.275 0.433 0.508 0.042 0.167 0.025 0.25-0.192 0.216-0.383-0.058-0.699-0.258-1.008-0.458-0.225-0.142-0.383-0.142-0.575 0.042-0.433 0.408-0.716 0.924-1.124 1.391 0.941 0.125 1.824 0.192 2.706-0.050 0.658-0.175 1.058-0.558 1.216-1.257 0.425-1.857 0.541-3.764 0.858-5.662zM13.789 25.955c0.716 0.441 1.407 0.891 2.065 1.391 0.092 0.067 0.142 0.083 0.216-0.025 0.433-0.658 0.883-1.307 1.316-1.957 0.050-0.067 0.108-0.125 0.008-0.208-0.583-0.516-1.116-1.082-1.799-1.474-0.233-0.133-0.4-0.1-0.533 0.142-0.408 0.716-0.841 1.416-1.274 2.132zM12.748 27.021c0.117 0.833 0.225 1.657 0.483 2.456 0.125 0.391 0.674 0.708 1.066 0.666 0.1-0.008 0.175-0.067 0.225-0.15 0.308-0.516 0.616-1.024 0.924-1.54 0.125-0.208 0.050-0.341-0.133-0.458-0.666-0.433-1.366-0.808-2.115-1.082-0.083-0.033-0.175-0.050-0.266-0.067-0.125-0.008-0.208 0.025-0.183 0.175zM12.182 23.298c0.1 0.633 0.2 1.241 0.3 1.849 0.042 0.25 0.283 0.283 0.466 0.358 0.175 0.067 0.216-0.117 0.275-0.225 0.225-0.425 0.483-0.824 0.783-1.191 0.142-0.167 0.283-0.341 0.458-0.55-0.799-0.042-1.54-0.15-2.282-0.241zM16.52 23.756c0.375 0.25 0.649 0.541 1.016 0.699 0.142 0.067 0.291 0.117 0.416-0.042 0.192-0.25 0.391-0.5 0.608-0.783-0.674 0.042-1.324 0.075-2.040 0.125z"></path>
</symbol>
<symbol id="github" viewBox="0 0 32 32">
<path d="M16 0c-8.789 0-16 7.211-16 16 0 7.499 5.262 14.312 12.25 16v-5.293c-0.276 0.070-0.593 0.109-0.919 0.109-0.398 0-0.781-0.059-1.143-0.169l0.028 0.007c-0.946-0.278-1.714-0.909-2.285-1.869-0.363-0.613-1.008-1.28-1.68-1.23l-0.165-1.867c1.454-0.125 2.71 0.886 3.456 2.139 0.333 0.558 0.715 0.885 1.205 1.029 0.472 0.141 0.981 0.074 1.573-0.136 0.149-1.186 0.693-1.629 1.104-2.256-4.168-0.621-5.829-2.832-6.488-4.576-0.874-2.318-0.405-5.213 1.139-7.043 0.030-0.035 0.085-0.128 0.064-0.192-0.709-2.141 0.154-3.91 0.186-4.098 0.818 0.24 0.95-0.243 3.552 1.336l0.448 0.27c0.189 0.112 0.128 0.048 0.317 0.032 1.003-0.282 2.157-0.452 3.349-0.469l0.010-0c1.136 0.014 2.272 0.176 3.403 0.483l0.146 0.016c-0.013-0.003 0.040-0.010 0.128-0.062 3.248-1.968 3.131-1.325 4.003-1.608 0.032 0.189 0.882 1.987 0.182 4.099-0.096 0.291 2.816 2.957 1.202 7.235-0.659 1.744-2.32 3.957-6.486 4.578 0.534 0.816 1.176 1.248 1.173 2.928v6.606c6.986-1.688 12.25-8.501 12.25-16 0-8.789-7.211-16-16-16z"></path>
</symbol>
<symbol id="telegram" viewBox="0 0 44 32">
<path fill="#84a178" style="fill: var(--color2, #84a178)" d="M17.342 21.048l-0.674 8.86c0.966 0 1.384-0.388 1.886-0.852l4.526-4.040 9.38 6.414c1.72 0.894 2.934 0.422 3.398-1.478l6.158-26.932c0.546-2.374-0.92-3.302-2.594-2.72l-36.196 12.934c-2.47 0.896-2.432 2.18-0.418 2.766l9.252 2.684 21.494-12.552c1.012-0.626 1.932-0.28 1.174 0.346l-17.386 14.57z"></path>
</symbol>
<symbol id="facebook" viewBox="0 0 16 32">
<path fill="#84a178" style="fill: var(--color2, #84a178)" d="M14.143 15.971h-4.033v14.865h-6.112v-14.865h-2.906v-5.222h2.906v-3.382c0-2.417 1.142-6.204 6.167-6.204l4.527 0.019v5.072h-3.284c-0.538 0-1.297 0.272-1.297 1.425v3.073h4.567l-0.534 5.219z"></path>
</symbol>
</defs>
</svg>
