<svg width="319" height="50" fill="none" xmlns="http://www.w3.org/2000/svg"><ellipse cx="237.925" cy="45.793" rx="2.675" ry="2.749" fill="#F8D24E"/><ellipse cx="243.72" cy="42.127" rx="2.675" ry="2.749" fill="#F8D24E"/><ellipse cx="250.405" cy="38.003" rx="2.675" ry="2.749" fill="#F8D24E"/><ellipse cx="256.647" cy="34.338" rx="2.675" ry="2.749" fill="#F8D24E"/><ellipse cx="253.08" cy="43.96" rx="2.675" ry="2.749" fill="#F8D24E"/><ellipse cx="258.876" cy="40.295" rx="2.675" ry="2.749" fill="#F8D24E"/><ellipse cx="265.561" cy="36.171" rx="2.675" ry="2.749" fill="#F8D24E"/><ellipse cx="271.802" cy="32.506" rx="2.675" ry="2.749" fill="#F8D24E"/><ellipse cx="266.008" cy="42.586" rx="2.675" ry="2.749" fill="#F8D24E"/><ellipse cx="271.803" cy="38.92" rx="2.675" ry="2.749" fill="#F8D24E"/><ellipse cx="278.49" cy="34.796" rx="2.675" ry="2.749" fill="#F8D24E"/><ellipse cx="284.729" cy="31.131" rx="2.675" ry="2.749" fill="#F8D24E"/><ellipse cx="278.489" cy="40.753" rx="2.675" ry="2.749" fill="#F8D24E"/><ellipse cx="284.283" cy="37.087" rx="2.675" ry="2.749" fill="#F8D24E"/><ellipse cx="290.969" cy="32.964" rx="2.675" ry="2.749" fill="#F8D24E"/><ellipse cx="297.212" cy="29.298" rx="2.675" ry="2.749" fill="#F8D24E"/><ellipse cx="282.501" cy="45.793" rx="2.675" ry="2.749" fill="#F8D24E"/><ellipse cx="288.297" cy="42.127" rx="2.675" ry="2.749" fill="#F8D24E"/><ellipse cx="296.32" cy="46.251" rx="2.675" ry="2.749" fill="#F8D24E"/><ellipse cx="294.983" cy="38.003" rx="2.675" ry="2.749" fill="#F8D24E"/><ellipse cx="303.007" cy="42.127" rx="2.675" ry="2.749" fill="#F8D24E"/><ellipse cx="309.247" cy="46.251" rx="2.675" ry="2.749" fill="#F8D24E"/><ellipse cx="301.223" cy="34.338" rx="2.675" ry="2.749" fill="#F8D24E"/><ellipse cx="309.247" cy="38.461" rx="2.675" ry="2.749" fill="#F8D24E"/><ellipse cx="315.488" cy="42.585" rx="2.675" ry="2.749" fill="#F8D24E"/><ellipse cx="210.735" cy="15.553" rx="2.675" ry="2.749" fill="#F8D24E"/><ellipse cx="216.529" cy="11.887" rx="2.675" ry="2.749" fill="#F8D24E"/><ellipse cx="223.218" cy="7.764" rx="2.675" ry="2.749" fill="#F8D24E"/><ellipse cx="229.457" cy="4.099" rx="2.675" ry="2.749" fill="#F8D24E"/><ellipse cx="199.59" cy="15.094" rx="2.675" ry="2.749" fill="#F8D24E"/><ellipse cx="205.384" cy="11.429" rx="2.675" ry="2.749" fill="#F8D24E"/><ellipse cx="212.07" cy="7.306" rx="2.675" ry="2.749" fill="#F8D24E"/><ellipse cx="218.311" cy="3.64" rx="2.675" ry="2.749" fill="#F8D24E"/><ellipse cx="224.552" cy="45.793" rx="2.675" ry="2.749" fill="#F8D24E"/><ellipse cx="230.345" cy="42.127" rx="2.675" ry="2.749" fill="#F8D24E"/><ellipse cx="237.032" cy="38.003" rx="2.675" ry="2.749" fill="#F8D24E"/><ellipse cx="243.274" cy="34.338" rx="2.675" ry="2.749" fill="#F8D24E"/><ellipse cx="217.42" cy="43.044" rx="2.675" ry="2.749" fill="#F8D24E"/><ellipse cx="223.215" cy="39.379" rx="2.675" ry="2.749" fill="#F8D24E"/><ellipse cx="229.9" cy="35.255" rx="2.675" ry="2.749" fill="#F8D24E"/><ellipse cx="236.142" cy="31.589" rx="2.675" ry="2.749" fill="#F8D24E"/><ellipse cx="220.094" cy="33.422" rx="2.675" ry="2.749" fill="#F8D24E"/><ellipse cx="225.888" cy="29.757" rx="2.675" ry="2.749" fill="#F8D24E"/><ellipse cx="232.577" cy="25.633" rx="2.675" ry="2.749" fill="#F8D24E"/><ellipse cx="238.817" cy="21.968" rx="2.675" ry="2.749" fill="#F8D24E"/><ellipse cx="220.094" cy="17.386" rx="2.675" ry="2.749" fill="#F8D24E"/><ellipse cx="225.888" cy="13.72" rx="2.675" ry="2.749" fill="#F8D24E"/><ellipse cx="232.577" cy="9.596" rx="2.675" ry="2.749" fill="#F8D24E"/><ellipse cx="238.817" cy="5.931" rx="2.675" ry="2.749" fill="#F8D24E"/><ellipse cx="218.758" cy="26.092" rx="2.675" ry="2.749" fill="#F8D24E"/><ellipse cx="224.553" cy="22.426" rx="2.675" ry="2.749" fill="#F8D24E"/><ellipse cx="231.239" cy="18.302" rx="2.675" ry="2.749" fill="#F8D24E"/><ellipse cx="237.479" cy="14.637" rx="2.675" ry="2.749" fill="#F8D24E"/><ellipse cx="190.675" cy="12.804" rx="2.675" ry="2.749" fill="#F8D24E"/><ellipse cx="196.47" cy="9.138" rx="2.675" ry="2.749" fill="#F8D24E"/><ellipse cx="203.157" cy="5.015" rx="2.675" ry="2.749" fill="#F8D24E"/><path d="M202.711 15.553c1.477 0 2.674-1.231 2.674-2.75 0-1.518-1.197-2.748-2.674-2.748-1.477 0-2.675 1.23-2.675 2.749 0 1.518 1.198 2.749 2.675 2.749Z" fill="#F8D24E"/><ellipse rx="2.716" ry="2.788" transform="matrix(.98781 -.15565 .14752 .98906 77.041 33.63)" fill="#F8D24E"/><ellipse rx="2.716" ry="2.788" transform="matrix(.98781 -.15565 .14752 .98906 82.305 29.037)" fill="#F8D24E"/><ellipse rx="2.716" ry="2.788" transform="matrix(.98781 -.15565 .14752 .98906 88.396 23.844)" fill="#F8D24E"/><ellipse rx="2.716" ry="2.788" transform="matrix(.98781 -.15565 .14752 .98906 94.108 19.18)" fill="#F8D24E"/><ellipse cx="-2.406" cy="29.484" rx="2.714" ry="2.79" fill="#F8D24E"/><ellipse cx="4.381" cy="25.299" rx="2.714" ry="2.79" fill="#F8D24E"/><ellipse cx="10.713" cy="21.579" rx="2.714" ry="2.79" fill="#F8D24E"/><ellipse cx=".31" cy="36.458" rx="2.714" ry="2.79" fill="#F8D24E"/><ellipse cx="7.096" cy="32.273" rx="2.714" ry="2.79" fill="#F8D24E"/><ellipse cx="13.428" cy="28.554" rx="2.714" ry="2.79" fill="#F8D24E"/><ellipse cx="1.213" cy="43.897" rx="2.714" ry="2.79" fill="#F8D24E"/><ellipse cx="7.094" cy="40.178" rx="2.714" ry="2.79" fill="#F8D24E"/><ellipse cx="13.879" cy="35.993" rx="2.714" ry="2.79" fill="#F8D24E"/><ellipse cx="20.212" cy="32.273" rx="2.714" ry="2.79" fill="#F8D24E"/><ellipse cx="8.902" cy="46.223" rx="2.714" ry="2.79" fill="#F8D24E"/><ellipse cx="14.783" cy="42.502" rx="2.714" ry="2.79" fill="#F8D24E"/><ellipse cx="21.57" cy="38.318" rx="2.714" ry="2.79" fill="#F8D24E"/><ellipse cx="27.901" cy="34.599" rx="2.714" ry="2.79" fill="#F8D24E"/><ellipse cx="18.856" cy="46.688" rx="2.714" ry="2.79" fill="#F8D24E"/><ellipse cx="24.737" cy="42.968" rx="2.714" ry="2.79" fill="#F8D24E"/><ellipse cx="31.523" cy="38.783" rx="2.714" ry="2.79" fill="#F8D24E"/><ellipse cx="37.855" cy="35.064" rx="2.714" ry="2.79" fill="#F8D24E"/><ellipse cx="30.617" cy="46.688" rx="2.714" ry="2.79" fill="#F8D24E"/><ellipse cx="36.497" cy="42.968" rx="2.714" ry="2.79" fill="#F8D24E"/><ellipse cx="43.282" cy="38.783" rx="2.714" ry="2.79" fill="#F8D24E"/><ellipse cx="49.617" cy="35.064" rx="2.714" ry="2.79" fill="#F8D24E"/><ellipse cx="40.568" cy="46.223" rx="2.714" ry="2.79" fill="#F8D24E"/><ellipse cx="46.449" cy="42.502" rx="2.714" ry="2.79" fill="#F8D24E"/><ellipse cx="53.235" cy="38.318" rx="2.714" ry="2.79" fill="#F8D24E"/><ellipse cx="59.567" cy="34.599" rx="2.714" ry="2.79" fill="#F8D24E"/><ellipse cx="51.876" cy="45.757" rx="2.714" ry="2.79" fill="#F8D24E"/><ellipse cx="57.757" cy="42.038" rx="2.714" ry="2.79" fill="#F8D24E"/><ellipse cx="64.543" cy="37.853" rx="2.714" ry="2.79" fill="#F8D24E"/><ellipse cx="70.875" cy="34.133" rx="2.714" ry="2.79" fill="#F8D24E"/><ellipse cx="62.281" cy="33.669" rx="2.714" ry="2.79" fill="#F8D24E"/><ellipse cx="68.161" cy="29.949" rx="2.714" ry="2.79" fill="#F8D24E"/><ellipse cx="74.947" cy="25.764" rx="2.714" ry="2.79" fill="#F8D24E"/><ellipse cx="81.28" cy="22.044" rx="2.714" ry="2.79" fill="#F8D24E"/></svg>