<?xml version="1.0" encoding="utf-8"?>
<!-- Generator: Adobe Illustrator 24.1.2, SVG Export Plug-In . SVG Version: 6.00 Build 0)  -->
<svg version="1.1" id="Layer_1" xmlns="http://www.w3.org/2000/svg" xmlns:xlink="http://www.w3.org/1999/xlink" x="0px" y="0px"
	 viewBox="0 0 1193 384" style="enable-background:new 0 0 1193 384;" xml:space="preserve">
<style type="text/css">
	.st0{fill:#F9D34E;}
</style>
<path class="st0" d="M447.2,26.5c3.2,0,5.9,2.8,5.9,6.2c-0.2,8.3-11.5,8.3-11.7,0C441.3,29.3,444,26.5,447.2,26.5L447.2,26.5z
	 M459.9,18.2c3.2,0,5.9,2.8,5.9,6.2c-0.2,8.3-11.5,8.3-11.7,0C454,21,456.7,18.2,459.9,18.2L459.9,18.2z M474.5,8.8
	c3.2,0,5.9,2.8,5.9,6.2c-0.2,8.3-11.5,8.3-11.7,0C468.7,11.6,471.3,8.8,474.5,8.8L474.5,8.8z M488.2,0.5c3.2,0,5.9,2.8,5.9,6.2
	c-0.2,8.3-11.5,8.3-11.7,0C482.3,3.3,485,0.5,488.2,0.5L488.2,0.5z M428.6,48.4c3.2,0,5.9,2.8,5.9,6.2c-0.2,8.3-11.5,8.3-11.7,0
	C422.8,51.2,425.4,48.4,428.6,48.4L428.6,48.4z M441.3,40c3.2,0,5.9,2.8,5.9,6.2c-0.2,8.3-11.5,8.3-11.7,0
	C435.5,42.8,438.1,40,441.3,40L441.3,40z"/>
<path class="st0" d="M456,30.7c3.2,0,5.9,2.8,5.9,6.2c-0.2,8.3-11.5,8.3-11.7,0C450.1,33.5,452.7,30.7,456,30.7L456,30.7z
	 M469.6,22.3c3.2,0,5.9,2.8,5.9,6.2c-0.2,8.3-11.5,8.3-11.7,0C463.8,25.1,466.4,22.3,469.6,22.3L469.6,22.3z M400.3,49.4
	c3.2,0,5.9,2.8,5.9,6.2c-0.2,8.3-11.5,8.3-11.7,0C394.5,52.2,397.1,49.4,400.3,49.4L400.3,49.4z M413,41.1c3.2,0,5.9,2.8,5.9,6.2
	c-0.2,8.3-11.5,8.3-11.7,0C407.2,43.9,409.8,41.1,413,41.1L413,41.1z M427.7,31.7c3.2,0,5.9,2.8,5.9,6.2c-0.2,8.3-11.5,8.3-11.7,0
	C421.8,34.5,424.4,31.7,427.7,31.7L427.7,31.7z M441.3,23.4c3.2,0,5.9,2.8,5.9,6.2c-0.2,8.3-11.5,8.3-11.7,0
	C435.5,26.2,438.1,23.4,441.3,23.4L441.3,23.4z M384.7,73.3c3.2,0,5.9,2.8,5.9,6.2c-0.2,8.3-11.5,8.3-11.7,0
	C378.8,76.1,381.5,73.3,384.7,73.3L384.7,73.3z M397.4,65c3.2,0,5.9,2.8,5.9,6.2c-0.2,8.3-11.5,8.3-11.7,0
	C391.5,67.8,394.2,65,397.4,65L397.4,65z"/>
<path class="st0" d="M412,55.6c3.2,0,5.9,2.8,5.9,6.2c-0.2,8.3-11.5,8.3-11.7,0C406.2,58.4,408.8,55.6,412,55.6L412,55.6z
	 M425.7,47.3c3.2,0,5.9,2.8,5.9,6.2c-0.2,8.3-11.5,8.3-11.7,0C419.9,50.1,422.5,47.3,425.7,47.3L425.7,47.3z M373,95.2
	c3.2,0,5.9,2.8,5.9,6.2c-0.2,8.3-11.5,8.3-11.7,0C367.1,98,369.8,95.2,373,95.2L373,95.2z M385.7,86.9c3.2,0,5.9,2.8,5.9,6.2
	c-0.2,8.3-11.5,8.3-11.7,0C379.8,89.7,382.4,86.9,385.7,86.9L385.7,86.9z M400.3,77.5c3.2,0,5.9,2.8,5.9,6.2
	c-0.2,8.3-11.5,8.3-11.7,0C394.5,80.3,397.1,77.5,400.3,77.5L400.3,77.5z"/>
<path class="st0" d="M414,69.2c3.2,0,5.9,2.8,5.9,6.2c-0.2,8.3-11.5,8.3-11.7,0C408.1,72,410.8,69.2,414,69.2L414,69.2z
	 M364.2,117.1c3.2,0,5.9,2.8,5.8,6.3c-0.3,8.3-11.5,8.2-11.7,0C358.4,119.8,361,117.1,364.2,117.1L364.2,117.1z M376.9,108.8
	c3.2,0,5.9,2.8,5.8,6.3c-0.3,8.3-11.5,8.2-11.7,0C371.1,111.5,373.7,108.7,376.9,108.8L376.9,108.8z M391.6,99.4
	c3.2,0,5.9,2.8,5.8,6.3c-0.3,8.3-11.5,8.2-11.7,0C385.7,102.2,388.3,99.4,391.6,99.4L391.6,99.4z M405.3,91.1c3.2,0,5.9,2.8,5.8,6.3
	c-0.3,8.3-11.5,8.2-11.7,0C399.4,93.9,402,91.1,405.3,91.1L405.3,91.1z M240.2,154.6c3.2,0,5.9,2.8,5.8,6.3
	c-0.3,8.3-11.5,8.2-11.7,0C234.4,157.3,237,154.6,240.2,154.6z M253.9,146.3c3.2,0,5.9,2.8,5.8,6.3c-0.3,8.3-11.5,8.2-11.7,0
	C248.1,149,250.7,146.3,253.9,146.3L253.9,146.3z M325.2,126.4c3.2,0,5.9,2.8,5.8,6.3c-0.3,8.3-11.5,8.2-11.7,0
	C319.3,129.2,321.9,126.4,325.2,126.4L325.2,126.4z M337.9,118.1c3.2,0,5.9,2.8,5.8,6.3c-0.3,8.3-11.5,8.2-11.7,0
	C332,120.9,334.6,118.1,337.9,118.1L337.9,118.1z M352.5,108.8c3.2,0,5.9,2.8,5.8,6.3c-0.3,8.3-11.5,8.2-11.7,0
	C346.7,111.6,349.3,108.8,352.5,108.8L352.5,108.8z M366.2,100.5c3.2,0,5.9,2.8,5.8,6.3c-0.3,8.3-11.5,8.2-11.7,0
	C360.3,103.3,363,100.5,366.2,100.5L366.2,100.5z M241.2,135.8c3.2,0,5.9,2.8,5.9,6.2c-0.2,8.3-11.5,8.3-11.7,0
	C235.3,138.6,237.9,135.8,241.2,135.8z M254.8,127.5c3.2,0,5.9,2.8,5.9,6.2c-0.2,8.3-11.5,8.3-11.7,0
	C249,130.2,251.6,127.5,254.8,127.5L254.8,127.5z M273.4,118.1c3.2,0,5.9,2.8,5.9,6.2c-0.2,8.3-11.5,8.3-11.7,0
	C267.5,120.9,270.2,118.1,273.4,118.1L273.4,118.1z M286.1,109.8c3.2,0,5.9,2.8,5.9,6.2c-0.2,8.3-11.5,8.3-11.7,0
	C280.2,112.6,282.9,109.8,286.1,109.8L286.1,109.8z M300.7,100.4c3.2,0,5.9,2.8,5.9,6.2c-0.2,8.3-11.5,8.3-11.7,0
	C294.9,103.2,297.5,100.4,300.7,100.4L300.7,100.4z M314.4,92.1c3.2,0,5.9,2.8,5.9,6.2c-0.2,8.3-11.5,8.3-11.7,0
	C308.5,94.9,311.2,92.1,314.4,92.1L314.4,92.1z M298.8,130.6c3.2,0,5.9,2.8,5.9,6.2c-0.2,8.3-11.5,8.3-11.7,0
	C292.9,133.4,295.5,130.6,298.8,130.6L298.8,130.6z M311.5,122.3c3.2,0,5.9,2.8,5.9,6.2c-0.2,8.3-11.5,8.3-11.7,0
	C305.6,125,308.2,122.3,311.5,122.3L311.5,122.3z"/>
<path class="st0" d="M326.1,112.9c3.2,0,5.9,2.8,5.9,6.2c-0.2,8.3-11.5,8.3-11.7,0C320.3,115.7,322.9,112.9,326.1,112.9L326.1,112.9
	z M339.8,104.6c3.2,0,5.9,2.8,5.9,6.2c-0.2,8.3-11.5,8.3-11.7,0C333.9,107.4,336.6,104.6,339.8,104.6L339.8,104.6z M300.7,113.9
	c3.2,0,5.9,2.8,5.9,6.2c-0.2,8.3-11.5,8.3-11.7,0C294.9,116.7,297.5,113.9,300.7,113.9L300.7,113.9z M313.4,105.6
	c3.2,0,5.9,2.8,5.9,6.2c-0.2,8.3-11.5,8.3-11.7,0C307.6,108.4,310.2,105.6,313.4,105.6L313.4,105.6z M328.1,96.2
	c3.2,0,5.9,2.8,5.9,6.2c-0.2,8.3-11.5,8.3-11.7,0C322.2,99,324.8,96.2,328.1,96.2L328.1,96.2z M341.7,87.9c3.2,0,5.9,2.8,5.9,6.2
	c-0.2,8.3-11.5,8.3-11.7,0C335.9,90.7,338.5,87.9,341.7,87.9L341.7,87.9z M247,120.2c3.2,0,5.9,2.8,5.9,6.2
	c-0.2,8.3-11.5,8.3-11.7,0C241.2,123,243.8,120.2,247,120.2z M259.7,111.8c3.2,0,5.9,2.8,5.9,6.2c-0.2,8.3-11.5,8.3-11.7,0
	C253.9,114.6,256.5,111.8,259.7,111.8z M274.4,102.5c3.2,0,5.9,2.8,5.9,6.2c-0.2,8.3-11.5,8.3-11.7,0
	C268.5,105.3,271.1,102.5,274.4,102.5L274.4,102.5z M288,94.2c3.2,0,5.9,2.8,5.9,6.2c-0.2,8.3-11.5,8.3-11.7,0
	C282.2,96.9,284.8,94.2,288,94.2L288,94.2z M5.9,352.2c3.2,0,5.9,2.8,5.9,6.2c-0.2,8.3-11.5,8.3-11.7,0C0,355,2.6,352.2,5.9,352.2z
	 M18.6,343.9c3.2,0,5.9,2.8,5.9,6.2c-0.2,8.3-11.5,8.3-11.7,0C12.7,346.7,15.3,343.9,18.6,343.9z M33.2,334.5c3.2,0,5.9,2.8,5.9,6.2
	c-0.2,8.3-11.5,8.3-11.7,0C27.3,337.3,30,334.5,33.2,334.5z M46.9,326.2c3.2,0,5.9,2.8,5.9,6.2c-0.2,8.3-11.5,8.3-11.7,0
	C41,329,43.6,326.2,46.9,326.2z M80.1,355.4c3.2,0,5.9,2.8,5.9,6.2c-0.2,8.3-11.5,8.3-11.7,0C74.2,358.2,76.8,355.4,80.1,355.4z
	 M92.8,347c3.2,0,5.9,2.8,5.9,6.2c-0.2,8.3-11.5,8.3-11.7,0C86.9,349.8,89.5,347,92.8,347z M107.4,337.7c3.2,0,5.9,2.8,5.9,6.2
	c-0.2,8.3-11.5,8.3-11.7,0C101.5,340.5,104.2,337.7,107.4,337.7z M121.1,329.3c3.2,0,5.9,2.8,5.9,6.2c-0.2,8.3-11.5,8.3-11.7,0
	C115.2,332.1,117.8,329.3,121.1,329.3z"/>
<path class="st0" d="M110.3,351.2c3.2,0,5.9,2.8,5.9,6.2c-0.2,8.3-11.5,8.3-11.7,0C104.5,354,107.1,351.2,110.3,351.2z M123,342.9
	c3.2,0,5.9,2.8,5.9,6.2c-0.2,8.3-11.5,8.3-11.7,0C117.2,345.7,119.8,342.9,123,342.9z M137.7,333.5c3.2,0,5.9,2.8,5.9,6.2
	c-0.2,8.3-11.5,8.3-11.7,0C131.8,336.3,134.4,333.5,137.7,333.5z M151.3,325.2c3.2,0,5.9,2.8,5.9,6.2c-0.2,8.3-11.5,8.3-11.7,0
	C145.5,328,148.1,325.2,151.3,325.2z M166,312.7c3.2,0,5.9,2.8,5.9,6.2c-0.2,8.3-11.5,8.3-11.7,0C160.1,315.5,162.8,312.7,166,312.7
	z"/>
<path class="st0" d="M134.7,320c3.2,0,5.9,2.8,5.9,6.2c-0.2,8.3-11.5,8.3-11.7,0C128.9,322.8,131.5,320,134.7,320z M1024.3,371
	c3.2,0,5.9,2.8,5.9,6.2c-0.2,8.3-11.5,8.3-11.7,0C1018.4,373.8,1021,371,1024.3,371z M1036.9,362.6c3.2,0,5.9,2.8,5.9,6.2
	c-0.2,8.3-11.5,8.3-11.7,0C1031.1,365.4,1033.7,362.6,1036.9,362.6L1036.9,362.6z M1051.6,353.3c3.2,0,5.9,2.8,5.9,6.2
	c-0.2,8.3-11.5,8.3-11.7,0C1045.7,356.1,1048.4,353.3,1051.6,353.3L1051.6,353.3z M1065.3,344.9c3.2,0,5.9,2.8,5.9,6.2
	c-0.2,8.3-11.5,8.3-11.7,0C1059.4,347.7,1062,344.9,1065.3,344.9L1065.3,344.9z M1057.4,366.8c3.2,0,5.9,2.8,5.9,6.2
	c-0.2,8.3-11.5,8.3-11.7,0C1051.6,369.6,1054.2,366.8,1057.4,366.8L1057.4,366.8z M1070.1,358.5c3.2,0,5.9,2.8,5.9,6.2
	c-0.2,8.3-11.5,8.3-11.7,0C1064.3,361.3,1066.9,358.5,1070.1,358.5L1070.1,358.5z M1084.8,349.1c3.2,0,5.9,2.8,5.9,6.2
	c-0.2,8.3-11.5,8.3-11.7,0C1078.9,351.9,1081.5,349.1,1084.8,349.1L1084.8,349.1z M1098.4,340.8c3.2,0,5.9,2.8,5.9,6.2
	c-0.2,8.3-11.5,8.3-11.7,0C1092.6,343.6,1095.2,340.8,1098.4,340.8L1098.4,340.8z M1085.8,363.7c3.2,0,5.9,2.8,5.9,6.2
	c-0.2,8.3-11.5,8.3-11.7,0C1079.9,366.5,1082.5,363.7,1085.8,363.7L1085.8,363.7z M1098.4,355.4c3.2,0,5.9,2.8,5.9,6.2
	c-0.2,8.3-11.5,8.3-11.7,0C1092.6,358.2,1095.2,355.4,1098.4,355.4L1098.4,355.4z M1113.1,346c3.2,0,5.9,2.8,5.9,6.2
	c-0.2,8.3-11.5,8.3-11.7,0C1107.2,348.8,1109.9,346,1113.1,346L1113.1,346z M1126.8,337.7c3.2,0,5.9,2.8,5.9,6.2
	c-0.2,8.3-11.5,8.3-11.7,0C1120.9,340.5,1123.5,337.7,1126.8,337.7L1126.8,337.7z"/>
<path class="st0" d="M1113.1,359.5c3.2,0,5.9,2.8,5.9,6.2c-0.2,8.3-11.5,8.3-11.7,0C1107.2,362.3,1109.9,359.5,1113.1,359.5
	L1113.1,359.5z M1125.8,351.2c3.2,0,5.9,2.8,5.9,6.2c-0.2,8.3-11.5,8.3-11.7,0C1119.9,354,1122.6,351.2,1125.8,351.2L1125.8,351.2z
	 M1140.4,341.8c3.2,0,5.9,2.8,5.9,6.2c-0.2,8.3-11.5,8.3-11.7,0C1134.6,344.6,1137.2,341.8,1140.4,341.8L1140.4,341.8z
	 M1154.1,333.5c3.2,0,5.9,2.8,5.9,6.2c-0.2,8.3-11.5,8.3-11.7,0C1148.3,336.3,1150.9,333.5,1154.1,333.5L1154.1,333.5z M1121.9,371
	c3.2,0,5.9,2.8,5.9,6.2c-0.2,8.3-11.5,8.3-11.7,0C1116,373.8,1118.7,371,1121.9,371L1121.9,371z M1134.6,362.6
	c3.2,0,5.9,2.8,5.9,6.2c-0.2,8.3-11.5,8.3-11.7,0C1128.7,365.4,1131.3,362.6,1134.6,362.6L1134.6,362.6z M1152.2,372
	c3.2,0,5.9,2.8,5.9,6.2c-0.2,8.3-11.5,8.3-11.7,0C1146.3,374.8,1148.9,372,1152.2,372L1152.2,372z M1149.2,353.3
	c3.2,0,5.9,2.8,5.9,6.2c-0.2,8.3-11.5,8.3-11.7,0C1143.4,356.1,1146,353.3,1149.2,353.3L1149.2,353.3z M1166.8,362.6
	c3.2,0,5.9,2.8,5.9,6.2c-0.2,8.3-11.5,8.3-11.7,0C1160.9,365.4,1163.6,362.6,1166.8,362.6L1166.8,362.6z M1180.5,372
	c3.2,0,5.9,2.8,5.9,6.2c-0.2,8.3-11.5,8.3-11.7,0C1174.6,374.8,1177.2,372,1180.5,372L1180.5,372z M1162.9,344.9
	c3.2,0,5.9,2.8,5.9,6.2c-0.2,8.3-11.5,8.3-11.7,0C1157,347.7,1159.7,344.9,1162.9,344.9L1162.9,344.9z M964.7,302.3
	c3.2,0,5.9,2.8,5.9,6.2c-0.2,8.3-11.5,8.3-11.7,0C958.8,305.1,961.5,302.3,964.7,302.3z M977.4,294c3.2,0,5.9,2.8,5.9,6.2
	c-0.2,8.3-11.5,8.3-11.7,0C971.5,296.8,974.1,294,977.4,294z M992,284.6c3.2,0,5.9,2.8,5.9,6.2c-0.2,8.3-11.5,8.3-11.7,0
	C986.2,287.4,988.8,284.6,992,284.6z M1005.7,276.3c3.2,0,5.9,2.8,5.9,6.2c-0.2,8.3-11.5,8.3-11.7,0
	C999.8,279.1,1002.5,276.3,1005.7,276.3z M940.3,301.2c3.2,0,5.9,2.8,5.9,6.2c-0.2,8.3-11.5,8.3-11.7,0
	C934.4,304,937,301.2,940.3,301.2z M953,292.9c3.2,0,5.9,2.8,5.9,6.2c-0.2,8.3-11.5,8.3-11.7,0C947.1,295.7,949.7,292.9,953,292.9z
	 M967.6,283.6c3.2,0,5.9,2.8,5.9,6.2c-0.2,8.3-11.5,8.3-11.7,0C961.8,286.3,964.4,283.6,967.6,283.6z M981.3,275.2
	c3.2,0,5.9,2.8,5.9,6.2c-0.2,8.3-11.5,8.3-11.7,0C975.4,278,978,275.2,981.3,275.2z M995,371c3.2,0,5.9,2.8,5.9,6.2
	c-0.2,8.3-11.5,8.3-11.7,0C989.1,373.8,991.7,371,995,371z M1007.7,362.6c3.2,0,5.9,2.8,5.9,6.2c-0.2,8.3-11.5,8.3-11.7,0
	C1001.8,365.4,1004.4,362.6,1007.7,362.6z M1022.3,353.3c3.2,0,5.9,2.8,5.9,6.2c-0.2,8.3-11.5,8.3-11.7,0
	C1016.4,356.1,1019.1,353.3,1022.3,353.3L1022.3,353.3z M1036,344.9c3.2,0,5.9,2.8,5.9,6.2c-0.2,8.3-11.5,8.3-11.7,0
	C1030.1,347.7,1032.7,344.9,1036,344.9L1036,344.9z M979.3,364.7c3.2,0,5.9,2.8,5.9,6.2c-0.2,8.3-11.5,8.3-11.7,0
	C973.5,367.5,976.1,364.7,979.3,364.7z M992,356.4c3.2,0,5.9,2.8,5.9,6.2c-0.2,8.3-11.5,8.3-11.7,0
	C986.2,359.2,988.8,356.4,992,356.4z M1006.7,347c3.2,0,5.9,2.8,5.9,6.2c-0.2,8.3-11.5,8.3-11.7,0
	C1000.8,349.8,1003.4,347,1006.7,347z M1020.3,338.7c3.2,0,5.9,2.8,5.9,6.2c-0.2,8.3-11.5,8.3-11.7,0
	C1014.5,341.5,1017.1,338.7,1020.3,338.7L1020.3,338.7z M985.2,342.9c3.2,0,5.9,2.8,5.9,6.2c-0.2,8.3-11.5,8.3-11.7,0
	C979.3,345.7,982,342.9,985.2,342.9z M997.9,334.5c3.2,0,5.9,2.8,5.9,6.2c-0.2,8.3-11.5,8.3-11.7,0
	C992,337.3,994.6,334.5,997.9,334.5z M1012.5,325.2c3.2,0,5.9,2.8,5.9,6.2c-0.2,8.3-11.5,8.3-11.7,0
	C1006.7,328,1009.3,325.2,1012.5,325.2z M1026.2,316.9c3.2,0,5.9,2.8,5.9,6.2c-0.2,8.3-11.5,8.3-11.7,0
	C1020.3,319.6,1023,316.9,1026.2,316.9z M679.3,298.1c7.8-0.9,9.3,10.9,1.8,12.3C673.3,311.4,671.8,299.6,679.3,298.1z M690.7,287.8
	c7.8-0.9,9.3,10.9,1.8,12.3C684.6,301.1,683.1,289.3,690.7,287.8z M703.8,276.2c7.8-0.9,9.3,10.9,1.8,12.3
	C697.8,289.5,696.3,277.7,703.8,276.2z M716.1,265.8c7.8-0.9,9.3,10.9,1.8,12.3C710.1,279.1,708.6,267.2,716.1,265.8z M985.2,306.4
	c3.2,0,5.9,2.8,5.9,6.2c-0.2,8.3-11.5,8.3-11.7,0C979.3,309.2,982,306.4,985.2,306.4z M997.9,298.1c3.2,0,5.9,2.8,5.9,6.2
	c-0.2,8.3-11.5,8.3-11.7,0C992,300.9,994.6,298.1,997.9,298.1z M1012.5,288.8c3.2,0,5.9,2.8,5.9,6.2c-0.2,8.3-11.5,8.3-11.7,0
	C1006.7,291.5,1009.3,288.8,1012.5,288.8z M1026.2,280.4c3.2,0,5.9,2.8,5.9,6.2c-0.2,8.3-11.5,8.3-11.7,0
	C1020.3,283.2,1023,280.4,1026.2,280.4z M982.3,326.2c3.2,0,5.9,2.8,5.9,6.2c-0.2,8.3-11.5,8.3-11.7,0
	C976.4,329,979,326.2,982.3,326.2z M995,317.9c3.2,0,5.9,2.8,5.9,6.2c-0.2,8.3-11.5,8.3-11.7,0C989.1,320.7,991.7,317.9,995,317.9z
	 M1009.6,308.5c3.2,0,5.9,2.8,5.9,6.2c-0.2,8.3-11.5,8.3-11.7,0C1003.7,311.3,1006.4,308.5,1009.6,308.5z M1023.3,300.2
	c3.2,0,5.9,2.8,5.9,6.2c-0.2,8.3-11.5,8.3-11.7,0C1017.4,303,1020,300.2,1023.3,300.2L1023.3,300.2z M920.7,296
	c3.2,0,5.9,2.8,5.9,6.2c-0.2,8.3-11.5,8.3-11.7,0C914.9,298.8,917.5,296,920.7,296z M933.4,287.7c3.2,0,5.9,2.8,5.9,6.2
	c-0.2,8.3-11.5,8.3-11.7,0C927.6,290.5,930.2,287.7,933.4,287.7z M948.1,278.3c3.2,0,5.9,2.8,5.9,6.2c-0.2,8.3-11.5,8.3-11.7,0
	C942.2,281.1,944.9,278.3,948.1,278.3z"/>
<path class="st0" d="M947.1,308.5c3.2,0,5.9-2.8,5.9-6.2c-0.2-8.3-11.5-8.3-11.7,0C941.3,305.7,943.9,308.5,947.1,308.5z
	 M52.7,354.3c3.2,0,5.9,2.8,5.9,6.2c-0.2,8.3-11.5,8.3-11.7,0C46.9,357.1,49.5,354.3,52.7,354.3z M65.4,346c3.2,0,5.9,2.8,5.9,6.2
	c-0.2,8.3-11.5,8.3-11.7,0C59.6,348.8,62.2,346,65.4,346z M80.1,336.6c3.2,0,5.9,2.8,5.9,6.2c-0.2,8.3-11.5,8.3-11.7,0
	C74.2,339.4,76.8,336.6,80.1,336.6z M93.7,328.3c3.2,0,5.9,2.8,5.9,6.2c-0.2,8.3-11.5,8.3-11.7,0C87.9,331.1,90.5,328.3,93.7,328.3z
	 M28.3,353.3c3.2,0,5.9,2.8,5.9,6.2c-0.2,8.3-11.5,8.3-11.7,0C22.5,356.1,25.1,353.3,28.3,353.3z M41,344.9c3.2,0,5.9,2.8,5.9,6.2
	c-0.2,8.3-11.5,8.3-11.7,0C35.2,347.7,37.8,344.9,41,344.9z M55.7,335.6c3.2,0,5.9,2.8,5.9,6.2c-0.2,8.3-11.5,8.3-11.7,0
	C49.8,338.4,52.4,335.6,55.7,335.6z M69.3,327.3c3.2,0,5.9,2.8,5.9,6.2c-0.2,8.3-11.5,8.3-11.7,0C63.5,330.1,66.1,327.3,69.3,327.3z
	 M447.2,50.4c3.2,0,5.9,2.8,5.9,6.2c-0.2,8.3-11.5,8.3-11.7,0C441.3,53.2,444,50.4,447.2,50.4L447.2,50.4z M459.9,42.1
	c3.2,0,5.9,2.8,5.9,6.2c-0.2,8.3-11.5,8.3-11.7,0C454,44.9,456.7,42.1,459.9,42.1L459.9,42.1z M474.5,32.8c3.2,0,5.9,2.8,5.9,6.2
	c-0.2,8.3-11.5,8.3-11.7,0C468.7,35.6,471.3,32.8,474.5,32.8L474.5,32.8z M488.2,24.4c3.2,0,5.9,2.8,5.9,6.2
	c-0.2,8.3-11.5,8.3-11.7,0C482.3,27.2,485,24.4,488.2,24.4L488.2,24.4z M445.2,93.1c3.2,0,5.9,2.8,5.9,6.2c-0.2,8.3-11.5,8.3-11.7,0
	C439.4,95.9,442,93.1,445.2,93.1L445.2,93.1z M457.9,84.8c3.2,0,5.9,2.8,5.9,6.2c-0.2,8.3-11.5,8.3-11.7,0
	C452.1,87.6,454.7,84.8,457.9,84.8L457.9,84.8z M472.6,75.4c3.2,0,5.9,2.8,5.9,6.2c-0.2,8.3-11.5,8.3-11.7,0
	C466.7,78.2,469.3,75.4,472.6,75.4L472.6,75.4z M486.2,67.1c3.2,0,5.9,2.8,5.9,6.2c-0.2,8.3-11.5,8.3-11.7,0
	C480.4,69.9,483,67.1,486.2,67.1L486.2,67.1z M448.2,71.3c3.2,0,5.9,2.8,5.9,6.2c-0.2,8.3-11.5,8.3-11.7,0
	C442.3,74.1,444.9,71.3,448.2,71.3L448.2,71.3z M460.9,62.9c3.2,0,5.9,2.8,5.9,6.2c-0.2,8.3-11.5,8.3-11.7,0
	C455,65.7,457.6,62.9,460.9,62.9L460.9,62.9z M475.5,53.6c3.2,0,5.9,2.8,5.9,6.2c-0.2,8.3-11.5,8.3-11.7,0
	C469.7,56.4,472.3,53.6,475.5,53.6L475.5,53.6z M489.2,45.2c3.2,0,5.9,2.8,5.9,6.2c-0.2,8.3-11.5,8.3-11.7,0
	C483.3,48,485.9,45.2,489.2,45.2L489.2,45.2z M446.2,113.9c3.2,0,5.9,2.8,5.9,6.2c-0.2,8.3-11.5,8.3-11.7,0
	C440.4,116.7,443,113.9,446.2,113.9L446.2,113.9z M458.9,105.6c3.2,0,5.9,2.8,5.9,6.2c-0.2,8.3-11.5,8.3-11.7,0
	C453.1,108.4,455.7,105.6,458.9,105.6L458.9,105.6z M473.6,96.2c3.2,0,5.9,2.8,5.9,6.2c-0.2,8.3-11.5,8.3-11.7,0
	C467.7,99,470.3,96.2,473.6,96.2L473.6,96.2z M487.2,87.9c3.2,0,5.9,2.8,5.9,6.2c-0.2,8.3-11.5,8.3-11.7,0
	C481.4,90.7,484,87.9,487.2,87.9L487.2,87.9z M452.1,128.5c3.2,0,5.9,2.8,5.9,6.2c-0.2,8.3-11.5,8.3-11.7,0
	C446.2,131.3,448.8,128.5,452.1,128.5L452.1,128.5z M464.8,120.2c3.2,0,5.9,2.8,5.9,6.2c-0.2,8.3-11.5,8.3-11.7,0
	C458.9,123,461.5,120.2,464.8,120.2L464.8,120.2z M479.4,110.8c3.2,0,5.9,2.8,5.9,6.2c-0.2,8.3-11.5,8.3-11.7,0
	C473.6,113.6,476.2,110.8,479.4,110.8L479.4,110.8z M493.1,102.5c3.2,0,5.9,2.8,5.9,6.2c-0.2,8.3-11.5,8.3-11.7,0
	C487.2,105.3,489.8,102.5,493.1,102.5L493.1,102.5z M464.8,139.9c3.2,0,5.9,2.8,5.9,6.2c-0.2,8.3-11.5,8.3-11.7,0
	C458.9,142.7,461.5,139.9,464.8,139.9L464.8,139.9z M477.5,131.6c3.2,0,5.9,2.8,5.9,6.2c-0.2,8.3-11.5,8.3-11.7,0
	C471.6,134.4,474.2,131.6,477.5,131.6L477.5,131.6z M492.1,122.3c3.2,0,5.9,2.8,5.9,6.2c-0.2,8.3-11.5,8.3-11.7,0
	C486.2,125,488.9,122.3,492.1,122.3L492.1,122.3z M505.8,113.9c3.2,0,5.9,2.8,5.9,6.2c-0.2,8.3-11.5,8.3-11.7,0
	C499.9,116.7,502.5,113.9,505.8,113.9L505.8,113.9z M481.4,149.3c3.2,0,5.9,2.8,5.9,6.2c-0.2,8.3-11.5,8.3-11.7,0
	C475.5,152.1,478.1,149.3,481.4,149.3L481.4,149.3z M494.1,141c3.2,0,5.9,2.8,5.9,6.2c-0.2,8.3-11.5,8.3-11.7,0
	C488.2,143.8,490.8,141,494.1,141L494.1,141z M508.7,131.6c3.2,0,5.9,2.8,5.9,6.2c-0.2,8.3-11.5,8.3-11.7,0
	C502.8,134.4,505.5,131.6,508.7,131.6z M522.4,123.3c3.2,0,5.9,2.8,5.9,6.2c-0.2,8.3-11.5,8.3-11.7,0
	C516.5,126.1,519.1,123.3,522.4,123.3z"/>
<path class="st0" d="M500.9,151.4c3.2,0,5.9,2.8,5.9,6.2c-0.2,8.3-11.5,8.3-11.7,0C495,154.2,497.7,151.4,500.9,151.4L500.9,151.4z
	 M513.6,143.1c3.2,0,5.9,2.8,5.9,6.2c-0.2,8.3-11.5,8.3-11.7,0C507.7,145.9,510.4,143.1,513.6,143.1z M528.2,133.7
	c3.2,0,5.9,2.8,5.9,6.2c-0.2,8.3-11.5,8.3-11.7,0C522.4,136.5,525,133.7,528.2,133.7z M541.9,125.4c3.2,0,5.9,2.8,5.9,6.2
	c-0.2,8.3-11.5,8.3-11.7,0C536,128.2,538.7,125.4,541.9,125.4z M520.4,155.6c3.2,0,5.9,2.8,5.9,6.2c-0.2,8.3-11.5,8.3-11.7,0
	C514.6,158.3,517.2,155.6,520.4,155.6z M533.1,147.2c3.2,0,5.9,2.8,5.9,6.2c-0.2,8.3-11.5,8.3-11.7,0
	C527.3,150,529.9,147.2,533.1,147.2z M547.8,137.9c3.2,0,5.9,2.8,5.9,6.2c-0.2,8.3-11.5,8.3-11.7,0
	C541.9,140.7,544.5,137.9,547.8,137.9z M561.4,129.5c3.2,0,5.9,2.8,5.9,6.2c-0.2,8.3-11.5,8.3-11.7,0
	C555.6,132.3,558.2,129.5,561.4,129.5z M515.5,175.3c3.2,0,5.9,2.8,5.9,6.2c-0.2,8.3-11.5,8.3-11.7,0
	C509.7,178.1,512.3,175.3,515.5,175.3z M528.2,167c3.2,0,5.9,2.8,5.9,6.2c-0.2,8.3-11.5,8.3-11.7,0C522.4,169.8,525,167,528.2,167z
	 M542.9,157.6c3.2,0,5.9,2.8,5.9,6.2c-0.2,8.3-11.5,8.3-11.7,0C537,160.4,539.6,157.6,542.9,157.6z M556.5,149.3
	c3.2,0,5.9,2.8,5.9,6.2c-0.2,8.3-11.5,8.3-11.7,0C550.7,152.1,553.3,149.3,556.5,149.3z M513.6,194.1c3.2,0,5.9,2.8,5.9,6.2
	c-0.2,8.3-11.5,8.3-11.7,0C507.7,196.9,510.4,194.1,513.6,194.1z M526.3,185.7c3.2,0,5.9,2.8,5.9,6.2c-0.2,8.3-11.5,8.3-11.7,0
	C520.4,188.5,523,185.7,526.3,185.7z M540.9,176.4c3.2,0,5.9,2.8,5.9,6.2c-0.2,8.3-11.5,8.3-11.7,0
	C535.1,179.2,537.7,176.4,540.9,176.4z M554.6,168c3.2,0,5.9,2.8,5.9,6.2c-0.2,8.3-11.5,8.3-11.7,0C548.7,170.8,551.4,168,554.6,168
	z M506.8,218c3.2,0,5.9,2.8,5.9,6.2c-0.2,8.3-11.5,8.3-11.7,0C500.9,220.8,503.5,218,506.8,218z M519.4,209.7c3.2,0,5.9,2.8,5.9,6.2
	c-0.2,8.3-11.5,8.3-11.7,0C513.6,212.5,516.2,209.7,519.4,209.7z M534.1,200.3c3.2,0,5.9,2.8,5.9,6.2c-0.2,8.3-11.5,8.3-11.7,0
	C528.2,203.1,530.9,200.3,534.1,200.3z M547.8,192c3.2,0,5.9,2.8,5.9,6.2c-0.2,8.3-11.5,8.3-11.7,0C541.9,194.8,544.5,192,547.8,192
	z M503.8,238.8c3.2,0,5.9,2.8,5.9,6.2c-0.2,8.3-11.5,8.3-11.7,0C498,241.6,500.6,238.8,503.8,238.8L503.8,238.8z M516.5,230.5
	c3.2,0,5.9,2.8,5.9,6.2c-0.2,8.3-11.5,8.3-11.7,0C510.7,233.3,513.3,230.5,516.5,230.5z M531.2,221.1c3.2,0,5.9,2.8,5.9,6.2
	c-0.2,8.3-11.5,8.3-11.7,0C525.3,223.9,527.9,221.1,531.2,221.1z M544.8,212.8c3.2,0,5.9,2.8,5.9,6.2c-0.2,8.3-11.5,8.3-11.7,0
	C539,215.6,541.6,212.8,544.8,212.8z M499.9,260.7c3.2,0,5.9,2.8,5.9,6.2c-0.2,8.3-11.5,8.3-11.7,0
	C494.1,263.5,496.7,260.7,499.9,260.7L499.9,260.7z M512.6,252.3c3.2,0,5.9,2.8,5.9,6.2c-0.2,8.3-11.5,8.3-11.7,0
	C506.8,255.1,509.4,252.3,512.6,252.3z M527.3,243c3.2,0,5.9,2.8,5.9,6.2c-0.2,8.3-11.5,8.3-11.7,0C521.4,245.8,524,243,527.3,243z
	 M540.9,234.6c3.2,0,5.9,2.8,5.9,6.2c-0.2,8.3-11.5,8.3-11.7,0C535.1,237.4,537.7,234.6,540.9,234.6z M498,278.3
	c3.2,0,5.9,2.8,5.9,6.2c-0.2,8.3-11.5,8.3-11.7,0C492.1,281.1,494.7,278.3,498,278.3L498,278.3z M510.7,270c3.2,0,5.9,2.8,5.9,6.2
	c-0.2,8.3-11.5,8.3-11.7,0C504.8,272.8,507.4,270,510.7,270z M525.3,260.7c3.2,0,5.9,2.8,5.9,6.2c-0.2,8.3-11.5,8.3-11.7,0
	C519.4,263.5,522.1,260.7,525.3,260.7z M539,252.3c3.2,0,5.9,2.8,5.9,6.2c-0.2,8.3-11.5,8.3-11.7,0
	C533.1,255.1,535.7,252.3,539,252.3z M496,297.1c3.2,0,5.9,2.8,5.9,6.2c-0.2,8.3-11.5,8.3-11.7,0C490.2,299.9,492.8,297.1,496,297.1
	L496,297.1z M508.7,288.8c3.2,0,5.9,2.8,5.9,6.2c-0.2,8.3-11.5,8.3-11.7,0C502.8,291.5,505.5,288.8,508.7,288.8z M523.4,279.4
	c3.2,0,5.9,2.8,5.9,6.2c-0.2,8.3-11.5,8.3-11.7,0C517.5,282.2,520.1,279.4,523.4,279.4z M537,271.1c3.2,0,5.9,2.8,5.9,6.2
	c-0.2,8.3-11.5,8.3-11.7,0C531.2,273.9,533.8,271.1,537,271.1z M501.9,312.7c3.2,0,5.9,2.8,5.9,6.2c-0.2,8.3-11.5,8.3-11.7,0
	C496,315.5,498.6,312.7,501.9,312.7L501.9,312.7z M514.6,304.4c3.2,0,5.9,2.8,5.9,6.2c-0.2,8.3-11.5,8.3-11.7,0
	C508.7,307.2,511.3,304.4,514.6,304.4z M529.2,295c3.2,0,5.9,2.8,5.9,6.2c-0.2,8.3-11.5,8.3-11.7,0C523.4,297.8,526,295,529.2,295z
	 M542.9,286.7c3.2,0,5.9,2.8,5.9,6.2c-0.2,8.3-11.5,8.3-11.7,0C537,289.5,539.6,286.7,542.9,286.7z M516.5,321
	c3.2,0,5.9,2.8,5.9,6.2c-0.2,8.3-11.5,8.3-11.7,0C510.7,323.8,513.3,321,516.5,321z M529.2,312.7c3.2,0,5.9,2.8,5.9,6.2
	c-0.2,8.3-11.5,8.3-11.7,0C523.4,315.5,526,312.7,529.2,312.7z M543.9,303.3c3.2,0,5.9,2.8,5.9,6.2c-0.2,8.3-11.5,8.3-11.7,0
	C538,306.1,540.6,303.3,543.9,303.3z M557.5,295c3.2,0,5.9,2.8,5.9,6.2c-0.2,8.3-11.5,8.3-11.7,0C551.7,297.8,554.3,295,557.5,295z
	 M533.1,326.2c3.2,0,5.9,2.8,5.9,6.2c-0.2,8.3-11.5,8.3-11.7,0C527.3,329,529.9,326.2,533.1,326.2z M545.8,317.9
	c3.2,0,5.9,2.8,5.9,6.2c-0.2,8.3-11.5,8.3-11.7,0C540,320.7,542.6,317.9,545.8,317.9z"/>
<path class="st0" d="M560.5,308.5c3.2,0,5.9,2.8,5.9,6.2c-0.2,8.3-11.5,8.3-11.7,0C554.6,311.3,557.2,308.5,560.5,308.5z
	 M574.1,300.2c3.2,0,5.9,2.8,5.9,6.2c-0.2,8.3-11.5,8.3-11.7,0C568.3,303,570.9,300.2,574.1,300.2z M554.6,327.3
	c3.2,0,5.9,2.8,5.9,6.2c-0.2,8.3-11.5,8.3-11.7,0C548.7,330.1,551.4,327.3,554.6,327.3z"/>
<path class="st0" d="M567.3,318.9c3.2,0,5.9,2.8,5.9,6.2c-0.2,8.3-11.5,8.3-11.7,0C561.4,321.7,564.1,318.9,567.3,318.9z
	 M581.9,309.6c3.2,0,5.9,2.8,5.9,6.2c-0.2,8.3-11.5,8.3-11.7,0C576.1,312.4,578.7,309.6,581.9,309.6z M595.6,301.2
	c3.2,0,5.9,2.8,5.9,6.2c-0.2,8.3-11.5,8.3-11.7,0C589.7,304,592.4,301.2,595.6,301.2z M580,327.3c3.2,0,5.9,2.8,5.9,6.2
	c-0.2,8.3-11.5,8.3-11.7,0C574.1,330.1,576.7,327.3,580,327.3z M592.7,318.9c3.2,0,5.9,2.8,5.9,6.2c-0.2,8.3-11.5,8.3-11.7,0
	C586.8,321.7,589.4,318.9,592.7,318.9z M607.3,309.6c3.2,0,5.9,2.8,5.9,6.2c-0.2,8.3-11.5,8.3-11.7,0
	C601.5,312.4,604.1,309.6,607.3,309.6z M621,301.2c3.2,0,5.9,2.8,5.9,6.2c-0.2,8.3-11.5,8.3-11.7,0C615.1,304,617.8,301.2,621,301.2
	z"/>
<path class="st0" d="M601.5,326.2c3.2,0,5.9,2.8,5.9,6.2c-0.2,8.3-11.5,8.3-11.7,0C595.6,329,598.2,326.2,601.5,326.2z M614.2,317.9
	c3.2,0,5.9,2.8,5.9,6.2c-0.2,8.3-11.5,8.3-11.7,0C608.3,320.7,610.9,317.9,614.2,317.9z M628.8,308.5c3.2,0,5.9,2.8,5.9,6.2
	c-0.2,8.3-11.5,8.3-11.7,0C622.9,311.3,625.6,308.5,628.8,308.5z M642.5,300.2c3.2,0,5.9,2.8,5.9,6.2c-0.2,8.3-11.5,8.3-11.7,0
	C636.6,303,639.2,300.2,642.5,300.2z M625.9,325.2c3.2,0,5.9,2.8,5.9,6.2c-0.2,8.3-11.5,8.3-11.7,0C620,328,622.6,325.2,625.9,325.2
	z"/>
<path class="st0" d="M638.6,316.9c3.2,0,5.9,2.8,5.9,6.2c-0.2,8.3-11.5,8.3-11.7,0C632.7,319.6,635.3,316.9,638.6,316.9z
	 M653.2,307.5c3.2,0,5.9,2.8,5.9,6.2c-0.2,8.3-11.5,8.3-11.7,0C647.4,310.3,650,307.5,653.2,307.5z M666.9,299.2
	c3.2,0,5.9,2.8,5.9,6.2c-0.2,8.3-11.5,8.3-11.7,0C661,302,663.6,299.2,666.9,299.2z"/>
<path class="st0" d="M648.3,298.1c3.2,0,5.9,2.8,5.9,6.2c-0.2,8.3-11.5,8.3-11.7,0C642.5,300.9,645.1,298.1,648.3,298.1z M661,289.8
	c3.2,0,5.9,2.8,5.9,6.2c-0.2,8.3-11.5,8.3-11.7,0C655.2,292.6,657.8,289.8,661,289.8z M675.7,280.4c3.2,0,5.9,2.8,5.9,6.2
	c-0.2,8.3-11.5,8.3-11.7,0C669.8,283.2,672.4,280.4,675.7,280.4z M689.3,272.1c3.2,0,5.9,2.8,5.9,6.2c-0.2,8.3-11.5,8.3-11.7,0
	C683.5,274.9,686.1,272.1,689.3,272.1z"/>
</svg>
