<svg version="1.1" id="Layer_1" xmlns="http://www.w3.org/2000/svg" x="0" y="0" viewBox="0 0 1193 384" style="enable-background:new 0 0 1193 384" xml:space="preserve"><style>.st0{fill:#f9d34e}</style><path class="st0" d="M447.2 26.5c3.2 0 5.9 2.8 5.9 6.2-.2 8.3-11.5 8.3-11.7 0-.1-3.4 2.6-6.2 5.8-6.2zM459.9 18.2c3.2 0 5.9 2.8 5.9 6.2-.2 8.3-11.5 8.3-11.7 0-.1-3.4 2.6-6.2 5.8-6.2zM474.5 8.8c3.2 0 5.9 2.8 5.9 6.2-.2 8.3-11.5 8.3-11.7 0 0-3.4 2.6-6.2 5.8-6.2zM488.2.5c3.2 0 5.9 2.8 5.9 6.2-.2 8.3-11.5 8.3-11.7 0-.1-3.4 2.6-6.2 5.8-6.2zM428.6 48.4c3.2 0 5.9 2.8 5.9 6.2-.2 8.3-11.5 8.3-11.7 0 0-3.4 2.6-6.2 5.8-6.2zM441.3 40c3.2 0 5.9 2.8 5.9 6.2-.2 8.3-11.5 8.3-11.7 0 0-3.4 2.6-6.2 5.8-6.2z"/><path class="st0" d="M456 30.7c3.2 0 5.9 2.8 5.9 6.2-.2 8.3-11.5 8.3-11.7 0-.1-3.4 2.5-6.2 5.8-6.2zM469.6 22.3c3.2 0 5.9 2.8 5.9 6.2-.2 8.3-11.5 8.3-11.7 0 0-3.4 2.6-6.2 5.8-6.2zM400.3 49.4c3.2 0 5.9 2.8 5.9 6.2-.2 8.3-11.5 8.3-11.7 0 0-3.4 2.6-6.2 5.8-6.2zM413 41.1c3.2 0 5.9 2.8 5.9 6.2-.2 8.3-11.5 8.3-11.7 0 0-3.4 2.6-6.2 5.8-6.2zM427.7 31.7c3.2 0 5.9 2.8 5.9 6.2-.2 8.3-11.5 8.3-11.7 0-.1-3.4 2.5-6.2 5.8-6.2zM441.3 23.4c3.2 0 5.9 2.8 5.9 6.2-.2 8.3-11.5 8.3-11.7 0 0-3.4 2.6-6.2 5.8-6.2zM384.7 73.3c3.2 0 5.9 2.8 5.9 6.2-.2 8.3-11.5 8.3-11.7 0-.1-3.4 2.6-6.2 5.8-6.2zM397.4 65c3.2 0 5.9 2.8 5.9 6.2-.2 8.3-11.5 8.3-11.7 0-.1-3.4 2.6-6.2 5.8-6.2z"/><path class="st0" d="M412 55.6c3.2 0 5.9 2.8 5.9 6.2-.2 8.3-11.5 8.3-11.7 0 0-3.4 2.6-6.2 5.8-6.2zM425.7 47.3c3.2 0 5.9 2.8 5.9 6.2-.2 8.3-11.5 8.3-11.7 0 0-3.4 2.6-6.2 5.8-6.2zM373 95.2c3.2 0 5.9 2.8 5.9 6.2-.2 8.3-11.5 8.3-11.7 0-.1-3.4 2.6-6.2 5.8-6.2zM385.7 86.9c3.2 0 5.9 2.8 5.9 6.2-.2 8.3-11.5 8.3-11.7 0-.1-3.4 2.5-6.2 5.8-6.2zM400.3 77.5c3.2 0 5.9 2.8 5.9 6.2-.2 8.3-11.5 8.3-11.7 0 0-3.4 2.6-6.2 5.8-6.2z"/><path class="st0" d="M414 69.2c3.2 0 5.9 2.8 5.9 6.2-.2 8.3-11.5 8.3-11.7 0-.1-3.4 2.6-6.2 5.8-6.2zM364.2 117.1c3.2 0 5.9 2.8 5.8 6.3-.3 8.3-11.5 8.2-11.7 0 .1-3.6 2.7-6.3 5.9-6.3zM376.9 108.8c3.2 0 5.9 2.8 5.8 6.3-.3 8.3-11.5 8.2-11.7 0 .1-3.6 2.7-6.4 5.9-6.3zM391.6 99.4c3.2 0 5.9 2.8 5.8 6.3-.3 8.3-11.5 8.2-11.7 0 0-3.5 2.6-6.3 5.9-6.3zM405.3 91.1c3.2 0 5.9 2.8 5.8 6.3-.3 8.3-11.5 8.2-11.7 0 0-3.5 2.6-6.3 5.9-6.3zM240.2 154.6c3.2 0 5.9 2.8 5.8 6.3-.3 8.3-11.5 8.2-11.7 0 .1-3.6 2.7-6.3 5.9-6.3zM253.9 146.3c3.2 0 5.9 2.8 5.8 6.3-.3 8.3-11.5 8.2-11.7 0 .1-3.6 2.7-6.3 5.9-6.3zM325.2 126.4c3.2 0 5.9 2.8 5.8 6.3-.3 8.3-11.5 8.2-11.7 0 0-3.5 2.6-6.3 5.9-6.3zM337.9 118.1c3.2 0 5.9 2.8 5.8 6.3-.3 8.3-11.5 8.2-11.7 0 0-3.5 2.6-6.3 5.9-6.3zM352.5 108.8c3.2 0 5.9 2.8 5.8 6.3-.3 8.3-11.5 8.2-11.7 0 .1-3.5 2.7-6.3 5.9-6.3zM366.2 100.5c3.2 0 5.9 2.8 5.8 6.3-.3 8.3-11.5 8.2-11.7 0 0-3.5 2.7-6.3 5.9-6.3zM241.2 135.8c3.2 0 5.9 2.8 5.9 6.2-.2 8.3-11.5 8.3-11.7 0-.1-3.4 2.5-6.2 5.8-6.2zM254.8 127.5c3.2 0 5.9 2.8 5.9 6.2-.2 8.3-11.5 8.3-11.7 0 0-3.5 2.6-6.2 5.8-6.2zM273.4 118.1c3.2 0 5.9 2.8 5.9 6.2-.2 8.3-11.5 8.3-11.7 0-.1-3.4 2.6-6.2 5.8-6.2zM286.1 109.8c3.2 0 5.9 2.8 5.9 6.2-.2 8.3-11.5 8.3-11.7 0-.1-3.4 2.6-6.2 5.8-6.2zM300.7 100.4c3.2 0 5.9 2.8 5.9 6.2-.2 8.3-11.5 8.3-11.7 0 0-3.4 2.6-6.2 5.8-6.2zM314.4 92.1c3.2 0 5.9 2.8 5.9 6.2-.2 8.3-11.5 8.3-11.7 0-.1-3.4 2.6-6.2 5.8-6.2zM298.8 130.6c3.2 0 5.9 2.8 5.9 6.2-.2 8.3-11.5 8.3-11.7 0-.1-3.4 2.5-6.2 5.8-6.2zM311.5 122.3c3.2 0 5.9 2.8 5.9 6.2-.2 8.3-11.5 8.3-11.7 0-.1-3.5 2.5-6.2 5.8-6.2z"/><path class="st0" d="M326.1 112.9c3.2 0 5.9 2.8 5.9 6.2-.2 8.3-11.5 8.3-11.7 0 0-3.4 2.6-6.2 5.8-6.2zM339.8 104.6c3.2 0 5.9 2.8 5.9 6.2-.2 8.3-11.5 8.3-11.7 0-.1-3.4 2.6-6.2 5.8-6.2zM300.7 113.9c3.2 0 5.9 2.8 5.9 6.2-.2 8.3-11.5 8.3-11.7 0 0-3.4 2.6-6.2 5.8-6.2zM313.4 105.6c3.2 0 5.9 2.8 5.9 6.2-.2 8.3-11.5 8.3-11.7 0 0-3.4 2.6-6.2 5.8-6.2zM328.1 96.2c3.2 0 5.9 2.8 5.9 6.2-.2 8.3-11.5 8.3-11.7 0-.1-3.4 2.5-6.2 5.8-6.2zM341.7 87.9c3.2 0 5.9 2.8 5.9 6.2-.2 8.3-11.5 8.3-11.7 0 0-3.4 2.6-6.2 5.8-6.2zM247 120.2c3.2 0 5.9 2.8 5.9 6.2-.2 8.3-11.5 8.3-11.7 0 0-3.4 2.6-6.2 5.8-6.2zM259.7 111.8c3.2 0 5.9 2.8 5.9 6.2-.2 8.3-11.5 8.3-11.7 0 0-3.4 2.6-6.2 5.8-6.2zM274.4 102.5c3.2 0 5.9 2.8 5.9 6.2-.2 8.3-11.5 8.3-11.7 0-.1-3.4 2.5-6.2 5.8-6.2zM288 94.2c3.2 0 5.9 2.8 5.9 6.2-.2 8.3-11.5 8.3-11.7 0 0-3.5 2.6-6.2 5.8-6.2zM5.9 352.2c3.2 0 5.9 2.8 5.9 6.2-.2 8.3-11.5 8.3-11.7 0-.1-3.4 2.5-6.2 5.8-6.2zM18.6 343.9c3.2 0 5.9 2.8 5.9 6.2-.2 8.3-11.5 8.3-11.7 0-.1-3.4 2.5-6.2 5.8-6.2zM33.2 334.5c3.2 0 5.9 2.8 5.9 6.2-.2 8.3-11.5 8.3-11.7 0-.1-3.4 2.6-6.2 5.8-6.2zM46.9 326.2c3.2 0 5.9 2.8 5.9 6.2-.2 8.3-11.5 8.3-11.7 0-.1-3.4 2.5-6.2 5.8-6.2zM80.1 355.4c3.2 0 5.9 2.8 5.9 6.2-.2 8.3-11.5 8.3-11.7 0-.1-3.4 2.5-6.2 5.8-6.2zM92.8 347c3.2 0 5.9 2.8 5.9 6.2-.2 8.3-11.5 8.3-11.7 0-.1-3.4 2.5-6.2 5.8-6.2zM107.4 337.7c3.2 0 5.9 2.8 5.9 6.2-.2 8.3-11.5 8.3-11.7 0-.1-3.4 2.6-6.2 5.8-6.2zM121.1 329.3c3.2 0 5.9 2.8 5.9 6.2-.2 8.3-11.5 8.3-11.7 0-.1-3.4 2.5-6.2 5.8-6.2z"/><path class="st0" d="M110.3 351.2c3.2 0 5.9 2.8 5.9 6.2-.2 8.3-11.5 8.3-11.7 0 0-3.4 2.6-6.2 5.8-6.2zM123 342.9c3.2 0 5.9 2.8 5.9 6.2-.2 8.3-11.5 8.3-11.7 0 0-3.4 2.6-6.2 5.8-6.2zM137.7 333.5c3.2 0 5.9 2.8 5.9 6.2-.2 8.3-11.5 8.3-11.7 0-.1-3.4 2.5-6.2 5.8-6.2zM151.3 325.2c3.2 0 5.9 2.8 5.9 6.2-.2 8.3-11.5 8.3-11.7 0 0-3.4 2.6-6.2 5.8-6.2zM166 312.7c3.2 0 5.9 2.8 5.9 6.2-.2 8.3-11.5 8.3-11.7 0-.1-3.4 2.6-6.2 5.8-6.2z"/><path class="st0" d="M134.7 320c3.2 0 5.9 2.8 5.9 6.2-.2 8.3-11.5 8.3-11.7 0 0-3.4 2.6-6.2 5.8-6.2zM1024.3 371c3.2 0 5.9 2.8 5.9 6.2-.2 8.3-11.5 8.3-11.7 0-.1-3.4 2.5-6.2 5.8-6.2zM1036.9 362.6c3.2 0 5.9 2.8 5.9 6.2-.2 8.3-11.5 8.3-11.7 0 0-3.4 2.6-6.2 5.8-6.2zM1051.6 353.3c3.2 0 5.9 2.8 5.9 6.2-.2 8.3-11.5 8.3-11.7 0-.1-3.4 2.6-6.2 5.8-6.2zM1065.3 344.9c3.2 0 5.9 2.8 5.9 6.2-.2 8.3-11.5 8.3-11.7 0-.1-3.4 2.5-6.2 5.8-6.2zM1057.4 366.8c3.2 0 5.9 2.8 5.9 6.2-.2 8.3-11.5 8.3-11.7 0 0-3.4 2.6-6.2 5.8-6.2zM1070.1 358.5c3.2 0 5.9 2.8 5.9 6.2-.2 8.3-11.5 8.3-11.7 0 0-3.4 2.6-6.2 5.8-6.2zM1084.8 349.1c3.2 0 5.9 2.8 5.9 6.2-.2 8.3-11.5 8.3-11.7 0-.1-3.4 2.5-6.2 5.8-6.2zM1098.4 340.8c3.2 0 5.9 2.8 5.9 6.2-.2 8.3-11.5 8.3-11.7 0 0-3.4 2.6-6.2 5.8-6.2zM1085.8 363.7c3.2 0 5.9 2.8 5.9 6.2-.2 8.3-11.5 8.3-11.7 0-.1-3.4 2.5-6.2 5.8-6.2zM1098.4 355.4c3.2 0 5.9 2.8 5.9 6.2-.2 8.3-11.5 8.3-11.7 0 0-3.4 2.6-6.2 5.8-6.2zM1113.1 346c3.2 0 5.9 2.8 5.9 6.2-.2 8.3-11.5 8.3-11.7 0-.1-3.4 2.6-6.2 5.8-6.2zM1126.8 337.7c3.2 0 5.9 2.8 5.9 6.2-.2 8.3-11.5 8.3-11.7 0-.1-3.4 2.5-6.2 5.8-6.2z"/><path class="st0" d="M1113.1 359.5c3.2 0 5.9 2.8 5.9 6.2-.2 8.3-11.5 8.3-11.7 0-.1-3.4 2.6-6.2 5.8-6.2zM1125.8 351.2c3.2 0 5.9 2.8 5.9 6.2-.2 8.3-11.5 8.3-11.7 0-.1-3.4 2.6-6.2 5.8-6.2zM1140.4 341.8c3.2 0 5.9 2.8 5.9 6.2-.2 8.3-11.5 8.3-11.7 0 0-3.4 2.6-6.2 5.8-6.2zM1154.1 333.5c3.2 0 5.9 2.8 5.9 6.2-.2 8.3-11.5 8.3-11.7 0 0-3.4 2.6-6.2 5.8-6.2zM1121.9 371c3.2 0 5.9 2.8 5.9 6.2-.2 8.3-11.5 8.3-11.7 0-.1-3.4 2.6-6.2 5.8-6.2zM1134.6 362.6c3.2 0 5.9 2.8 5.9 6.2-.2 8.3-11.5 8.3-11.7 0-.1-3.4 2.5-6.2 5.8-6.2zM1152.2 372c3.2 0 5.9 2.8 5.9 6.2-.2 8.3-11.5 8.3-11.7 0-.1-3.4 2.5-6.2 5.8-6.2zM1149.2 353.3c3.2 0 5.9 2.8 5.9 6.2-.2 8.3-11.5 8.3-11.7 0 0-3.4 2.6-6.2 5.8-6.2zM1166.8 362.6c3.2 0 5.9 2.8 5.9 6.2-.2 8.3-11.5 8.3-11.7 0-.1-3.4 2.6-6.2 5.8-6.2zM1180.5 372c3.2 0 5.9 2.8 5.9 6.2-.2 8.3-11.5 8.3-11.7 0-.1-3.4 2.5-6.2 5.8-6.2zM1162.9 344.9c3.2 0 5.9 2.8 5.9 6.2-.2 8.3-11.5 8.3-11.7 0-.1-3.4 2.6-6.2 5.8-6.2zM1180.5 354.3c3.2 0 5.9 2.8 5.9 6.2-.2 8.3-11.5 8.3-11.7 0-.1-3.4 2.5-6.2 5.8-6.2zM1194.1 363.7c3.2 0 5.9 2.8 5.9 6.2-.2 8.3-11.5 8.3-11.7 0 0-3.4 2.6-6.2 5.8-6.2zM964.7 302.3c3.2 0 5.9 2.8 5.9 6.2-.2 8.3-11.5 8.3-11.7 0-.1-3.4 2.6-6.2 5.8-6.2zM977.4 294c3.2 0 5.9 2.8 5.9 6.2-.2 8.3-11.5 8.3-11.7 0-.1-3.4 2.5-6.2 5.8-6.2zM992 284.6c3.2 0 5.9 2.8 5.9 6.2-.2 8.3-11.5 8.3-11.7 0 0-3.4 2.6-6.2 5.8-6.2zM1005.7 276.3c3.2 0 5.9 2.8 5.9 6.2-.2 8.3-11.5 8.3-11.7 0-.1-3.4 2.6-6.2 5.8-6.2zM940.3 301.2c3.2 0 5.9 2.8 5.9 6.2-.2 8.3-11.5 8.3-11.7 0-.1-3.4 2.5-6.2 5.8-6.2zM953 292.9c3.2 0 5.9 2.8 5.9 6.2-.2 8.3-11.5 8.3-11.7 0-.1-3.4 2.5-6.2 5.8-6.2zM967.6 283.6c3.2 0 5.9 2.8 5.9 6.2-.2 8.3-11.5 8.3-11.7 0 0-3.5 2.6-6.2 5.8-6.2zM981.3 275.2c3.2 0 5.9 2.8 5.9 6.2-.2 8.3-11.5 8.3-11.7 0-.1-3.4 2.5-6.2 5.8-6.2zM995 371c3.2 0 5.9 2.8 5.9 6.2-.2 8.3-11.5 8.3-11.7 0-.1-3.4 2.5-6.2 5.8-6.2zM1007.7 362.6c3.2 0 5.9 2.8 5.9 6.2-.2 8.3-11.5 8.3-11.7 0-.1-3.4 2.5-6.2 5.8-6.2zM1022.3 353.3c3.2 0 5.9 2.8 5.9 6.2-.2 8.3-11.5 8.3-11.7 0-.1-3.4 2.6-6.2 5.8-6.2zM1036 344.9c3.2 0 5.9 2.8 5.9 6.2-.2 8.3-11.5 8.3-11.7 0-.1-3.4 2.5-6.2 5.8-6.2zM979.3 364.7c3.2 0 5.9 2.8 5.9 6.2-.2 8.3-11.5 8.3-11.7 0 0-3.4 2.6-6.2 5.8-6.2zM992 356.4c3.2 0 5.9 2.8 5.9 6.2-.2 8.3-11.5 8.3-11.7 0 0-3.4 2.6-6.2 5.8-6.2zM1006.7 347c3.2 0 5.9 2.8 5.9 6.2-.2 8.3-11.5 8.3-11.7 0-.1-3.4 2.5-6.2 5.8-6.2zM1020.3 338.7c3.2 0 5.9 2.8 5.9 6.2-.2 8.3-11.5 8.3-11.7 0 0-3.4 2.6-6.2 5.8-6.2zM985.2 342.9c3.2 0 5.9 2.8 5.9 6.2-.2 8.3-11.5 8.3-11.7 0-.1-3.4 2.6-6.2 5.8-6.2zM997.9 334.5c3.2 0 5.9 2.8 5.9 6.2-.2 8.3-11.5 8.3-11.7 0-.1-3.4 2.5-6.2 5.8-6.2zM1012.5 325.2c3.2 0 5.9 2.8 5.9 6.2-.2 8.3-11.5 8.3-11.7 0 0-3.4 2.6-6.2 5.8-6.2zM1026.2 316.9c3.2 0 5.9 2.8 5.9 6.2-.2 8.3-11.5 8.3-11.7 0-.1-3.5 2.6-6.2 5.8-6.2zM679.3 298.1c7.8-.9 9.3 10.9 1.8 12.3-7.8 1-9.3-10.8-1.8-12.3zM690.7 287.8c7.8-.9 9.3 10.9 1.8 12.3-7.9 1-9.4-10.8-1.8-12.3zM703.8 276.2c7.8-.9 9.3 10.9 1.8 12.3-7.8 1-9.3-10.8-1.8-12.3zM716.1 265.8c7.8-.9 9.3 10.9 1.8 12.3-7.8 1-9.3-10.9-1.8-12.3zM985.2 306.4c3.2 0 5.9 2.8 5.9 6.2-.2 8.3-11.5 8.3-11.7 0-.1-3.4 2.6-6.2 5.8-6.2zM997.9 298.1c3.2 0 5.9 2.8 5.9 6.2-.2 8.3-11.5 8.3-11.7 0-.1-3.4 2.5-6.2 5.8-6.2zM1012.5 288.8c3.2 0 5.9 2.8 5.9 6.2-.2 8.3-11.5 8.3-11.7 0 0-3.5 2.6-6.2 5.8-6.2zM1026.2 280.4c3.2 0 5.9 2.8 5.9 6.2-.2 8.3-11.5 8.3-11.7 0-.1-3.4 2.6-6.2 5.8-6.2zM982.3 326.2c3.2 0 5.9 2.8 5.9 6.2-.2 8.3-11.5 8.3-11.7 0-.1-3.4 2.5-6.2 5.8-6.2zM995 317.9c3.2 0 5.9 2.8 5.9 6.2-.2 8.3-11.5 8.3-11.7 0-.1-3.4 2.5-6.2 5.8-6.2zM1009.6 308.5c3.2 0 5.9 2.8 5.9 6.2-.2 8.3-11.5 8.3-11.7 0-.1-3.4 2.6-6.2 5.8-6.2zM1023.3 300.2c3.2 0 5.9 2.8 5.9 6.2-.2 8.3-11.5 8.3-11.7 0-.1-3.4 2.5-6.2 5.8-6.2zM920.7 296c3.2 0 5.9 2.8 5.9 6.2-.2 8.3-11.5 8.3-11.7 0 0-3.4 2.6-6.2 5.8-6.2zM933.4 287.7c3.2 0 5.9 2.8 5.9 6.2-.2 8.3-11.5 8.3-11.7 0 0-3.4 2.6-6.2 5.8-6.2zM948.1 278.3c3.2 0 5.9 2.8 5.9 6.2-.2 8.3-11.5 8.3-11.7 0-.1-3.4 2.6-6.2 5.8-6.2z"/><path class="st0" d="M947.1 308.5c3.2 0 5.9-2.8 5.9-6.2-.2-8.3-11.5-8.3-11.7 0 0 3.4 2.6 6.2 5.8 6.2zM52.7 354.3c3.2 0 5.9 2.8 5.9 6.2-.2 8.3-11.5 8.3-11.7 0 0-3.4 2.6-6.2 5.8-6.2zM65.4 346c3.2 0 5.9 2.8 5.9 6.2-.2 8.3-11.5 8.3-11.7 0 0-3.4 2.6-6.2 5.8-6.2zM80.1 336.6c3.2 0 5.9 2.8 5.9 6.2-.2 8.3-11.5 8.3-11.7 0-.1-3.4 2.5-6.2 5.8-6.2zM93.7 328.3c3.2 0 5.9 2.8 5.9 6.2-.2 8.3-11.5 8.3-11.7 0 0-3.4 2.6-6.2 5.8-6.2zM28.3 353.3c3.2 0 5.9 2.8 5.9 6.2-.2 8.3-11.5 8.3-11.7 0 0-3.4 2.6-6.2 5.8-6.2zM41 344.9c3.2 0 5.9 2.8 5.9 6.2-.2 8.3-11.5 8.3-11.7 0 0-3.4 2.6-6.2 5.8-6.2zM55.7 335.6c3.2 0 5.9 2.8 5.9 6.2-.2 8.3-11.5 8.3-11.7 0-.1-3.4 2.5-6.2 5.8-6.2zM69.3 327.3c3.2 0 5.9 2.8 5.9 6.2-.2 8.3-11.5 8.3-11.7 0 0-3.4 2.6-6.2 5.8-6.2zM447.2 50.4c3.2 0 5.9 2.8 5.9 6.2-.2 8.3-11.5 8.3-11.7 0-.1-3.4 2.6-6.2 5.8-6.2zM459.9 42.1c3.2 0 5.9 2.8 5.9 6.2-.2 8.3-11.5 8.3-11.7 0-.1-3.4 2.6-6.2 5.8-6.2zM474.5 32.8c3.2 0 5.9 2.8 5.9 6.2-.2 8.3-11.5 8.3-11.7 0 0-3.4 2.6-6.2 5.8-6.2zM488.2 24.4c3.2 0 5.9 2.8 5.9 6.2-.2 8.3-11.5 8.3-11.7 0-.1-3.4 2.6-6.2 5.8-6.2zM445.2 93.1c3.2 0 5.9 2.8 5.9 6.2-.2 8.3-11.5 8.3-11.7 0 0-3.4 2.6-6.2 5.8-6.2zM457.9 84.8c3.2 0 5.9 2.8 5.9 6.2-.2 8.3-11.5 8.3-11.7 0 0-3.4 2.6-6.2 5.8-6.2zM472.6 75.4c3.2 0 5.9 2.8 5.9 6.2-.2 8.3-11.5 8.3-11.7 0-.1-3.4 2.5-6.2 5.8-6.2zM486.2 67.1c3.2 0 5.9 2.8 5.9 6.2-.2 8.3-11.5 8.3-11.7 0 0-3.4 2.6-6.2 5.8-6.2zM448.2 71.3c3.2 0 5.9 2.8 5.9 6.2-.2 8.3-11.5 8.3-11.7 0-.1-3.4 2.5-6.2 5.8-6.2zM460.9 62.9c3.2 0 5.9 2.8 5.9 6.2-.2 8.3-11.5 8.3-11.7 0-.1-3.4 2.5-6.2 5.8-6.2zM475.5 53.6c3.2 0 5.9 2.8 5.9 6.2-.2 8.3-11.5 8.3-11.7 0 0-3.4 2.6-6.2 5.8-6.2zM489.2 45.2c3.2 0 5.9 2.8 5.9 6.2-.2 8.3-11.5 8.3-11.7 0-.1-3.4 2.5-6.2 5.8-6.2zM446.2 113.9c3.2 0 5.9 2.8 5.9 6.2-.2 8.3-11.5 8.3-11.7 0 0-3.4 2.6-6.2 5.8-6.2zM458.9 105.6c3.2 0 5.9 2.8 5.9 6.2-.2 8.3-11.5 8.3-11.7 0 0-3.4 2.6-6.2 5.8-6.2zM473.6 96.2c3.2 0 5.9 2.8 5.9 6.2-.2 8.3-11.5 8.3-11.7 0-.1-3.4 2.5-6.2 5.8-6.2zM487.2 87.9c3.2 0 5.9 2.8 5.9 6.2-.2 8.3-11.5 8.3-11.7 0 0-3.4 2.6-6.2 5.8-6.2zM452.1 128.5c3.2 0 5.9 2.8 5.9 6.2-.2 8.3-11.5 8.3-11.7 0-.1-3.4 2.5-6.2 5.8-6.2zM464.8 120.2c3.2 0 5.9 2.8 5.9 6.2-.2 8.3-11.5 8.3-11.7 0-.1-3.4 2.5-6.2 5.8-6.2zM479.4 110.8c3.2 0 5.9 2.8 5.9 6.2-.2 8.3-11.5 8.3-11.7 0 0-3.4 2.6-6.2 5.8-6.2zM493.1 102.5c3.2 0 5.9 2.8 5.9 6.2-.2 8.3-11.5 8.3-11.7 0-.1-3.4 2.5-6.2 5.8-6.2zM464.8 139.9c3.2 0 5.9 2.8 5.9 6.2-.2 8.3-11.5 8.3-11.7 0-.1-3.4 2.5-6.2 5.8-6.2zM477.5 131.6c3.2 0 5.9 2.8 5.9 6.2-.2 8.3-11.5 8.3-11.7 0-.1-3.4 2.5-6.2 5.8-6.2zM492.1 122.3c3.2 0 5.9 2.8 5.9 6.2-.2 8.3-11.5 8.3-11.7 0-.1-3.5 2.6-6.2 5.8-6.2zM505.8 113.9c3.2 0 5.9 2.8 5.9 6.2-.2 8.3-11.5 8.3-11.7 0-.1-3.4 2.5-6.2 5.8-6.2zM481.4 149.3c3.2 0 5.9 2.8 5.9 6.2-.2 8.3-11.5 8.3-11.7 0-.1-3.4 2.5-6.2 5.8-6.2zM494.1 141c3.2 0 5.9 2.8 5.9 6.2-.2 8.3-11.5 8.3-11.7 0-.1-3.4 2.5-6.2 5.8-6.2zM508.7 131.6c3.2 0 5.9 2.8 5.9 6.2-.2 8.3-11.5 8.3-11.7 0-.1-3.4 2.6-6.2 5.8-6.2zM522.4 123.3c3.2 0 5.9 2.8 5.9 6.2-.2 8.3-11.5 8.3-11.7 0-.1-3.4 2.5-6.2 5.8-6.2z"/><path class="st0" d="M500.9 151.4c3.2 0 5.9 2.8 5.9 6.2-.2 8.3-11.5 8.3-11.7 0-.1-3.4 2.6-6.2 5.8-6.2zM513.6 143.1c3.2 0 5.9 2.8 5.9 6.2-.2 8.3-11.5 8.3-11.7 0-.1-3.4 2.6-6.2 5.8-6.2zM528.2 133.7c3.2 0 5.9 2.8 5.9 6.2-.2 8.3-11.5 8.3-11.7 0 0-3.4 2.6-6.2 5.8-6.2zM541.9 125.4c3.2 0 5.9 2.8 5.9 6.2-.2 8.3-11.5 8.3-11.7 0-.1-3.4 2.6-6.2 5.8-6.2zM520.4 155.6c3.2 0 5.9 2.8 5.9 6.2-.2 8.3-11.5 8.3-11.7 0 0-3.5 2.6-6.2 5.8-6.2zM533.1 147.2c3.2 0 5.9 2.8 5.9 6.2-.2 8.3-11.5 8.3-11.7 0 0-3.4 2.6-6.2 5.8-6.2zM547.8 137.9c3.2 0 5.9 2.8 5.9 6.2-.2 8.3-11.5 8.3-11.7 0-.1-3.4 2.5-6.2 5.8-6.2zM561.4 129.5c3.2 0 5.9 2.8 5.9 6.2-.2 8.3-11.5 8.3-11.7 0 0-3.4 2.6-6.2 5.8-6.2zM515.5 175.3c3.2 0 5.9 2.8 5.9 6.2-.2 8.3-11.5 8.3-11.7 0 0-3.4 2.6-6.2 5.8-6.2zM528.2 167c3.2 0 5.9 2.8 5.9 6.2-.2 8.3-11.5 8.3-11.7 0 0-3.4 2.6-6.2 5.8-6.2zM542.9 157.6c3.2 0 5.9 2.8 5.9 6.2-.2 8.3-11.5 8.3-11.7 0-.1-3.4 2.5-6.2 5.8-6.2zM556.5 149.3c3.2 0 5.9 2.8 5.9 6.2-.2 8.3-11.5 8.3-11.7 0 0-3.4 2.6-6.2 5.8-6.2zM513.6 194.1c3.2 0 5.9 2.8 5.9 6.2-.2 8.3-11.5 8.3-11.7 0-.1-3.4 2.6-6.2 5.8-6.2zM526.3 185.7c3.2 0 5.9 2.8 5.9 6.2-.2 8.3-11.5 8.3-11.7 0-.1-3.4 2.5-6.2 5.8-6.2zM540.9 176.4c3.2 0 5.9 2.8 5.9 6.2-.2 8.3-11.5 8.3-11.7 0 0-3.4 2.6-6.2 5.8-6.2zM554.6 168c3.2 0 5.9 2.8 5.9 6.2-.2 8.3-11.5 8.3-11.7 0-.1-3.4 2.6-6.2 5.8-6.2zM506.8 218c3.2 0 5.9 2.8 5.9 6.2-.2 8.3-11.5 8.3-11.7 0-.1-3.4 2.5-6.2 5.8-6.2zM519.4 209.7c3.2 0 5.9 2.8 5.9 6.2-.2 8.3-11.5 8.3-11.7 0 0-3.4 2.6-6.2 5.8-6.2zM534.1 200.3c3.2 0 5.9 2.8 5.9 6.2-.2 8.3-11.5 8.3-11.7 0-.1-3.4 2.6-6.2 5.8-6.2zM547.8 192c3.2 0 5.9 2.8 5.9 6.2-.2 8.3-11.5 8.3-11.7 0-.1-3.4 2.5-6.2 5.8-6.2zM503.8 238.8c3.2 0 5.9 2.8 5.9 6.2-.2 8.3-11.5 8.3-11.7 0 0-3.4 2.6-6.2 5.8-6.2zM516.5 230.5c3.2 0 5.9 2.8 5.9 6.2-.2 8.3-11.5 8.3-11.7 0 0-3.4 2.6-6.2 5.8-6.2zM531.2 221.1c3.2 0 5.9 2.8 5.9 6.2-.2 8.3-11.5 8.3-11.7 0-.1-3.4 2.5-6.2 5.8-6.2zM544.8 212.8c3.2 0 5.9 2.8 5.9 6.2-.2 8.3-11.5 8.3-11.7 0 0-3.4 2.6-6.2 5.8-6.2zM499.9 260.7c3.2 0 5.9 2.8 5.9 6.2-.2 8.3-11.5 8.3-11.7 0 0-3.4 2.6-6.2 5.8-6.2zM512.6 252.3c3.2 0 5.9 2.8 5.9 6.2-.2 8.3-11.5 8.3-11.7 0 0-3.4 2.6-6.2 5.8-6.2zM527.3 243c3.2 0 5.9 2.8 5.9 6.2-.2 8.3-11.5 8.3-11.7 0-.1-3.4 2.5-6.2 5.8-6.2zM540.9 234.6c3.2 0 5.9 2.8 5.9 6.2-.2 8.3-11.5 8.3-11.7 0 0-3.4 2.6-6.2 5.8-6.2zM498 278.3c3.2 0 5.9 2.8 5.9 6.2-.2 8.3-11.5 8.3-11.7 0-.1-3.4 2.5-6.2 5.8-6.2zM510.7 270c3.2 0 5.9 2.8 5.9 6.2-.2 8.3-11.5 8.3-11.7 0-.1-3.4 2.5-6.2 5.8-6.2zM525.3 260.7c3.2 0 5.9 2.8 5.9 6.2-.2 8.3-11.5 8.3-11.7 0-.1-3.4 2.6-6.2 5.8-6.2zM539 252.3c3.2 0 5.9 2.8 5.9 6.2-.2 8.3-11.5 8.3-11.7 0-.1-3.4 2.5-6.2 5.8-6.2zM496 297.1c3.2 0 5.9 2.8 5.9 6.2-.2 8.3-11.5 8.3-11.7 0 0-3.4 2.6-6.2 5.8-6.2zM508.7 288.8c3.2 0 5.9 2.8 5.9 6.2-.2 8.3-11.5 8.3-11.7 0-.1-3.5 2.6-6.2 5.8-6.2zM523.4 279.4c3.2 0 5.9 2.8 5.9 6.2-.2 8.3-11.5 8.3-11.7 0-.1-3.4 2.5-6.2 5.8-6.2zM537 271.1c3.2 0 5.9 2.8 5.9 6.2-.2 8.3-11.5 8.3-11.7 0 0-3.4 2.6-6.2 5.8-6.2zM501.9 312.7c3.2 0 5.9 2.8 5.9 6.2-.2 8.3-11.5 8.3-11.7 0-.1-3.4 2.5-6.2 5.8-6.2zM514.6 304.4c3.2 0 5.9 2.8 5.9 6.2-.2 8.3-11.5 8.3-11.7 0-.1-3.4 2.5-6.2 5.8-6.2zM529.2 295c3.2 0 5.9 2.8 5.9 6.2-.2 8.3-11.5 8.3-11.7 0 0-3.4 2.6-6.2 5.8-6.2zM542.9 286.7c3.2 0 5.9 2.8 5.9 6.2-.2 8.3-11.5 8.3-11.7 0-.1-3.4 2.5-6.2 5.8-6.2zM516.5 321c3.2 0 5.9 2.8 5.9 6.2-.2 8.3-11.5 8.3-11.7 0 0-3.4 2.6-6.2 5.8-6.2zM529.2 312.7c3.2 0 5.9 2.8 5.9 6.2-.2 8.3-11.5 8.3-11.7 0 0-3.4 2.6-6.2 5.8-6.2zM543.9 303.3c3.2 0 5.9 2.8 5.9 6.2-.2 8.3-11.5 8.3-11.7 0-.1-3.4 2.5-6.2 5.8-6.2zM557.5 295c3.2 0 5.9 2.8 5.9 6.2-.2 8.3-11.5 8.3-11.7 0 0-3.4 2.6-6.2 5.8-6.2zM533.1 326.2c3.2 0 5.9 2.8 5.9 6.2-.2 8.3-11.5 8.3-11.7 0 0-3.4 2.6-6.2 5.8-6.2zM545.8 317.9c3.2 0 5.9 2.8 5.9 6.2-.2 8.3-11.5 8.3-11.7 0 0-3.4 2.6-6.2 5.8-6.2z"/><path class="st0" d="M560.5 308.5c3.2 0 5.9 2.8 5.9 6.2-.2 8.3-11.5 8.3-11.7 0-.1-3.4 2.5-6.2 5.8-6.2zM574.1 300.2c3.2 0 5.9 2.8 5.9 6.2-.2 8.3-11.5 8.3-11.7 0 0-3.4 2.6-6.2 5.8-6.2zM554.6 327.3c3.2 0 5.9 2.8 5.9 6.2-.2 8.3-11.5 8.3-11.7 0-.1-3.4 2.6-6.2 5.8-6.2z"/><path class="st0" d="M567.3 318.9c3.2 0 5.9 2.8 5.9 6.2-.2 8.3-11.5 8.3-11.7 0-.1-3.4 2.6-6.2 5.8-6.2zM581.9 309.6c3.2 0 5.9 2.8 5.9 6.2-.2 8.3-11.5 8.3-11.7 0 0-3.4 2.6-6.2 5.8-6.2zM595.6 301.2c3.2 0 5.9 2.8 5.9 6.2-.2 8.3-11.5 8.3-11.7 0-.1-3.4 2.6-6.2 5.8-6.2zM580 327.3c3.2 0 5.9 2.8 5.9 6.2-.2 8.3-11.5 8.3-11.7 0-.1-3.4 2.5-6.2 5.8-6.2zM592.7 318.9c3.2 0 5.9 2.8 5.9 6.2-.2 8.3-11.5 8.3-11.7 0-.1-3.4 2.5-6.2 5.8-6.2zM607.3 309.6c3.2 0 5.9 2.8 5.9 6.2-.2 8.3-11.5 8.3-11.7 0 0-3.4 2.6-6.2 5.8-6.2zM621 301.2c3.2 0 5.9 2.8 5.9 6.2-.2 8.3-11.5 8.3-11.7 0-.1-3.4 2.6-6.2 5.8-6.2z"/><path class="st0" d="M601.5 326.2c3.2 0 5.9 2.8 5.9 6.2-.2 8.3-11.5 8.3-11.7 0-.1-3.4 2.5-6.2 5.8-6.2zM614.2 317.9c3.2 0 5.9 2.8 5.9 6.2-.2 8.3-11.5 8.3-11.7 0-.1-3.4 2.5-6.2 5.8-6.2zM628.8 308.5c3.2 0 5.9 2.8 5.9 6.2-.2 8.3-11.5 8.3-11.7 0-.1-3.4 2.6-6.2 5.8-6.2zM642.5 300.2c3.2 0 5.9 2.8 5.9 6.2-.2 8.3-11.5 8.3-11.7 0-.1-3.4 2.5-6.2 5.8-6.2zM625.9 325.2c3.2 0 5.9 2.8 5.9 6.2-.2 8.3-11.5 8.3-11.7 0-.1-3.4 2.5-6.2 5.8-6.2z"/><path class="st0" d="M638.6 316.9c3.2 0 5.9 2.8 5.9 6.2-.2 8.3-11.5 8.3-11.7 0-.1-3.5 2.5-6.2 5.8-6.2zM653.2 307.5c3.2 0 5.9 2.8 5.9 6.2-.2 8.3-11.5 8.3-11.7 0 0-3.4 2.6-6.2 5.8-6.2zM666.9 299.2c3.2 0 5.9 2.8 5.9 6.2-.2 8.3-11.5 8.3-11.7 0-.1-3.4 2.5-6.2 5.8-6.2z"/><path class="st0" d="M648.3 298.1c3.2 0 5.9 2.8 5.9 6.2-.2 8.3-11.5 8.3-11.7 0 0-3.4 2.6-6.2 5.8-6.2zM661 289.8c3.2 0 5.9 2.8 5.9 6.2-.2 8.3-11.5 8.3-11.7 0 0-3.4 2.6-6.2 5.8-6.2zM675.7 280.4c3.2 0 5.9 2.8 5.9 6.2-.2 8.3-11.5 8.3-11.7 0-.1-3.4 2.5-6.2 5.8-6.2zM689.3 272.1c3.2 0 5.9 2.8 5.9 6.2-.2 8.3-11.5 8.3-11.7 0 0-3.4 2.6-6.2 5.8-6.2z"/></svg>