<svg width="21" height="21" fill="none" xmlns="http://www.w3.org/2000/svg"><path d="M10.502.206C4.848.206.208 4.846.208 10.5c0 4.825 3.385 9.208 7.881 10.294v-3.406c-.446.098-.855.1-1.309-.033-.608-.18-1.103-.585-1.47-1.203-.233-.394-.648-.822-1.08-.79l-.106-1.202c.935-.08 1.744.57 2.224 1.376.213.359.459.57.774.662.304.09.631.047 1.012-.088.096-.763.445-1.048.71-1.45v-.001c-2.682-.4-3.75-1.822-4.174-2.945-.562-1.491-.26-3.353.733-4.53.02-.023.054-.083.04-.125-.455-1.377.1-2.515.12-2.636.527.155.612-.157 2.285.86l.29.174c.12.072.082.03.203.021a8.737 8.737 0 0 1 2.16-.304c.732.01 1.463.115 2.19.312l.094.01c-.008-.002.026-.006.082-.04 2.09-1.266 2.015-.852 2.575-1.034.02.12.568 1.278.118 2.637-.061.187 1.812 1.902.774 4.654-.425 1.124-1.493 2.546-4.174 2.946.343.524.756.803.754 1.884v4.251c4.496-1.086 7.882-5.47 7.882-10.294 0-5.654-4.64-10.294-10.294-10.294Z" fill="#FCFCFC"/></svg>