<svg width="20" height="20" fill="none" xmlns="http://www.w3.org/2000/svg"><path d="M10.002.588C4.832.588.59 4.83.59 10c0 4.411 3.095 8.418 7.206 9.412v-3.114c-.408.089-.782.092-1.197-.03-.556-.165-1.008-.535-1.344-1.1-.213-.361-.592-.752-.988-.723l-.097-1.1c.855-.072 1.595.522 2.034 1.26.195.327.42.52.707.605.279.082.578.042.926-.08.088-.698.407-.96.649-1.327-2.452-.366-3.429-1.667-3.817-2.693-.513-1.363-.238-3.066.671-4.142.018-.021.05-.076.037-.114-.416-1.259.091-2.3.11-2.41.48.142.559-.143 2.088.786l.265.159c.11.066.076.028.186.02a7.988 7.988 0 0 1 1.976-.278 8.021 8.021 0 0 1 2.002.285l.085.008c-.007 0 .024-.005.075-.036 1.911-1.157 1.842-.779 2.355-.945.018.11.52 1.168.107 2.41-.056.172 1.657 1.74.708 4.256-.388 1.027-1.365 2.328-3.816 2.694.314.479.691.734.69 1.722v3.887c4.11-.994 7.205-5 7.205-9.412 0-5.17-4.242-9.412-9.411-9.412Z" fill="#FCFCFC"/></svg>